AmiriLatin-Regular.ufo
<glyph name="percent" format="2">
	<unicode hex="0025"/>
	<advance width="651"/>
	<outline>
		<contour>
			<point x="182" y="606" type="curve" smooth="yes"/>
			<point x="124" y="606"/>
			<point x="102" y="542"/>
			<point x="102" y="484" type="curve" smooth="yes"/>
			<point x="102" y="417"/>
			<point x="142" y="342"/>
			<point x="191" y="342" type="curve" smooth="yes"/>
			<point x="248" y="342"/>
			<point x="265" y="408"/>
			<point x="265" y="465" type="curve" smooth="yes"/>
			<point x="265" y="530"/>
			<point x="234" y="606"/>
		</contour>
		<contour>
			<point x="186" y="630" type="curve" smooth="yes"/>
			<point x="271" y="630"/>
			<point x="329" y="558"/>
			<point x="329" y="473" type="curve" smooth="yes"/>
			<point x="329" y="395"/>
			<point x="275" y="317"/>
			<point x="186" y="317" type="curve" smooth="yes"/>
			<point x="105" y="317"/>
			<point x="39" y="387"/>
			<point x="39" y="473" type="curve" smooth="yes"/>
			<point x="39" y="560"/>
			<point x="99" y="630"/>
		</contour>
		<contour>
			<point x="464" y="282" type="curve" smooth="yes"/>
			<point x="406" y="282"/>
			<point x="383" y="218"/>
			<point x="383" y="160" type="curve" smooth="yes"/>
			<point x="383" y="93"/>
			<point x="425" y="18"/>
			<point x="474" y="18" type="curve" smooth="yes"/>
			<point x="531" y="18"/>
			<point x="546" y="84"/>
			<point x="546" y="141" type="curve" smooth="yes"/>
			<point x="546" y="206"/>
			<point x="516" y="282"/>
		</contour>
		<contour>
			<point x="468" y="306" type="curve" smooth="yes"/>
			<point x="553" y="306"/>
			<point x="610" y="233"/>
			<point x="610" y="148" type="curve" smooth="yes"/>
			<point x="610" y="70"/>
			<point x="557" y="-7"/>
			<point x="467" y="-7" type="curve" smooth="yes"/>
			<point x="386" y="-7"/>
			<point x="320" y="62"/>
			<point x="320" y="148" type="curve" smooth="yes"/>
			<point x="320" y="235"/>
			<point x="381" y="306"/>
		</contour>
		<contour>
			<point x="584" y="609" type="curve"/>
			<point x="112" y="0" type="line" smooth="yes"/>
			<point x="108" y="-5"/>
			<point x="92" y="-12"/>
			<point x="80" y="-12" type="curve" smooth="yes"/>
			<point x="66" y="-12"/>
			<point x="63" y="-3"/>
			<point x="62" y="-1" type="curve"/>
			<point x="533" y="609" type="line" smooth="yes"/>
			<point x="538" y="615"/>
			<point x="547" y="621"/>
			<point x="553" y="621" type="curve" smooth="yes"/>
			<point x="581" y="621"/>
			<point x="575" y="618"/>
		</contour>
	</outline>
</glyph>
<glyph name="ampersand" format="2">
	<unicode hex="0026"/>
	<advance width="666"/>
	<outline>
		<contour>
			<point x="396" y="93" type="curve"/>
			<point x="333" y="157"/>
			<point x="236" y="307"/>
			<point x="236" y="307" type="curve"/>
			<point x="183" y="271"/>
			<point x="136" y="238"/>
			<point x="136" y="168" type="curve" smooth="yes"/>
			<point x="136" y="76"/>
			<point x="203" y="39"/>
			<point x="274" y="39" type="curve" smooth="yes"/>
			<point x="313" y="39"/>
			<point x="365" y="60"/>
		</contour>
		<contour>
			<point x="306" y="605" type="curve" smooth="yes"/>
			<point x="264" y="605"/>
			<point x="229" y="575"/>
			<point x="229" y="530" type="curve" smooth="yes"/>
			<point x="229" y="482"/>
			<point x="248" y="433"/>
			<point x="279" y="376" type="curve"/>
			<point x="340" y="411"/>
			<point x="376" y="443"/>
			<point x="376" y="518" type="curve" smooth="yes"/>
			<point x="376" y="562"/>
			<point x="350" y="605"/>
		</contour>
		<contour>
			<point x="301" y="641" type="curve" smooth="yes"/>
			<point x="387" y="641"/>
			<point x="442" y="601"/>
			<point x="442" y="531" type="curve" smooth="yes"/>
			<point x="442" y="443"/>
			<point x="371" y="391"/>
			<point x="297" y="345" type="curve"/>
			<point x="338" y="276"/>
			<point x="392" y="205"/>
			<point x="441" y="150" type="curve"/>
			<point x="477" y="205"/>
			<point x="497" y="255"/>
			<point x="497" y="265" type="curve" smooth="yes"/>
			<point x="497" y="285"/>
			<point x="460" y="280"/>
			<point x="453" y="282" type="curve"/>
			<point x="450" y="288"/>
			<point x="450" y="301"/>
			<point x="454" y="305" type="curve"/>
			<point x="531" y="305" type="line" smooth="yes"/>
			<point x="565" y="305"/>
			<point x="594" y="308"/>
			<point x="639" y="310" type="curve"/>
			<point x="642" y="308"/>
			<point x="641" y="282"/>
			<point x="638" y="282" type="curve"/>
			<point x="621" y="282"/>
			<point x="581" y="273"/>
			<point x="570" y="266" type="curve" smooth="yes"/>
			<point x="565" y="263"/>
			<point x="529" y="189"/>
			<point x="469" y="120" type="curve"/>
			<point x="513" y="74"/>
			<point x="541" y="44"/>
			<point x="564" y="44" type="curve" smooth="yes"/>
			<point x="585" y="44"/>
			<point x="610" y="76"/>
			<point x="615" y="89" type="curve"/>
			<point x="626" y="89"/>
			<point x="638" y="78"/>
			<point x="638" y="71" type="curve"/>
			<point x="634" y="62"/>
			<point x="606" y="0"/>
			<point x="531" y="0" type="curve" smooth="yes"/>
			<point x="473" y="0"/>
			<point x="419" y="70"/>
			<point x="419" y="70" type="curve"/>
			<point x="372" y="29"/>
			<point x="305" y="-3"/>
			<point x="241" y="-3" type="curve" smooth="yes"/>
			<point x="127" y="-3"/>
			<point x="52" y="55"/>
			<point x="52" y="154" type="curve" smooth="yes"/>
			<point x="52" y="248"/>
			<point x="132" y="300"/>
			<point x="214" y="342" type="curve"/>
			<point x="187" y="389"/>
			<point x="157" y="440"/>
			<point x="157" y="507" type="curve" smooth="yes"/>
			<point x="157" y="581"/>
			<point x="219" y="641"/>
		</contour>
	</outline>
</glyph>
<glyph name="quotesingle" format="2">
  <advance width="156"/>
  <unicode hex="0027"/>
  <outline>
    <contour>
      <point x="89" y="683" type="curve" smooth="yes"/>
      <point x="101" y="683"/>
      <point x="106" y="680"/>
      <point x="114" y="670" type="curve"/>
      <point x="114" y="642"/>
      <point x="107" y="531"/>
      <point x="101" y="480" type="curve"/>
      <point x="98" y="474"/>
      <point x="89" y="466"/>
      <point x="81" y="462" type="curve"/>
      <point x="78" y="462"/>
      <point x="74" y="464"/>
      <point x="72" y="468" type="curve"/>
      <point x="51" y="538"/>
      <point x="38" y="587"/>
      <point x="38" y="614" type="curve" smooth="yes"/>
      <point x="38" y="641"/>
      <point x="58" y="683"/>
    </contour>
  </outline>
</glyph>
<glyph name="asterisk" format="2">
  <advance width="432"/>
  <unicode hex="002A"/>
  <outline>
    <contour>
      <point x="295" y="599" type="curve" smooth="yes"/>
      <point x="312" y="618"/>
      <point x="334" y="625"/>
      <point x="349" y="610" type="curve" smooth="yes"/>
      <point x="365" y="594"/>
      <point x="362" y="573"/>
      <point x="343" y="556" type="curve" smooth="yes"/>
      <point x="309" y="525"/>
      <point x="276" y="519"/>
      <point x="249" y="493" type="curve"/>
      <point x="249" y="493"/>
      <point x="243" y="484"/>
      <point x="244" y="479" type="curve" smooth="yes"/>
      <point x="245" y="474"/>
      <point x="248" y="472"/>
      <point x="253" y="470" type="curve" smooth="yes"/>
      <point x="287" y="454"/>
      <point x="315" y="460"/>
      <point x="358" y="440" type="curve" smooth="yes"/>
      <point x="380" y="430"/>
      <point x="395" y="412"/>
      <point x="386" y="393" type="curve" smooth="yes"/>
      <point x="376" y="373"/>
      <point x="354" y="369"/>
      <point x="333" y="381" type="curve" smooth="yes"/>
      <point x="292" y="403"/>
      <point x="277" y="433"/>
      <point x="244" y="451" type="curve"/>
      <point x="244" y="451"/>
      <point x="235" y="456"/>
      <point x="230" y="454" type="curve" smooth="yes"/>
      <point x="224" y="451"/>
      <point x="225" y="446"/>
      <point x="224" y="441" type="curve" smooth="yes"/>
      <point x="220" y="404"/>
      <point x="233" y="380"/>
      <point x="228" y="333" type="curve" smooth="yes"/>
      <point x="225" y="309"/>
      <point x="212" y="289"/>
      <point x="191" y="292" type="curve" smooth="yes"/>
      <point x="170" y="295"/>
      <point x="159" y="315"/>
      <point x="164" y="339" type="curve" smooth="yes"/>
      <point x="173" y="385"/>
      <point x="197" y="409"/>
      <point x="204" y="446" type="curve"/>
      <point x="204" y="446"/>
      <point x="205" y="455"/>
      <point x="201" y="459" type="curve" smooth="yes"/>
      <point x="198" y="463"/>
      <point x="193" y="463"/>
      <point x="188" y="462" type="curve" smooth="yes"/>
      <point x="152" y="454"/>
      <point x="133" y="434"/>
      <point x="86" y="424" type="curve" smooth="yes"/>
      <point x="63" y="419"/>
      <point x="38" y="425"/>
      <point x="35" y="446" type="curve" smooth="yes"/>
      <point x="31" y="467"/>
      <point x="48" y="484"/>
      <point x="72" y="487" type="curve" smooth="yes"/>
      <point x="119" y="493"/>
      <point x="147" y="477"/>
      <point x="185" y="482" type="curve"/>
      <point x="185" y="482"/>
      <point x="194" y="485"/>
      <point x="196" y="490" type="curve" smooth="yes"/>
      <point x="198" y="495"/>
      <point x="197" y="499"/>
      <point x="194" y="504" type="curve" smooth="yes"/>
      <point x="175" y="536"/>
      <point x="150" y="549"/>
      <point x="127" y="590" type="curve" smooth="yes"/>
      <point x="115" y="611"/>
      <point x="114" y="635"/>
      <point x="132" y="645" type="curve" smooth="yes"/>
      <point x="152" y="655"/>
      <point x="171" y="644"/>
      <point x="182" y="622" type="curve" smooth="yes"/>
      <point x="202" y="579"/>
      <point x="195" y="547"/>
      <point x="212" y="513" type="curve"/>
      <point x="212" y="513"/>
      <point x="217" y="503"/>
      <point x="222" y="502" type="curve" smooth="yes"/>
      <point x="227" y="501"/>
      <point x="231" y="504"/>
      <point x="235" y="508" type="curve" smooth="yes"/>
      <point x="260" y="535"/>
      <point x="264" y="564"/>
    </contour>
  </outline>
</glyph>
<glyph name="zero" format="2">
	<unicode hex="0030"/>
	<advance width="532"/>
	<outline>
		<contour>
			<point x="271" y="590" type="curve" smooth="yes"/>
			<point x="189" y="590"/>
			<point x="139" y="465"/>
			<point x="139" y="312" type="curve" smooth="yes"/>
			<point x="139" y="159"/>
			<point x="190" y="33"/>
			<point x="262" y="33" type="curve" smooth="yes"/>
			<point x="349" y="33"/>
			<point x="393" y="164"/>
			<point x="393" y="317" type="curve" smooth="yes"/>
			<point x="393" y="470"/>
			<point x="343" y="590"/>
		</contour>
		<contour>
			<point x="266" y="626" type="curve" smooth="yes"/>
			<point x="403" y="626"/>
			<point x="479" y="482"/>
			<point x="479" y="312" type="curve" smooth="yes"/>
			<point x="479" y="142"/>
			<point x="401" y="-3"/>
			<point x="266" y="-3" type="curve" smooth="yes"/>
			<point x="133" y="-3"/>
			<point x="53" y="142"/>
			<point x="53" y="312" type="curve" smooth="yes"/>
			<point x="53" y="482"/>
			<point x="131" y="626"/>
		</contour>
	</outline>
</glyph>
<glyph name="two" format="2">
	<unicode hex="0032"/>
	<advance width="532"/>
	<outline>
		<contour>
			<point x="467" y="146" type="curve"/>
			<point x="447" y="98"/>
			<point x="420" y="18"/>
			<point x="414" y="0" type="curve"/>
			<point x="414" y="0"/>
			<point x="83" y="0"/>
			<point x="76" y="0" type="curve"/>
			<point x="72" y="2"/>
			<point x="66" y="10"/>
			<point x="66" y="14" type="curve"/>
			<point x="148" y="105"/>
			<point x="242" y="216"/>
			<point x="299" y="299" type="curve" smooth="yes"/>
			<point x="339" y="358"/>
			<point x="346" y="397"/>
			<point x="346" y="445" type="curve" smooth="yes"/>
			<point x="346" y="512"/>
			<point x="300" y="563"/>
			<point x="238" y="563" type="curve" smooth="yes"/>
			<point x="160" y="563"/>
			<point x="111" y="499"/>
			<point x="99" y="479" type="curve"/>
			<point x="91" y="479"/>
			<point x="80" y="491"/>
			<point x="80" y="495" type="curve"/>
			<point x="87" y="519"/>
			<point x="157" y="627"/>
			<point x="260" y="627" type="curve" smooth="yes"/>
			<point x="354" y="627"/>
			<point x="429" y="547"/>
			<point x="429" y="464" type="curve" smooth="yes"/>
			<point x="429" y="408"/>
			<point x="407" y="358"/>
			<point x="373" y="316" type="curve" smooth="yes"/>
			<point x="304" y="231"/>
			<point x="204" y="120"/>
			<point x="160" y="71" type="curve"/>
			<point x="354" y="71" type="line" smooth="yes"/>
			<point x="393" y="71"/>
			<point x="415" y="95"/>
			<point x="436" y="146" type="curve" smooth="yes"/>
			<point x="438" y="151"/>
			<point x="441" y="152"/>
			<point x="447" y="152" type="curve" smooth="yes"/>
			<point x="451" y="152"/>
			<point x="463" y="149"/>
		</contour>
	</outline>
</glyph>
<glyph name="eight" format="2">
  <advance width="532"/>
  <unicode hex="0038"/>
  <outline>
    <contour>
      <point x="266" y="26" type="curve" smooth="yes"/>
      <point x="330" y="26"/>
      <point x="371" y="69"/>
      <point x="371" y="135" type="curve" smooth="yes"/>
      <point x="371" y="216"/>
      <point x="260" y="280"/>
      <point x="246" y="288" type="curve" smooth="yes"/>
      <point x="244" y="289"/>
      <point x="243" y="290"/>
      <point x="240" y="290" type="curve" smooth="yes"/>
      <point x="239" y="290"/>
      <point x="237" y="290"/>
      <point x="236" y="289" type="curve" smooth="yes"/>
      <point x="182" y="255"/>
      <point x="159" y="215"/>
      <point x="159" y="153" type="curve" smooth="yes"/>
      <point x="159" y="73"/>
      <point x="214" y="26"/>
    </contour>
    <contour>
      <point x="266" y="594" type="curve" smooth="yes"/>
      <point x="219" y="594"/>
      <point x="182" y="545"/>
      <point x="182" y="486" type="curve" smooth="yes"/>
      <point x="182" y="411"/>
      <point x="246" y="376"/>
      <point x="283" y="355" type="curve" smooth="yes"/>
      <point x="285" y="354"/>
      <point x="287" y="354"/>
      <point x="289" y="354" type="curve" smooth="yes"/>
      <point x="291" y="354"/>
      <point x="292" y="353"/>
      <point x="295" y="355" type="curve" smooth="yes"/>
      <point x="335" y="381"/>
      <point x="361" y="421"/>
      <point x="361" y="475" type="curve" smooth="yes"/>
      <point x="361" y="532"/>
      <point x="325" y="594"/>
    </contour>
    <contour>
      <point x="271" y="628" type="curve" smooth="yes"/>
      <point x="358" y="628"/>
      <point x="432" y="575"/>
      <point x="432" y="484" type="curve" smooth="yes"/>
      <point x="432" y="408"/>
      <point x="367" y="364"/>
      <point x="322" y="336" type="curve"/>
      <point x="318" y="335"/>
      <point x="319" y="332"/>
      <point x="322" y="330" type="curve" smooth="yes"/>
      <point x="381" y="297"/>
      <point x="450" y="233"/>
      <point x="450" y="163" type="curve" smooth="yes"/>
      <point x="450" y="65"/>
      <point x="362" y="-9"/>
      <point x="264" y="-9" type="curve" smooth="yes"/>
      <point x="157" y="-9"/>
      <point x="82" y="55"/>
      <point x="82" y="150" type="curve" smooth="yes"/>
      <point x="82" y="236"/>
      <point x="171" y="287"/>
      <point x="209" y="311" type="curve" smooth="yes"/>
      <point x="212" y="313"/>
      <point x="211" y="315"/>
      <point x="209" y="316" type="curve" smooth="yes"/>
      <point x="168" y="340"/>
      <point x="109" y="397"/>
      <point x="109" y="469" type="curve" smooth="yes"/>
      <point x="109" y="552"/>
      <point x="185" y="628"/>
    </contour>
  </outline>
</glyph>
<glyph name="greater" format="2">
  <advance width="481"/>
  <unicode hex="003E"/>
  <outline>
    <contour>
      <point x="47" y="34" type="curve" smooth="yes"/>
      <point x="47" y="38"/>
      <point x="50" y="40"/>
      <point x="50" y="40" type="curve"/>
      <point x="373" y="204" type="line"/>
      <point x="56" y="365" type="line"/>
      <point x="56" y="365"/>
      <point x="53" y="366"/>
      <point x="53" y="373" type="curve" smooth="yes"/>
      <point x="53" y="391"/>
      <point x="64" y="420"/>
      <point x="68" y="420" type="curve" smooth="yes"/>
      <point x="69" y="420"/>
      <point x="71" y="419"/>
      <point x="73" y="418" type="curve" smooth="yes"/>
      <point x="435" y="235" type="line" smooth="yes"/>
      <point x="445" y="230"/>
      <point x="451" y="223"/>
      <point x="451" y="212" type="curve" smooth="yes"/>
      <point x="451" y="195"/>
      <point x="450" y="181"/>
      <point x="435" y="173" type="curve" smooth="yes"/>
      <point x="68" y="-13" type="line" smooth="yes"/>
      <point x="66" y="-14"/>
      <point x="64" y="-15"/>
      <point x="63" y="-15" type="curve" smooth="yes"/>
      <point x="57" y="-15"/>
      <point x="47" y="26"/>
    </contour>
  </outline>
</glyph>
<glyph name="question" format="2">
  <advance width="347"/>
  <unicode hex="003F"/>
  <outline>
    <contour>
      <point x="62" y="44" type="curve" smooth="yes"/>
      <point x="62" y="73"/>
      <point x="87" y="97"/>
      <point x="116" y="97" type="curve" smooth="yes"/>
      <point x="145" y="97"/>
      <point x="169" y="73"/>
      <point x="169" y="44" type="curve" smooth="yes"/>
      <point x="169" y="15"/>
      <point x="145" y="-11"/>
      <point x="116" y="-11" type="curve" smooth="yes"/>
      <point x="87" y="-11"/>
      <point x="62" y="15"/>
    </contour>
    <contour>
      <point x="98" y="535" type="curve" smooth="yes"/>
      <point x="84" y="535"/>
      <point x="55" y="552"/>
      <point x="55" y="584" type="curve" smooth="yes"/>
      <point x="55" y="599"/>
      <point x="58" y="613"/>
      <point x="63" y="620" type="curve"/>
      <point x="73" y="625"/>
      <point x="89" y="627"/>
      <point x="110" y="627" type="curve" smooth="yes"/>
      <point x="174" y="627"/>
      <point x="303" y="560"/>
      <point x="303" y="446" type="curve" smooth="yes"/>
      <point x="303" y="380"/>
      <point x="277" y="339"/>
      <point x="204" y="297" type="curve" smooth="yes"/>
      <point x="178" y="281"/>
      <point x="134" y="247"/>
      <point x="128" y="236" type="curve" smooth="yes"/>
      <point x="119" y="220"/>
      <point x="122" y="190"/>
      <point x="122" y="168" type="curve"/>
      <point x="118" y="160"/>
      <point x="115" y="156"/>
      <point x="106" y="155" type="curve"/>
      <point x="101" y="157"/>
      <point x="97" y="160"/>
      <point x="94" y="166" type="curve"/>
      <point x="89" y="187"/>
      <point x="86" y="229"/>
      <point x="86" y="255" type="curve" smooth="yes"/>
      <point x="86" y="327"/>
      <point x="133" y="353"/>
      <point x="169" y="376" type="curve" smooth="yes"/>
      <point x="217" y="406"/>
      <point x="254" y="429"/>
      <point x="254" y="476" type="curve" smooth="yes"/>
      <point x="254" y="527"/>
      <point x="219" y="556"/>
      <point x="182" y="556" type="curve" smooth="yes"/>
      <point x="130" y="556"/>
      <point x="123" y="535"/>
    </contour>
  </outline>
</glyph>
<glyph name="at" format="2">
  <advance width="730"/>
  <unicode hex="0040"/>
  <outline>
    <contour>
      <point x="408" y="564" type="curve" smooth="yes"/>
      <point x="599" y="564"/>
      <point x="695" y="416"/>
      <point x="695" y="264" type="curve" smooth="yes"/>
      <point x="695" y="115"/>
      <point x="608" y="-7"/>
      <point x="494" y="-7" type="curve" smooth="yes"/>
      <point x="446" y="-7"/>
      <point x="413" y="17"/>
      <point x="413" y="77" type="curve" smooth="yes"/>
      <point x="413" y="89"/>
      <point x="417" y="114"/>
      <point x="420" y="122" type="curve"/>
      <point x="401" y="86"/>
      <point x="339" y="-5"/>
      <point x="282" y="-5" type="curve" smooth="yes"/>
      <point x="221" y="-5"/>
      <point x="189" y="59"/>
      <point x="189" y="127" type="curve" smooth="yes"/>
      <point x="189" y="270"/>
      <point x="335" y="425"/>
      <point x="469" y="425" type="curve" smooth="yes"/>
      <point x="503" y="425"/>
      <point x="521" y="419"/>
      <point x="540" y="412" type="curve"/>
      <point x="480" y="104" type="line" smooth="yes"/>
      <point x="479" y="100"/>
      <point x="478" y="84"/>
      <point x="478" y="79" type="curve" smooth="yes"/>
      <point x="478" y="48"/>
      <point x="498" y="35"/>
      <point x="524" y="35" type="curve" smooth="yes"/>
      <point x="586" y="35"/>
      <point x="656" y="139"/>
      <point x="656" y="261" type="curve" smooth="yes"/>
      <point x="656" y="393"/>
      <point x="578" y="525"/>
      <point x="408" y="525" type="curve" smooth="yes"/>
      <point x="209" y="525"/>
      <point x="87" y="336"/>
      <point x="87" y="166" type="curve" smooth="yes"/>
      <point x="87" y="52"/>
      <point x="147" y="-35"/>
      <point x="217" y="-76" type="curve" smooth="yes"/>
      <point x="252" y="-97"/>
      <point x="271" y="-101"/>
      <point x="290" y="-104" type="curve"/>
      <point x="290" y="-112"/>
      <point x="267" y="-121"/>
      <point x="255" y="-121" type="curve" smooth="yes"/>
      <point x="243" y="-121"/>
      <point x="230" y="-120"/>
      <point x="217" y="-115" type="curve" smooth="yes"/>
      <point x="127" y="-82"/>
      <point x="48" y="28"/>
      <point x="48" y="166" type="curve" smooth="yes"/>
      <point x="48" y="357"/>
      <point x="181" y="564"/>
    </contour>
    <contour>
      <point x="428" y="380" type="curve" smooth="yes"/>
      <point x="353" y="380"/>
      <point x="262" y="259"/>
      <point x="262" y="147" type="curve" smooth="yes"/>
      <point x="262" y="86"/>
      <point x="278" y="52"/>
      <point x="312" y="52" type="curve" smooth="yes"/>
      <point x="361" y="52"/>
      <point x="429" y="174"/>
      <point x="448" y="268" type="curve" smooth="yes"/>
      <point x="468" y="367" type="line"/>
      <point x="459" y="377"/>
      <point x="441" y="380"/>
    </contour>
  </outline>
</glyph>
<glyph name="A" format="2">
	<unicode hex="0041"/>
	<advance width="612"/>
	<outline>
		<contour>
			<point x="93" y="136" type="curve" smooth="yes"/>
			<point x="93" y="136"/>
			<point x="221" y="467"/>
			<point x="281" y="619" type="curve"/>
			<point x="286" y="629"/>
			<point x="310" y="647"/>
			<point x="319" y="647" type="curve" smooth="yes"/>
			<point x="322" y="647"/>
			<point x="321" y="646"/>
			<point x="324" y="645" type="curve"/>
			<point x="523" y="123" type="line" smooth="yes"/>
			<point x="537" y="86"/>
			<point x="546" y="63"/>
			<point x="548" y="59" type="curve" smooth="yes"/>
			<point x="558" y="36"/>
			<point x="607" y="25"/>
			<point x="615" y="25" type="curve"/>
			<point x="620" y="18"/>
			<point x="617" y="0"/>
			<point x="616" y="-3" type="curve"/>
			<point x="577" y="-1"/>
			<point x="552" y="2"/>
			<point x="509" y="2" type="curve" smooth="yes"/>
			<point x="464" y="2"/>
			<point x="441" y="-1"/>
			<point x="396" y="-3" type="curve"/>
			<point x="391" y="2"/>
			<point x="392" y="20"/>
			<point x="397" y="25" type="curve"/>
			<point x="409" y="25"/>
			<point x="442" y="30"/>
			<point x="451" y="38" type="curve" smooth="yes"/>
			<point x="454" y="41"/>
			<point x="455" y="46"/>
			<point x="455" y="52" type="curve" smooth="yes"/>
			<point x="455" y="81"/>
			<point x="389" y="242"/>
			<point x="389" y="242" type="curve"/>
			<point x="389" y="242"/>
			<point x="386" y="246"/>
			<point x="383" y="246" type="curve" smooth="yes"/>
			<point x="358" y="248"/>
			<point x="310" y="247"/>
			<point x="286" y="247" type="curve" smooth="yes"/>
			<point x="246" y="247"/>
			<point x="225" y="247"/>
			<point x="181" y="244" type="curve" smooth="yes"/>
			<point x="179" y="244"/>
			<point x="176" y="241"/>
			<point x="176" y="241" type="curve"/>
			<point x="176" y="241"/>
			<point x="148" y="169"/>
			<point x="132" y="122" type="curve" smooth="yes"/>
			<point x="120" y="88"/>
			<point x="118" y="66"/>
			<point x="118" y="53" type="curve" smooth="yes"/>
			<point x="118" y="30"/>
			<point x="178" y="25"/>
			<point x="186" y="25" type="curve"/>
			<point x="189" y="22"/>
			<point x="190" y="3"/>
			<point x="188" y="-3" type="curve"/>
			<point x="149" y="-1"/>
			<point x="136" y="2"/>
			<point x="93" y="2" type="curve" smooth="yes"/>
			<point x="48" y="2"/>
			<point x="33" y="-1"/>
			<point x="-12" y="-3" type="curve"/>
			<point x="-15" y="0"/>
			<point x="-15" y="18"/>
			<point x="-12" y="25" type="curve"/>
			<point x="0" y="25"/>
			<point x="37" y="31"/>
			<point x="47" y="44" type="curve" smooth="yes"/>
			<point x="67" y="69"/>
			<point x="79" y="101"/>
		</contour>
		<contour>
			<point x="284" y="529" type="line"/>
			<point x="195" y="291" type="line"/>
			<point x="195" y="291"/>
			<point x="195" y="287"/>
			<point x="197" y="287" type="curve" smooth="yes"/>
			<point x="222" y="286"/>
			<point x="263" y="285"/>
			<point x="285" y="285" type="curve" smooth="yes"/>
			<point x="315" y="285"/>
			<point x="337" y="286"/>
			<point x="367" y="288" type="curve" smooth="yes"/>
			<point x="369" y="288"/>
			<point x="370" y="293"/>
			<point x="370" y="293" type="curve"/>
		</contour>
	</outline>
</glyph>
<glyph name="B" format="2">
	<unicode hex="0042"/>
	<advance width="582"/>
	<outline>
		<contour>
			<point x="202" y="324" type="line"/>
			<point x="202" y="112" type="line" smooth="yes"/>
			<point x="202" y="98"/>
			<point x="203" y="53"/>
			<point x="210" y="46" type="curve" smooth="yes"/>
			<point x="225" y="30"/>
			<point x="251" y="28"/>
			<point x="287" y="28" type="curve" smooth="yes"/>
			<point x="360" y="28"/>
			<point x="443" y="53"/>
			<point x="443" y="172" type="curve" smooth="yes"/>
			<point x="443" y="245"/>
			<point x="411" y="324"/>
			<point x="261" y="324" type="curve" smooth="yes"/>
		</contour>
		<contour>
			<point x="202" y="361" type="line"/>
			<point x="283" y="361" type="line" smooth="yes"/>
			<point x="371" y="361"/>
			<point x="406" y="420"/>
			<point x="406" y="476" type="curve" smooth="yes"/>
			<point x="406" y="563"/>
			<point x="346" y="612"/>
			<point x="255" y="612" type="curve" smooth="yes"/>
			<point x="243" y="612"/>
			<point x="210" y="612"/>
			<point x="206" y="603" type="curve" smooth="yes"/>
			<point x="201" y="591"/>
			<point x="202" y="558"/>
			<point x="202" y="529" type="curve" smooth="yes"/>
		</contour>
		<contour>
			<point x="298" y="644" type="curve" smooth="yes"/>
			<point x="387" y="644"/>
			<point x="495" y="609"/>
			<point x="495" y="498" type="curve" smooth="yes"/>
			<point x="495" y="423"/>
			<point x="430" y="369"/>
			<point x="396" y="356" type="curve" smooth="yes"/>
			<point x="394" y="355"/>
			<point x="393" y="354"/>
			<point x="396" y="352" type="curve"/>
			<point x="444" y="350"/>
			<point x="539" y="291"/>
			<point x="539" y="194" type="curve" smooth="yes"/>
			<point x="539" y="138"/>
			<point x="522" y="90"/>
			<point x="474" y="50" type="curve" smooth="yes"/>
			<point x="427" y="11"/>
			<point x="344" y="-2"/>
			<point x="269" y="-3" type="curve" smooth="yes"/>
			<point x="237" y="-3"/>
			<point x="82" y="-3"/>
			<point x="44" y="-3" type="curve"/>
			<point x="39" y="2"/>
			<point x="40" y="20"/>
			<point x="44" y="25" type="curve"/>
			<point x="56" y="25"/>
			<point x="109" y="30"/>
			<point x="112" y="41" type="curve" smooth="yes"/>
			<point x="117" y="57"/>
			<point x="117" y="84"/>
			<point x="117" y="113" type="curve" smooth="yes"/>
			<point x="117" y="530" type="line" smooth="yes"/>
			<point x="117" y="559"/>
			<point x="117" y="587"/>
			<point x="112" y="603" type="curve" smooth="yes"/>
			<point x="109" y="614"/>
			<point x="56" y="618"/>
			<point x="44" y="618" type="curve"/>
			<point x="40" y="623"/>
			<point x="39" y="641"/>
			<point x="44" y="646" type="curve"/>
			<point x="84" y="644"/>
			<point x="122" y="642"/>
			<point x="160" y="642" type="curve" smooth="yes"/>
			<point x="198" y="642"/>
			<point x="240" y="644"/>
		</contour>
	</outline>
</glyph>
<glyph name="D" format="2">
	<unicode hex="0044"/>
	<advance width="693"/>
	<outline>
		<contour>
			<point x="203" y="528" type="curve" smooth="yes"/>
			<point x="203" y="112" type="line" smooth="yes"/>
			<point x="203" y="98"/>
			<point x="203" y="48"/>
			<point x="208" y="42" type="curve" smooth="yes"/>
			<point x="216" y="31"/>
			<point x="252" y="28"/>
			<point x="288" y="28" type="curve" smooth="yes"/>
			<point x="427" y="28"/>
			<point x="547" y="116"/>
			<point x="547" y="306" type="curve" smooth="yes"/>
			<point x="547" y="527"/>
			<point x="416" y="611"/>
			<point x="275" y="611" type="curve" smooth="yes"/>
			<point x="263" y="611"/>
			<point x="210" y="611"/>
			<point x="207" y="601" type="curve" smooth="yes"/>
			<point x="202" y="585"/>
			<point x="203" y="556"/>
		</contour>
		<contour>
			<point x="301" y="643" type="curve" smooth="yes"/>
			<point x="515" y="643"/>
			<point x="644" y="507"/>
			<point x="644" y="326" type="curve" smooth="yes"/>
			<point x="644" y="160"/>
			<point x="563" y="-3"/>
			<point x="288" y="-3" type="curve" smooth="yes"/>
			<point x="245" y="-3"/>
			<point x="82" y="-3"/>
			<point x="44" y="-3" type="curve"/>
			<point x="39" y="2"/>
			<point x="40" y="20"/>
			<point x="44" y="25" type="curve"/>
			<point x="56" y="25"/>
			<point x="109" y="30"/>
			<point x="112" y="41" type="curve" smooth="yes"/>
			<point x="117" y="57"/>
			<point x="117" y="84"/>
			<point x="117" y="113" type="curve" smooth="yes"/>
			<point x="117" y="530" type="line" smooth="yes"/>
			<point x="117" y="559"/>
			<point x="117" y="587"/>
			<point x="112" y="603" type="curve" smooth="yes"/>
			<point x="109" y="614"/>
			<point x="56" y="618"/>
			<point x="44" y="618" type="curve"/>
			<point x="40" y="623"/>
			<point x="39" y="641"/>
			<point x="44" y="646" type="curve"/>
			<point x="84" y="644"/>
			<point x="122" y="642"/>
			<point x="160" y="642" type="curve" smooth="yes"/>
			<point x="198" y="642"/>
			<point x="258" y="643"/>
		</contour>
	</outline>
</glyph>
<glyph name="F" format="2">
  <advance width="522"/>
  <unicode hex="0046"/>
  <outline>
    <contour>
      <point x="160" y="642" type="curve" smooth="yes"/>
      <point x="252" y="642"/>
      <point x="368" y="648"/>
      <point x="474" y="648" type="curve"/>
      <point x="481" y="599"/>
      <point x="493" y="560"/>
      <point x="502" y="516" type="curve"/>
      <point x="499" y="513"/>
      <point x="492" y="511"/>
      <point x="485" y="511" type="curve" smooth="yes"/>
      <point x="478" y="511"/>
      <point x="472" y="513"/>
      <point x="471" y="518" type="curve" smooth="yes"/>
      <point x="450" y="596"/>
      <point x="410" y="609"/>
      <point x="358" y="609" type="curve" smooth="yes"/>
      <point x="274" y="609" type="line" smooth="yes"/>
      <point x="262" y="609"/>
      <point x="209" y="609"/>
      <point x="206" y="599" type="curve" smooth="yes"/>
      <point x="201" y="583"/>
      <point x="202" y="555"/>
      <point x="202" y="529" type="curve" smooth="yes"/>
      <point x="202" y="347" type="line" smooth="yes"/>
      <point x="202" y="342"/>
      <point x="223" y="341"/>
      <point x="244" y="341" type="curve" smooth="yes"/>
      <point x="295" y="341" type="line" smooth="yes"/>
      <point x="389" y="341"/>
      <point x="386" y="347"/>
      <point x="403" y="411" type="curve" smooth="yes"/>
      <point x="404" y="416"/>
      <point x="410" y="418"/>
      <point x="417" y="418" type="curve" smooth="yes"/>
      <point x="424" y="418"/>
      <point x="431" y="416"/>
      <point x="434" y="413" type="curve"/>
      <point x="434" y="229" type="line"/>
      <point x="432" y="227"/>
      <point x="425" y="225"/>
      <point x="418" y="225" type="curve" smooth="yes"/>
      <point x="411" y="225"/>
      <point x="405" y="227"/>
      <point x="403" y="232" type="curve" smooth="yes"/>
      <point x="388" y="288"/>
      <point x="384" y="291"/>
      <point x="375" y="297" type="curve" smooth="yes"/>
      <point x="364" y="304"/>
      <point x="309" y="305"/>
      <point x="272" y="305" type="curve" smooth="yes"/>
      <point x="245" y="305"/>
      <point x="202" y="305"/>
      <point x="202" y="296" type="curve" smooth="yes"/>
      <point x="202" y="113" type="line" smooth="yes"/>
      <point x="202" y="84"/>
      <point x="201" y="57"/>
      <point x="206" y="41" type="curve" smooth="yes"/>
      <point x="209" y="30"/>
      <point x="272" y="25"/>
      <point x="284" y="25" type="curve"/>
      <point x="288" y="20"/>
      <point x="289" y="2"/>
      <point x="284" y="-3" type="curve"/>
      <point x="244" y="-1"/>
      <point x="198" y="2"/>
      <point x="160" y="2" type="curve" smooth="yes"/>
      <point x="114" y="2"/>
      <point x="82" y="-3"/>
      <point x="44" y="-3" type="curve"/>
      <point x="39" y="2"/>
      <point x="40" y="20"/>
      <point x="44" y="25" type="curve"/>
      <point x="56" y="25"/>
      <point x="109" y="30"/>
      <point x="112" y="41" type="curve" smooth="yes"/>
      <point x="117" y="57"/>
      <point x="117" y="84"/>
      <point x="117" y="113" type="curve" smooth="yes"/>
      <point x="117" y="530" type="line" smooth="yes"/>
      <point x="117" y="559"/>
      <point x="117" y="587"/>
      <point x="112" y="603" type="curve" smooth="yes"/>
      <point x="109" y="614"/>
      <point x="56" y="618"/>
      <point x="44" y="618" type="curve"/>
      <point x="40" y="623"/>
      <point x="39" y="641"/>
      <point x="44" y="646" type="curve"/>
      <point x="84" y="644"/>
      <point x="122" y="642"/>
    </contour>
  </outline>
</glyph>
<glyph name="G" format="2">
	<unicode hex="0047"/>
	<advance width="703"/>
	<outline>
		<contour>
			<point x="522" y="171" type="line" smooth="yes"/>
			<point x="522" y="200"/>
			<point x="523" y="227"/>
			<point x="518" y="243" type="curve" smooth="yes"/>
			<point x="515" y="254"/>
			<point x="463" y="259"/>
			<point x="451" y="259" type="curve"/>
			<point x="447" y="264"/>
			<point x="446" y="282"/>
			<point x="451" y="287" type="curve"/>
			<point x="491" y="285"/>
			<point x="527" y="282"/>
			<point x="565" y="282" type="curve" smooth="yes"/>
			<point x="603" y="282"/>
			<point x="635" y="285"/>
			<point x="675" y="287" type="curve"/>
			<point x="680" y="282"/>
			<point x="679" y="264"/>
			<point x="675" y="259" type="curve"/>
			<point x="663" y="259"/>
			<point x="614" y="254"/>
			<point x="611" y="243" type="curve" smooth="yes"/>
			<point x="606" y="227"/>
			<point x="606" y="200"/>
			<point x="606" y="171" type="curve" smooth="yes"/>
			<point x="606" y="171"/>
			<point x="606" y="112"/>
			<point x="606" y="102" type="curve" smooth="yes"/>
			<point x="606" y="81"/>
			<point x="616" y="72"/>
			<point x="616" y="62" type="curve" smooth="yes"/>
			<point x="616" y="56"/>
			<point x="614" y="54"/>
			<point x="597" y="45" type="curve" smooth="yes"/>
			<point x="555" y="23"/>
			<point x="502" y="-6"/>
			<point x="373" y="-6" type="curve" smooth="yes"/>
			<point x="180" y="-6"/>
			<point x="47" y="141"/>
			<point x="47" y="314" type="curve" smooth="yes"/>
			<point x="47" y="497"/>
			<point x="185" y="651"/>
			<point x="377" y="651" type="curve" smooth="yes"/>
			<point x="441" y="651"/>
			<point x="512" y="647"/>
			<point x="584" y="631" type="curve"/>
			<point x="584" y="631"/>
			<point x="606" y="496"/>
			<point x="606" y="486" type="curve"/>
			<point x="607" y="480"/>
			<point x="595" y="474"/>
			<point x="585" y="474" type="curve" smooth="yes"/>
			<point x="579" y="474"/>
			<point x="576" y="475"/>
			<point x="573" y="477" type="curve"/>
			<point x="567" y="507"/>
			<point x="545" y="619"/>
			<point x="382" y="619" type="curve" smooth="yes"/>
			<point x="237" y="619"/>
			<point x="144" y="472"/>
			<point x="144" y="335" type="curve" smooth="yes"/>
			<point x="144" y="183"/>
			<point x="226" y="26"/>
			<point x="397" y="26" type="curve" smooth="yes"/>
			<point x="448" y="26"/>
			<point x="487" y="43"/>
			<point x="516" y="58" type="curve" smooth="yes"/>
			<point x="522" y="61"/>
			<point x="522" y="65"/>
			<point x="522" y="72" type="curve" smooth="yes"/>
		</contour>
	</outline>
</glyph>
<glyph name="H" format="2">
	<unicode hex="0048"/>
	<advance width="708"/>
	<outline>
		<contour>
			<point x="160" y="642" type="curve" smooth="yes"/>
			<point x="198" y="642"/>
			<point x="234" y="644"/>
			<point x="274" y="646" type="curve"/>
			<point x="279" y="641"/>
			<point x="278" y="620"/>
			<point x="274" y="615" type="curve"/>
			<point x="262" y="615"/>
			<point x="209" y="611"/>
			<point x="206" y="600" type="curve" smooth="yes"/>
			<point x="201" y="584"/>
			<point x="202" y="556"/>
			<point x="202" y="527" type="curve" smooth="yes"/>
			<point x="202" y="356" type="line"/>
			<point x="202" y="354"/>
			<point x="204" y="354"/>
			<point x="204" y="354" type="curve"/>
			<point x="252" y="353"/>
			<point x="302" y="351"/>
			<point x="357" y="351" type="curve" smooth="yes"/>
			<point x="403" y="351"/>
			<point x="462" y="353"/>
			<point x="506" y="354" type="curve"/>
			<point x="506" y="354"/>
			<point x="508" y="355"/>
			<point x="508" y="357" type="curve" smooth="yes"/>
			<point x="508" y="527" type="line" smooth="yes"/>
			<point x="508" y="556"/>
			<point x="508" y="584"/>
			<point x="503" y="600" type="curve" smooth="yes"/>
			<point x="500" y="611"/>
			<point x="448" y="615"/>
			<point x="436" y="615" type="curve"/>
			<point x="432" y="620"/>
			<point x="431" y="641"/>
			<point x="436" y="646" type="curve"/>
			<point x="476" y="644"/>
			<point x="513" y="642"/>
			<point x="551" y="642" type="curve" smooth="yes"/>
			<point x="589" y="642"/>
			<point x="625" y="644"/>
			<point x="665" y="646" type="curve"/>
			<point x="670" y="641"/>
			<point x="669" y="620"/>
			<point x="665" y="615" type="curve"/>
			<point x="653" y="615"/>
			<point x="601" y="611"/>
			<point x="598" y="600" type="curve" smooth="yes"/>
			<point x="593" y="584"/>
			<point x="593" y="556"/>
			<point x="593" y="527" type="curve" smooth="yes"/>
			<point x="593" y="116" type="line" smooth="yes"/>
			<point x="593" y="87"/>
			<point x="593" y="60"/>
			<point x="598" y="44" type="curve" smooth="yes"/>
			<point x="601" y="33"/>
			<point x="653" y="28"/>
			<point x="665" y="28" type="curve"/>
			<point x="669" y="23"/>
			<point x="670" y="2"/>
			<point x="665" y="-3" type="curve"/>
			<point x="625" y="-1"/>
			<point x="589" y="2"/>
			<point x="551" y="2" type="curve" smooth="yes"/>
			<point x="513" y="2"/>
			<point x="476" y="-1"/>
			<point x="436" y="-3" type="curve"/>
			<point x="431" y="2"/>
			<point x="432" y="23"/>
			<point x="436" y="28" type="curve"/>
			<point x="448" y="28"/>
			<point x="500" y="33"/>
			<point x="503" y="44" type="curve" smooth="yes"/>
			<point x="508" y="60"/>
			<point x="508" y="87"/>
			<point x="508" y="116" type="curve" smooth="yes"/>
			<point x="508" y="310" type="line"/>
			<point x="508" y="312"/>
			<point x="506" y="313"/>
			<point x="506" y="313" type="curve"/>
			<point x="460" y="314"/>
			<point x="407" y="317"/>
			<point x="357" y="317" type="curve" smooth="yes"/>
			<point x="221" y="317"/>
			<point x="207" y="314"/>
			<point x="203" y="312" type="curve"/>
			<point x="202" y="311"/>
			<point x="202" y="310"/>
			<point x="202" y="310" type="curve"/>
			<point x="202" y="116" type="line" smooth="yes"/>
			<point x="202" y="87"/>
			<point x="201" y="60"/>
			<point x="206" y="44" type="curve" smooth="yes"/>
			<point x="209" y="33"/>
			<point x="262" y="28"/>
			<point x="274" y="28" type="curve"/>
			<point x="278" y="23"/>
			<point x="279" y="2"/>
			<point x="274" y="-3" type="curve"/>
			<point x="234" y="-1"/>
			<point x="198" y="2"/>
			<point x="160" y="2" type="curve" smooth="yes"/>
			<point x="122" y="2"/>
			<point x="84" y="-1"/>
			<point x="44" y="-3" type="curve"/>
			<point x="39" y="2"/>
			<point x="40" y="23"/>
			<point x="44" y="28" type="curve"/>
			<point x="56" y="28"/>
			<point x="109" y="33"/>
			<point x="112" y="44" type="curve" smooth="yes"/>
			<point x="117" y="60"/>
			<point x="117" y="87"/>
			<point x="117" y="116" type="curve" smooth="yes"/>
			<point x="117" y="527" type="line" smooth="yes"/>
			<point x="117" y="556"/>
			<point x="117" y="584"/>
			<point x="112" y="600" type="curve" smooth="yes"/>
			<point x="109" y="611"/>
			<point x="56" y="615"/>
			<point x="44" y="615" type="curve"/>
			<point x="40" y="620"/>
			<point x="39" y="641"/>
			<point x="44" y="646" type="curve"/>
			<point x="84" y="644"/>
			<point x="122" y="642"/>
		</contour>
	</outline>
</glyph>
<glyph name="I" format="2">
	<unicode hex="0049"/>
	<advance width="316"/>
	<outline>
		<contour>
			<point x="160" y="642" type="curve" smooth="yes"/>
			<point x="198" y="642"/>
			<point x="234" y="644"/>
			<point x="274" y="646" type="curve"/>
			<point x="279" y="641"/>
			<point x="278" y="623"/>
			<point x="274" y="618" type="curve"/>
			<point x="262" y="618"/>
			<point x="209" y="614"/>
			<point x="206" y="603" type="curve" smooth="yes"/>
			<point x="201" y="587"/>
			<point x="202" y="559"/>
			<point x="202" y="530" type="curve" smooth="yes"/>
			<point x="202" y="113" type="line" smooth="yes"/>
			<point x="202" y="84"/>
			<point x="201" y="57"/>
			<point x="206" y="41" type="curve" smooth="yes"/>
			<point x="209" y="30"/>
			<point x="262" y="25"/>
			<point x="274" y="25" type="curve"/>
			<point x="278" y="20"/>
			<point x="279" y="2"/>
			<point x="274" y="-3" type="curve"/>
			<point x="234" y="-1"/>
			<point x="198" y="2"/>
			<point x="160" y="2" type="curve" smooth="yes"/>
			<point x="122" y="2"/>
			<point x="84" y="-1"/>
			<point x="44" y="-3" type="curve"/>
			<point x="39" y="2"/>
			<point x="40" y="20"/>
			<point x="44" y="25" type="curve"/>
			<point x="56" y="25"/>
			<point x="109" y="30"/>
			<point x="112" y="41" type="curve" smooth="yes"/>
			<point x="117" y="57"/>
			<point x="117" y="84"/>
			<point x="117" y="113" type="curve" smooth="yes"/>
			<point x="117" y="530" type="line" smooth="yes"/>
			<point x="117" y="559"/>
			<point x="117" y="587"/>
			<point x="112" y="603" type="curve" smooth="yes"/>
			<point x="109" y="614"/>
			<point x="56" y="618"/>
			<point x="44" y="618" type="curve"/>
			<point x="40" y="623"/>
			<point x="39" y="641"/>
			<point x="44" y="646" type="curve"/>
			<point x="84" y="644"/>
			<point x="122" y="642"/>
		</contour>
	</outline>
</glyph>
<glyph name="J" format="2">
  <advance width="305"/>
  <unicode hex="004A"/>
  <outline>
    <contour>
      <point x="154" y="642" type="curve" smooth="yes"/>
      <point x="192" y="642"/>
      <point x="229" y="644"/>
      <point x="269" y="646" type="curve"/>
      <point x="274" y="641"/>
      <point x="273" y="623"/>
      <point x="269" y="618" type="curve"/>
      <point x="257" y="618"/>
      <point x="204" y="614"/>
      <point x="201" y="603" type="curve" smooth="yes"/>
      <point x="196" y="587"/>
      <point x="196" y="559"/>
      <point x="196" y="530" type="curve" smooth="yes"/>
      <point x="196" y="118" type="line" smooth="yes"/>
      <point x="196" y="-126"/>
      <point x="100" y="-222"/>
      <point x="-32" y="-222" type="curve" smooth="yes"/>
      <point x="-47" y="-222"/>
      <point x="-82" y="-213"/>
      <point x="-94" y="-204" type="curve"/>
      <point x="-99" y="-199"/>
      <point x="-102" y="-189"/>
      <point x="-102" y="-182" type="curve" smooth="yes"/>
      <point x="-102" y="-152"/>
      <point x="-86" y="-127"/>
      <point x="-55" y="-127" type="curve" smooth="yes"/>
      <point x="-37" y="-127"/>
      <point x="-21" y="-143"/>
      <point x="-8" y="-155" type="curve" smooth="yes"/>
      <point x="3" y="-165"/>
      <point x="19" y="-176"/>
      <point x="36" y="-176" type="curve" smooth="yes"/>
      <point x="77" y="-176"/>
      <point x="111" y="-123"/>
      <point x="111" y="113" type="curve" smooth="yes"/>
      <point x="111" y="530" type="line" smooth="yes"/>
      <point x="111" y="559"/>
      <point x="111" y="587"/>
      <point x="106" y="603" type="curve" smooth="yes"/>
      <point x="103" y="614"/>
      <point x="51" y="618"/>
      <point x="39" y="618" type="curve"/>
      <point x="35" y="623"/>
      <point x="34" y="641"/>
      <point x="39" y="646" type="curve"/>
      <point x="79" y="644"/>
      <point x="116" y="642"/>
    </contour>
  </outline>
</glyph>
<glyph name="K" format="2">
  <advance width="641"/>
  <unicode hex="004B"/>
  <outline>
    <contour>
      <point x="160" y="642" type="curve" smooth="yes"/>
      <point x="198" y="642"/>
      <point x="234" y="644"/>
      <point x="274" y="646" type="curve"/>
      <point x="279" y="641"/>
      <point x="278" y="620"/>
      <point x="274" y="615" type="curve"/>
      <point x="262" y="615"/>
      <point x="209" y="611"/>
      <point x="206" y="600" type="curve" smooth="yes"/>
      <point x="201" y="584"/>
      <point x="202" y="556"/>
      <point x="202" y="527" type="curve" smooth="yes"/>
      <point x="202" y="333" type="line"/>
      <point x="223" y="346"/>
      <point x="272" y="393"/>
      <point x="312" y="432" type="curve" smooth="yes"/>
      <point x="388" y="507"/>
      <point x="406" y="526"/>
      <point x="436" y="564" type="curve" smooth="yes"/>
      <point x="442" y="572"/>
      <point x="450" y="585"/>
      <point x="450" y="595" type="curve" smooth="yes"/>
      <point x="450" y="619"/>
      <point x="404" y="616"/>
      <point x="395" y="616" type="curve"/>
      <point x="392" y="622"/>
      <point x="392" y="637"/>
      <point x="395" y="646" type="curve"/>
      <point x="431" y="644"/>
      <point x="471" y="641"/>
      <point x="507" y="641" type="curve" smooth="yes"/>
      <point x="550" y="641"/>
      <point x="574" y="644"/>
      <point x="613" y="646" type="curve"/>
      <point x="615" y="640"/>
      <point x="616" y="616"/>
      <point x="611" y="616" type="curve" smooth="yes"/>
      <point x="602" y="615"/>
      <point x="547" y="616"/>
      <point x="514" y="580" type="curve" smooth="yes"/>
      <point x="430" y="488"/>
      <point x="373" y="437"/>
      <point x="288" y="355" type="curve"/>
      <point x="286" y="352"/>
      <point x="286" y="351"/>
      <point x="288" y="348" type="curve"/>
      <point x="382" y="239"/>
      <point x="463" y="141"/>
      <point x="538" y="70" type="curve" smooth="yes"/>
      <point x="562" y="48"/>
      <point x="591" y="29"/>
      <point x="645" y="25" type="curve"/>
      <point x="650" y="20"/>
      <point x="645" y="-1"/>
      <point x="644" y="-3" type="curve"/>
      <point x="579" y="-3"/>
      <point x="525" y="1"/>
      <point x="505" y="8" type="curve" smooth="yes"/>
      <point x="491" y="13"/>
      <point x="466" y="23"/>
      <point x="439" y="50" type="curve" smooth="yes"/>
      <point x="418" y="71"/>
      <point x="329" y="171"/>
      <point x="219" y="297" type="curve" smooth="yes"/>
      <point x="217" y="300"/>
      <point x="214" y="300"/>
      <point x="210" y="300" type="curve" smooth="yes"/>
      <point x="207" y="300"/>
      <point x="204" y="299"/>
      <point x="202" y="298" type="curve"/>
      <point x="202" y="116" type="line" smooth="yes"/>
      <point x="202" y="87"/>
      <point x="201" y="60"/>
      <point x="206" y="44" type="curve" smooth="yes"/>
      <point x="209" y="33"/>
      <point x="262" y="28"/>
      <point x="274" y="28" type="curve"/>
      <point x="278" y="23"/>
      <point x="279" y="2"/>
      <point x="274" y="-3" type="curve"/>
      <point x="234" y="-1"/>
      <point x="198" y="2"/>
      <point x="160" y="2" type="curve" smooth="yes"/>
      <point x="122" y="2"/>
      <point x="84" y="-1"/>
      <point x="44" y="-3" type="curve"/>
      <point x="39" y="2"/>
      <point x="40" y="23"/>
      <point x="44" y="28" type="curve"/>
      <point x="56" y="28"/>
      <point x="109" y="33"/>
      <point x="112" y="44" type="curve" smooth="yes"/>
      <point x="117" y="60"/>
      <point x="117" y="87"/>
      <point x="117" y="116" type="curve" smooth="yes"/>
      <point x="117" y="527" type="line" smooth="yes"/>
      <point x="117" y="556"/>
      <point x="117" y="584"/>
      <point x="112" y="600" type="curve" smooth="yes"/>
      <point x="109" y="611"/>
      <point x="56" y="615"/>
      <point x="44" y="615" type="curve"/>
      <point x="40" y="620"/>
      <point x="39" y="641"/>
      <point x="44" y="646" type="curve"/>
      <point x="84" y="644"/>
      <point x="122" y="642"/>
    </contour>
  </outline>
</glyph>
<glyph name="L" format="2">
	<unicode hex="004C"/>
	<advance width="550"/>
	<outline>
		<contour>
			<point x="202" y="113" type="line" smooth="yes"/>
			<point x="202" y="98"/>
			<point x="201" y="48"/>
			<point x="207" y="43" type="curve" smooth="yes"/>
			<point x="220" y="33"/>
			<point x="236" y="33"/>
			<point x="277" y="33" type="curve" smooth="yes"/>
			<point x="332" y="33" type="line" smooth="yes"/>
			<point x="369" y="33"/>
			<point x="420" y="41"/>
			<point x="447" y="60" type="curve" smooth="yes"/>
			<point x="471" y="77"/>
			<point x="492" y="106"/>
			<point x="508" y="158" type="curve" smooth="yes"/>
			<point x="509" y="162"/>
			<point x="515" y="164"/>
			<point x="522" y="164" type="curve" smooth="yes"/>
			<point x="532" y="164"/>
			<point x="543" y="161"/>
			<point x="546" y="158" type="curve"/>
			<point x="527" y="105"/>
			<point x="501" y="39"/>
			<point x="494" y="-4" type="curve"/>
			<point x="388" y="-4"/>
			<point x="291" y="0"/>
			<point x="161" y="0" type="curve" smooth="yes"/>
			<point x="115" y="0"/>
			<point x="82" y="-3"/>
			<point x="44" y="-3" type="curve"/>
			<point x="39" y="2"/>
			<point x="40" y="20"/>
			<point x="44" y="25" type="curve"/>
			<point x="56" y="25"/>
			<point x="109" y="30"/>
			<point x="112" y="41" type="curve" smooth="yes"/>
			<point x="117" y="57"/>
			<point x="117" y="84"/>
			<point x="117" y="113" type="curve" smooth="yes"/>
			<point x="117" y="530" type="line" smooth="yes"/>
			<point x="117" y="559"/>
			<point x="117" y="587"/>
			<point x="112" y="603" type="curve" smooth="yes"/>
			<point x="109" y="614"/>
			<point x="56" y="618"/>
			<point x="44" y="618" type="curve"/>
			<point x="40" y="623"/>
			<point x="39" y="641"/>
			<point x="44" y="646" type="curve"/>
			<point x="84" y="644"/>
			<point x="122" y="642"/>
			<point x="160" y="642" type="curve" smooth="yes"/>
			<point x="198" y="642"/>
			<point x="234" y="644"/>
			<point x="274" y="646" type="curve"/>
			<point x="279" y="641"/>
			<point x="278" y="623"/>
			<point x="274" y="618" type="curve"/>
			<point x="262" y="618"/>
			<point x="209" y="614"/>
			<point x="206" y="603" type="curve" smooth="yes"/>
			<point x="201" y="587"/>
			<point x="202" y="559"/>
			<point x="202" y="530" type="curve" smooth="yes"/>
		</contour>
	</outline>
</glyph>
<glyph name="M" format="2">
	<unicode hex="004D"/>
	<advance width="885"/>
	<outline>
		<contour>
			<point x="159" y="642" type="curve" smooth="yes"/>
			<point x="192" y="642"/>
			<point x="217" y="644"/>
			<point x="238" y="646" type="curve"/>
			<point x="258" y="584"/>
			<point x="376" y="317"/>
			<point x="445" y="143" type="curve" smooth="yes"/>
			<point x="446" y="141"/>
			<point x="448" y="141"/>
			<point x="449" y="141" type="curve" smooth="yes"/>
			<point x="450" y="141"/>
			<point x="452" y="142"/>
			<point x="453" y="145" type="curve" smooth="yes"/>
			<point x="511" y="293"/>
			<point x="546" y="384"/>
			<point x="603" y="529" type="curve" smooth="yes"/>
			<point x="621" y="574"/>
			<point x="646" y="646"/>
			<point x="646" y="646" type="curve"/>
			<point x="677" y="644"/>
			<point x="704" y="643"/>
			<point x="723" y="643" type="curve" smooth="yes"/>
			<point x="757" y="643"/>
			<point x="808" y="644"/>
			<point x="832" y="646" type="curve"/>
			<point x="833" y="643"/>
			<point x="835" y="618"/>
			<point x="835" y="618" type="curve"/>
			<point x="821" y="618"/>
			<point x="771" y="611"/>
			<point x="766" y="601" type="curve" smooth="yes"/>
			<point x="762" y="592"/>
			<point x="761" y="575"/>
			<point x="761" y="563" type="curve" smooth="yes"/>
			<point x="763" y="496"/>
			<point x="768" y="264"/>
			<point x="771" y="137" type="curve" smooth="yes"/>
			<point x="772" y="99"/>
			<point x="774" y="65"/>
			<point x="783" y="42" type="curve" smooth="yes"/>
			<point x="788" y="28"/>
			<point x="843" y="25"/>
			<point x="851" y="25" type="curve"/>
			<point x="856" y="16"/>
			<point x="854" y="0"/>
			<point x="853" y="-3" type="curve"/>
			<point x="814" y="-1"/>
			<point x="780" y="2"/>
			<point x="737" y="2" type="curve" smooth="yes"/>
			<point x="692" y="2"/>
			<point x="664" y="-1"/>
			<point x="619" y="-3" type="curve"/>
			<point x="617" y="-1"/>
			<point x="615" y="17"/>
			<point x="619" y="25" type="curve"/>
			<point x="631" y="25"/>
			<point x="671" y="29"/>
			<point x="683" y="36" type="curve" smooth="yes"/>
			<point x="690" y="40"/>
			<point x="692" y="63"/>
			<point x="692" y="77" type="curve" smooth="yes"/>
			<point x="692" y="91"/>
			<point x="690" y="119"/>
			<point x="690" y="134" type="curve" smooth="yes"/>
			<point x="686" y="275"/>
			<point x="683" y="394"/>
			<point x="677" y="552" type="curve" smooth="yes"/>
			<point x="677" y="556"/>
			<point x="675" y="571"/>
			<point x="668" y="571" type="curve" smooth="yes"/>
			<point x="666" y="571"/>
			<point x="665" y="569"/>
			<point x="663" y="564" type="curve" smooth="yes"/>
			<point x="583" y="363"/>
			<point x="532" y="236"/>
			<point x="457" y="48" type="curve" smooth="yes"/>
			<point x="453" y="39"/>
			<point x="431" y="0"/>
			<point x="420" y="-2" type="curve" smooth="yes"/>
			<point x="417" y="-3"/>
			<point x="414" y="-1"/>
			<point x="411" y="0" type="curve"/>
			<point x="173" y="570" type="line"/>
			<point x="169" y="357"/>
			<point x="160" y="83"/>
			<point x="160" y="73" type="curve" smooth="yes"/>
			<point x="160" y="64"/>
			<point x="161" y="51"/>
			<point x="164" y="43" type="curve" smooth="yes"/>
			<point x="170" y="28"/>
			<point x="234" y="25"/>
			<point x="242" y="25" type="curve"/>
			<point x="247" y="19"/>
			<point x="244" y="0"/>
			<point x="243" y="-3" type="curve"/>
			<point x="204" y="-1"/>
			<point x="183" y="2"/>
			<point x="140" y="2" type="curve" smooth="yes"/>
			<point x="95" y="2"/>
			<point x="71" y="-1"/>
			<point x="26" y="-3" type="curve"/>
			<point x="24" y="-1"/>
			<point x="22" y="17"/>
			<point x="26" y="25" type="curve"/>
			<point x="38" y="25"/>
			<point x="96" y="30"/>
			<point x="105" y="43" type="curve" smooth="yes"/>
			<point x="114" y="56"/>
			<point x="116" y="71"/>
			<point x="117" y="92" type="curve" smooth="yes"/>
			<point x="126" y="326"/>
			<point x="130" y="541"/>
			<point x="130" y="559" type="curve" smooth="yes"/>
			<point x="130" y="573"/>
			<point x="130" y="587"/>
			<point x="126" y="598" type="curve" smooth="yes"/>
			<point x="122" y="610"/>
			<point x="70" y="618"/>
			<point x="58" y="618" type="curve"/>
			<point x="56" y="618"/>
			<point x="56" y="644"/>
			<point x="58" y="646" type="curve"/>
			<point x="103" y="644"/>
			<point x="114" y="642"/>
		</contour>
	</outline>
</glyph>
<glyph name="N" format="2">
  <advance width="757"/>
  <unicode hex="004E"/>
  <outline>
    <contour>
      <point x="140" y="645" type="curve" smooth="yes"/>
      <point x="169" y="645"/>
      <point x="200" y="645"/>
      <point x="214" y="646" type="curve"/>
      <point x="264" y="568"/>
      <point x="489" y="313"/>
      <point x="597" y="162" type="curve"/>
      <point x="597" y="219" type="line" smooth="yes"/>
      <point x="597" y="532" type="line" smooth="yes"/>
      <point x="597" y="567"/>
      <point x="597" y="584"/>
      <point x="587" y="600" type="curve" smooth="yes"/>
      <point x="581" y="610"/>
      <point x="529" y="619"/>
      <point x="513" y="619" type="curve"/>
      <point x="508" y="626"/>
      <point x="509" y="641"/>
      <point x="511" y="647" type="curve"/>
      <point x="550" y="645"/>
      <point x="580" y="643"/>
      <point x="623" y="643" type="curve" smooth="yes"/>
      <point x="668" y="643"/>
      <point x="683" y="645"/>
      <point x="728" y="647" type="curve"/>
      <point x="731" y="642"/>
      <point x="733" y="630"/>
      <point x="728" y="619" type="curve"/>
      <point x="716" y="619"/>
      <point x="658" y="612"/>
      <point x="651" y="600" type="curve" smooth="yes"/>
      <point x="642" y="585"/>
      <point x="642" y="570"/>
      <point x="642" y="533" type="curve" smooth="yes"/>
      <point x="642" y="136" type="line" smooth="yes"/>
      <point x="642" y="79"/>
      <point x="642" y="52"/>
      <point x="644" y="1" type="curve"/>
      <point x="643" y="-4"/>
      <point x="634" y="-5"/>
      <point x="631" y="-5" type="curve" smooth="yes"/>
      <point x="626" y="-5"/>
      <point x="611" y="1"/>
      <point x="597" y="18" type="curve" smooth="yes"/>
      <point x="171" y="556" type="line"/>
      <point x="171" y="112" type="line" smooth="yes"/>
      <point x="171" y="77"/>
      <point x="171" y="61"/>
      <point x="181" y="45" type="curve" smooth="yes"/>
      <point x="187" y="35"/>
      <point x="238" y="25"/>
      <point x="254" y="25" type="curve"/>
      <point x="259" y="18"/>
      <point x="258" y="3"/>
      <point x="256" y="-3" type="curve"/>
      <point x="217" y="-1"/>
      <point x="188" y="2"/>
      <point x="145" y="2" type="curve" smooth="yes"/>
      <point x="100" y="2"/>
      <point x="85" y="-1"/>
      <point x="40" y="-3" type="curve"/>
      <point x="37" y="2"/>
      <point x="35" y="14"/>
      <point x="40" y="25" type="curve"/>
      <point x="52" y="25"/>
      <point x="109" y="33"/>
      <point x="116" y="45" type="curve" smooth="yes"/>
      <point x="125" y="60"/>
      <point x="126" y="74"/>
      <point x="126" y="111" type="curve" smooth="yes"/>
      <point x="126" y="535" type="line" smooth="yes"/>
      <point x="126" y="572"/>
      <point x="125" y="587"/>
      <point x="116" y="602" type="curve" smooth="yes"/>
      <point x="109" y="614"/>
      <point x="52" y="621"/>
      <point x="40" y="621" type="curve"/>
      <point x="35" y="632"/>
      <point x="37" y="644"/>
      <point x="40" y="649" type="curve"/>
      <point x="85" y="647"/>
      <point x="108" y="645"/>
    </contour>
  </outline>
</glyph>
<glyph name="O" format="2">
  <advance width="730"/>
  <unicode hex="004F"/>
  <outline>
    <contour>
      <point x="350" y="618" type="curve" smooth="yes"/>
      <point x="204" y="618"/>
      <point x="145" y="473"/>
      <point x="145" y="342" type="curve" smooth="yes"/>
      <point x="145" y="191"/>
      <point x="229" y="23"/>
      <point x="380" y="23" type="curve" smooth="yes"/>
      <point x="526" y="23"/>
      <point x="586" y="170"/>
      <point x="586" y="302" type="curve" smooth="yes"/>
      <point x="586" y="453"/>
      <point x="501" y="618"/>
    </contour>
    <contour>
      <point x="364" y="651" type="curve" smooth="yes"/>
      <point x="536" y="651"/>
      <point x="683" y="514"/>
      <point x="683" y="320" type="curve" smooth="yes"/>
      <point x="683" y="137"/>
      <point x="536" y="-10"/>
      <point x="364" y="-10" type="curve" smooth="yes"/>
      <point x="192" y="-10"/>
      <point x="48" y="127"/>
      <point x="48" y="320" type="curve" smooth="yes"/>
      <point x="48" y="503"/>
      <point x="192" y="651"/>
    </contour>
  </outline>
</glyph>
<glyph name="P" format="2">
	<unicode hex="0050"/>
	<advance width="535"/>
	<outline>
		<contour>
			<point x="506" y="468" type="curve" smooth="yes"/>
			<point x="506" y="349"/>
			<point x="419" y="271"/>
			<point x="291" y="271" type="curve" smooth="yes"/>
			<point x="280" y="271"/>
			<point x="259" y="274"/>
			<point x="249" y="279" type="curve" smooth="yes"/>
			<point x="246" y="281"/>
			<point x="235" y="289"/>
			<point x="235" y="301" type="curve" smooth="yes"/>
			<point x="235" y="303"/>
			<point x="236" y="307"/>
			<point x="240" y="306" type="curve"/>
			<point x="251" y="303"/>
			<point x="262" y="299"/>
			<point x="277" y="299" type="curve" smooth="yes"/>
			<point x="355" y="299"/>
			<point x="416" y="353"/>
			<point x="416" y="451" type="curve" smooth="yes"/>
			<point x="416" y="548"/>
			<point x="363" y="612"/>
			<point x="255" y="612" type="curve" smooth="yes"/>
			<point x="243" y="612"/>
			<point x="210" y="612"/>
			<point x="206" y="603" type="curve" smooth="yes"/>
			<point x="201" y="591"/>
			<point x="201" y="558"/>
			<point x="201" y="529" type="curve" smooth="yes"/>
			<point x="201" y="113" type="line" smooth="yes"/>
			<point x="201" y="84"/>
			<point x="201" y="57"/>
			<point x="206" y="41" type="curve" smooth="yes"/>
			<point x="209" y="30"/>
			<point x="261" y="25"/>
			<point x="273" y="25" type="curve"/>
			<point x="277" y="20"/>
			<point x="278" y="2"/>
			<point x="273" y="-3" type="curve"/>
			<point x="233" y="-1"/>
			<point x="197" y="2"/>
			<point x="159" y="2" type="curve" smooth="yes"/>
			<point x="121" y="2"/>
			<point x="84" y="-1"/>
			<point x="44" y="-3" type="curve"/>
			<point x="39" y="2"/>
			<point x="40" y="20"/>
			<point x="44" y="25" type="curve"/>
			<point x="56" y="25"/>
			<point x="108" y="30"/>
			<point x="111" y="41" type="curve" smooth="yes"/>
			<point x="116" y="57"/>
			<point x="116" y="84"/>
			<point x="116" y="113" type="curve" smooth="yes"/>
			<point x="116" y="530" type="line" smooth="yes"/>
			<point x="116" y="559"/>
			<point x="116" y="587"/>
			<point x="111" y="603" type="curve" smooth="yes"/>
			<point x="108" y="614"/>
			<point x="56" y="618"/>
			<point x="44" y="618" type="curve"/>
			<point x="40" y="623"/>
			<point x="39" y="641"/>
			<point x="44" y="646" type="curve"/>
			<point x="84" y="644"/>
			<point x="121" y="642"/>
			<point x="159" y="642" type="curve" smooth="yes"/>
			<point x="197" y="642"/>
			<point x="240" y="644"/>
			<point x="298" y="644" type="curve" smooth="yes"/>
			<point x="402" y="644"/>
			<point x="506" y="581"/>
		</contour>
	</outline>
</glyph>
<glyph name="Q" format="2">
	<unicode hex="0051"/>
	<advance width="729"/>
	<outline>
		<contour>
			<point x="350" y="618" type="curve" smooth="yes"/>
			<point x="204" y="618"/>
			<point x="145" y="473"/>
			<point x="145" y="342" type="curve" smooth="yes"/>
			<point x="145" y="191"/>
			<point x="229" y="23"/>
			<point x="380" y="23" type="curve" smooth="yes"/>
			<point x="526" y="23"/>
			<point x="586" y="170"/>
			<point x="586" y="302" type="curve" smooth="yes"/>
			<point x="586" y="453"/>
			<point x="501" y="618"/>
		</contour>
		<contour>
			<point x="364" y="651" type="curve" smooth="yes"/>
			<point x="536" y="651"/>
			<point x="683" y="514"/>
			<point x="683" y="320" type="curve" smooth="yes"/>
			<point x="683" y="171"/>
			<point x="585" y="45"/>
			<point x="455" y="4" type="curve"/>
			<point x="549" y="-41"/>
			<point x="568" y="-79"/>
			<point x="669" y="-79" type="curve" smooth="yes"/>
			<point x="708" y="-79"/>
			<point x="731" y="-75"/>
			<point x="738" y="-73" type="curve"/>
			<point x="744" y="-73"/>
			<point x="753" y="-76"/>
			<point x="756" y="-80" type="curve" smooth="yes"/>
			<point x="757" y="-81"/>
			<point x="757" y="-82"/>
			<point x="757" y="-83" type="curve"/>
			<point x="703" y="-111"/>
			<point x="655" y="-133"/>
			<point x="595" y="-133" type="curve" smooth="yes"/>
			<point x="491" y="-133"/>
			<point x="413" y="-32"/>
			<point x="286" y="0" type="curve" smooth="yes"/>
			<point x="150" y="34"/>
			<point x="48" y="157"/>
			<point x="48" y="320" type="curve" smooth="yes"/>
			<point x="48" y="503"/>
			<point x="192" y="651"/>
		</contour>
	</outline>
</glyph>
<glyph name="R" format="2">
	<unicode hex="0052"/>
	<advance width="606"/>
	<outline>
		<contour>
			<point x="298" y="644" type="curve" smooth="yes"/>
			<point x="387" y="644"/>
			<point x="496" y="586"/>
			<point x="496" y="475" type="curve" smooth="yes"/>
			<point x="496" y="405"/>
			<point x="428" y="335"/>
			<point x="363" y="313" type="curve"/>
			<point x="415" y="227"/>
			<point x="457" y="169"/>
			<point x="521" y="84" type="curve" smooth="yes"/>
			<point x="549" y="47"/>
			<point x="577" y="29"/>
			<point x="631" y="25" type="curve"/>
			<point x="636" y="20"/>
			<point x="631" y="-1"/>
			<point x="630" y="-3" type="curve"/>
			<point x="565" y="-3"/>
			<point x="521" y="2"/>
			<point x="501" y="9" type="curve" smooth="yes"/>
			<point x="487" y="14"/>
			<point x="461" y="22"/>
			<point x="438" y="52" type="curve" smooth="yes"/>
			<point x="423" y="72"/>
			<point x="345" y="187"/>
			<point x="283" y="283" type="curve" smooth="yes"/>
			<point x="277" y="292"/>
			<point x="267" y="295"/>
			<point x="253" y="295" type="curve" smooth="yes"/>
			<point x="253" y="295"/>
			<point x="211" y="295"/>
			<point x="202" y="295" type="curve"/>
			<point x="202" y="113" type="line"/>
			<point x="202" y="84"/>
			<point x="201" y="57"/>
			<point x="206" y="41" type="curve" smooth="yes"/>
			<point x="209" y="30"/>
			<point x="262" y="25"/>
			<point x="274" y="25" type="curve"/>
			<point x="278" y="20"/>
			<point x="279" y="2"/>
			<point x="274" y="-3" type="curve"/>
			<point x="234" y="-1"/>
			<point x="198" y="2"/>
			<point x="160" y="2" type="curve" smooth="yes"/>
			<point x="122" y="2"/>
			<point x="84" y="-1"/>
			<point x="44" y="-3" type="curve"/>
			<point x="39" y="2"/>
			<point x="40" y="20"/>
			<point x="44" y="25" type="curve"/>
			<point x="56" y="25"/>
			<point x="109" y="30"/>
			<point x="112" y="41" type="curve" smooth="yes"/>
			<point x="117" y="57"/>
			<point x="117" y="84"/>
			<point x="117" y="113" type="curve" smooth="yes"/>
			<point x="116" y="530" type="line" smooth="yes"/>
			<point x="116" y="559"/>
			<point x="116" y="587"/>
			<point x="111" y="603" type="curve" smooth="yes"/>
			<point x="108" y="614"/>
			<point x="56" y="618"/>
			<point x="44" y="618" type="curve"/>
			<point x="40" y="623"/>
			<point x="39" y="641"/>
			<point x="44" y="646" type="curve"/>
			<point x="84" y="644"/>
			<point x="121" y="642"/>
			<point x="159" y="642" type="curve" smooth="yes"/>
			<point x="197" y="642"/>
			<point x="240" y="644"/>
		</contour>
		<contour>
			<point x="405" y="466" type="curve" smooth="yes"/>
			<point x="405" y="551"/>
			<point x="363" y="612"/>
			<point x="255" y="612" type="curve" smooth="yes"/>
			<point x="243" y="612"/>
			<point x="210" y="612"/>
			<point x="206" y="603" type="curve" smooth="yes"/>
			<point x="201" y="591"/>
			<point x="201" y="558"/>
			<point x="201" y="529" type="curve" smooth="yes"/>
			<point x="202" y="325" type="line"/>
			<point x="202" y="325"/>
			<point x="235" y="325"/>
			<point x="254" y="325" type="curve" smooth="yes"/>
			<point x="330" y="325"/>
			<point x="405" y="380"/>
		</contour>
	</outline>
</glyph>
<glyph name="S" format="2">
  <advance width="490"/>
  <unicode hex="0053"/>
  <outline>
    <contour>
      <point x="255" y="650" type="curve" smooth="yes"/>
      <point x="316" y="650"/>
      <point x="338" y="638"/>
      <point x="402" y="623" type="curve"/>
      <point x="410" y="572"/>
      <point x="414" y="510"/>
      <point x="416" y="484" type="curve" smooth="yes"/>
      <point x="417" y="477"/>
      <point x="403" y="474"/>
      <point x="396" y="474" type="curve" smooth="yes"/>
      <point x="393" y="474"/>
      <point x="388" y="475"/>
      <point x="385" y="478" type="curve"/>
      <point x="379" y="527"/>
      <point x="331" y="617"/>
      <point x="248" y="617" type="curve" smooth="yes"/>
      <point x="168" y="617"/>
      <point x="142" y="556"/>
      <point x="142" y="509" type="curve" smooth="yes"/>
      <point x="142" y="431"/>
      <point x="214" y="398"/>
      <point x="278" y="357" type="curve" smooth="yes"/>
      <point x="342" y="316"/>
      <point x="448" y="266"/>
      <point x="448" y="169" type="curve" smooth="yes"/>
      <point x="448" y="62"/>
      <point x="348" y="-10"/>
      <point x="244" y="-10" type="curve" smooth="yes"/>
      <point x="178" y="-10"/>
      <point x="116" y="9"/>
      <point x="68" y="19" type="curve"/>
      <point x="56" y="77"/>
      <point x="48" y="158"/>
      <point x="48" y="170" type="curve"/>
      <point x="54" y="176"/>
      <point x="64" y="182"/>
      <point x="73" y="182" type="curve" smooth="yes"/>
      <point x="80" y="182"/>
      <point x="83" y="178"/>
      <point x="84" y="173" type="curve" smooth="yes"/>
      <point x="92" y="136"/>
      <point x="129" y="23"/>
      <point x="246" y="23" type="curve" smooth="yes"/>
      <point x="309" y="23"/>
      <point x="363" y="67"/>
      <point x="363" y="143" type="curve" smooth="yes"/>
      <point x="363" y="224"/>
      <point x="300" y="244"/>
      <point x="233" y="283" type="curve" smooth="yes"/>
      <point x="158" y="327"/>
      <point x="63" y="380"/>
      <point x="63" y="479" type="curve" smooth="yes"/>
      <point x="63" y="583"/>
      <point x="157" y="650"/>
    </contour>
  </outline>
</glyph>
<glyph name="T" format="2">
  <advance width="611"/>
  <unicode hex="0054"/>
  <outline>
    <contour>
      <point x="496" y="646" type="curve" smooth="yes"/>
      <point x="512" y="646"/>
      <point x="543" y="654"/>
      <point x="555" y="660" type="curve" smooth="yes"/>
      <point x="565" y="665"/>
      <point x="567" y="665"/>
      <point x="573" y="662" type="curve"/>
      <point x="580" y="602"/>
      <point x="588" y="546"/>
      <point x="599" y="494" type="curve"/>
      <point x="596" y="491"/>
      <point x="589" y="486"/>
      <point x="580" y="487" type="curve" smooth="yes"/>
      <point x="575" y="487"/>
      <point x="568" y="489"/>
      <point x="566" y="492" type="curve"/>
      <point x="552" y="560"/>
      <point x="522" y="611"/>
      <point x="473" y="611" type="curve" smooth="yes"/>
      <point x="349" y="611" type="line"/>
      <point x="349" y="113" type="line" smooth="yes"/>
      <point x="349" y="84"/>
      <point x="349" y="57"/>
      <point x="354" y="41" type="curve" smooth="yes"/>
      <point x="357" y="30"/>
      <point x="409" y="25"/>
      <point x="421" y="25" type="curve"/>
      <point x="425" y="20"/>
      <point x="426" y="2"/>
      <point x="421" y="-3" type="curve"/>
      <point x="381" y="-1"/>
      <point x="345" y="2"/>
      <point x="307" y="2" type="curve" smooth="yes"/>
      <point x="269" y="2"/>
      <point x="231" y="-1"/>
      <point x="191" y="-3" type="curve"/>
      <point x="186" y="2"/>
      <point x="187" y="20"/>
      <point x="191" y="25" type="curve"/>
      <point x="203" y="25"/>
      <point x="256" y="30"/>
      <point x="259" y="41" type="curve" smooth="yes"/>
      <point x="264" y="57"/>
      <point x="264" y="84"/>
      <point x="264" y="113" type="curve" smooth="yes"/>
      <point x="264" y="611" type="line"/>
      <point x="138" y="611" type="line" smooth="yes"/>
      <point x="89" y="611"/>
      <point x="58" y="560"/>
      <point x="44" y="492" type="curve"/>
      <point x="42" y="489"/>
      <point x="35" y="487"/>
      <point x="30" y="487" type="curve" smooth="yes"/>
      <point x="21" y="486"/>
      <point x="15" y="491"/>
      <point x="12" y="494" type="curve"/>
      <point x="23" y="546"/>
      <point x="30" y="602"/>
      <point x="37" y="662" type="curve"/>
      <point x="43" y="665"/>
      <point x="54" y="662"/>
      <point x="60" y="659" type="curve" smooth="yes"/>
      <point x="72" y="653"/>
      <point x="98" y="646"/>
      <point x="114" y="646" type="curve" smooth="yes"/>
      <point x="199" y="646"/>
      <point x="405" y="646"/>
    </contour>
  </outline>
</glyph>
<glyph name="U" format="2">
	<unicode hex="0055"/>
	<advance width="706"/>
	<outline>
		<contour>
			<point x="144" y="642" type="curve" smooth="yes"/>
			<point x="182" y="642"/>
			<point x="218" y="644"/>
			<point x="258" y="646" type="curve"/>
			<point x="263" y="641"/>
			<point x="262" y="623"/>
			<point x="258" y="618" type="curve"/>
			<point x="246" y="618"/>
			<point x="194" y="614"/>
			<point x="191" y="603" type="curve" smooth="yes"/>
			<point x="186" y="587"/>
			<point x="186" y="559"/>
			<point x="186" y="530" type="curve" smooth="yes"/>
			<point x="186" y="289" type="line" smooth="yes"/>
			<point x="186" y="208"/>
			<point x="203" y="148"/>
			<point x="234" y="109" type="curve" smooth="yes"/>
			<point x="265" y="71"/>
			<point x="310" y="53"/>
			<point x="368" y="53" type="curve" smooth="yes"/>
			<point x="469" y="53"/>
			<point x="554" y="100"/>
			<point x="557" y="268" type="curve" smooth="yes"/>
			<point x="557" y="532" type="line" smooth="yes"/>
			<point x="557" y="567"/>
			<point x="557" y="584"/>
			<point x="547" y="600" type="curve" smooth="yes"/>
			<point x="541" y="610"/>
			<point x="493" y="619"/>
			<point x="477" y="619" type="curve"/>
			<point x="472" y="626"/>
			<point x="473" y="641"/>
			<point x="475" y="647" type="curve"/>
			<point x="514" y="645"/>
			<point x="540" y="643"/>
			<point x="583" y="643" type="curve" smooth="yes"/>
			<point x="628" y="643"/>
			<point x="643" y="645"/>
			<point x="688" y="647" type="curve"/>
			<point x="691" y="642"/>
			<point x="693" y="630"/>
			<point x="688" y="619" type="curve"/>
			<point x="676" y="619"/>
			<point x="619" y="612"/>
			<point x="612" y="600" type="curve" smooth="yes"/>
			<point x="603" y="585"/>
			<point x="602" y="570"/>
			<point x="602" y="533" type="curve" smooth="yes"/>
			<point x="602" y="270" type="line" smooth="yes"/>
			<point x="602" y="75"/>
			<point x="499" y="-4"/>
			<point x="347" y="-4" type="curve" smooth="yes"/>
			<point x="277" y="-4"/>
			<point x="216" y="20"/>
			<point x="173" y="61" type="curve" smooth="yes"/>
			<point x="128" y="104"/>
			<point x="101" y="167"/>
			<point x="101" y="245" type="curve" smooth="yes"/>
			<point x="101" y="530" type="line" smooth="yes"/>
			<point x="101" y="559"/>
			<point x="101" y="587"/>
			<point x="96" y="603" type="curve" smooth="yes"/>
			<point x="93" y="614"/>
			<point x="41" y="618"/>
			<point x="29" y="618" type="curve"/>
			<point x="25" y="623"/>
			<point x="24" y="641"/>
			<point x="29" y="646" type="curve"/>
			<point x="69" y="644"/>
			<point x="106" y="642"/>
		</contour>
	</outline>
</glyph>
<glyph name="V" format="2">
  <advance width="623"/>
  <unicode hex="0056"/>
  <outline>
    <contour>
      <point x="107" y="642" type="curve" smooth="yes"/>
      <point x="150" y="642"/>
      <point x="189" y="644"/>
      <point x="228" y="646" type="curve"/>
      <point x="230" y="640"/>
      <point x="230" y="619"/>
      <point x="226" y="618" type="curve"/>
      <point x="218" y="618"/>
      <point x="167" y="613"/>
      <point x="167" y="586" type="curve" smooth="yes"/>
      <point x="167" y="577"/>
      <point x="173" y="553"/>
      <point x="185" y="520" type="curve" smooth="yes"/>
      <point x="217" y="432"/>
      <point x="327" y="134"/>
      <point x="330" y="126" type="curve"/>
      <point x="336" y="139"/>
      <point x="427" y="361"/>
      <point x="486" y="511" type="curve" smooth="yes"/>
      <point x="495" y="533"/>
      <point x="503" y="561"/>
      <point x="503" y="579" type="curve" smooth="yes"/>
      <point x="503" y="610"/>
      <point x="451" y="617"/>
      <point x="439" y="617" type="curve"/>
      <point x="434" y="619"/>
      <point x="434" y="641"/>
      <point x="439" y="646" type="curve"/>
      <point x="475" y="644"/>
      <point x="505" y="642"/>
      <point x="541" y="642" type="curve" smooth="yes"/>
      <point x="586" y="642"/>
      <point x="597" y="644"/>
      <point x="636" y="646" type="curve"/>
      <point x="639" y="641"/>
      <point x="637" y="618"/>
      <point x="634" y="618" type="curve"/>
      <point x="626" y="618"/>
      <point x="589" y="613"/>
      <point x="572" y="593" type="curve" smooth="yes"/>
      <point x="560" y="579"/>
      <point x="538" y="531"/>
      <point x="523" y="494" type="curve" smooth="yes"/>
      <point x="452" y="314"/>
      <point x="409" y="213"/>
      <point x="333" y="31" type="curve" smooth="yes"/>
      <point x="322" y="5"/>
      <point x="309" y="-2"/>
      <point x="296" y="-2" type="curve" smooth="yes"/>
      <point x="292" y="-2"/>
      <point x="289" y="10"/>
      <point x="287" y="14" type="curve" smooth="yes"/>
      <point x="221" y="188"/>
      <point x="174" y="314"/>
      <point x="101" y="502" type="curve" smooth="yes"/>
      <point x="86" y="540"/>
      <point x="73" y="571"/>
      <point x="56" y="596" type="curve" smooth="yes"/>
      <point x="45" y="612"/>
      <point x="6" y="618"/>
      <point x="-6" y="618" type="curve"/>
      <point x="-8" y="618"/>
      <point x="-8" y="644"/>
      <point x="-6" y="646" type="curve"/>
      <point x="39" y="644"/>
      <point x="62" y="642"/>
    </contour>
  </outline>
</glyph>
<glyph name="W" format="2">
	<unicode hex="0057"/>
	<advance width="878"/>
	<outline>
		<contour>
			<point x="115" y="642" type="curve" smooth="yes"/>
			<point x="158" y="642"/>
			<point x="181" y="644"/>
			<point x="220" y="646" type="curve"/>
			<point x="222" y="640"/>
			<point x="222" y="619"/>
			<point x="218" y="618" type="curve"/>
			<point x="210" y="618"/>
			<point x="160" y="613"/>
			<point x="160" y="586" type="curve"/>
			<point x="160" y="580"/>
			<point x="166" y="556"/>
			<point x="175" y="522" type="curve" smooth="yes"/>
			<point x="197" y="441"/>
			<point x="247" y="283"/>
			<point x="288" y="145" type="curve"/>
			<point x="334" y="296"/>
			<point x="407" y="518"/>
			<point x="436" y="614" type="curve" smooth="yes"/>
			<point x="442" y="633"/>
			<point x="460" y="646"/>
			<point x="471" y="646" type="curve" smooth="yes"/>
			<point x="475" y="646"/>
			<point x="477" y="642"/>
			<point x="482" y="631" type="curve"/>
			<point x="489" y="610"/>
			<point x="573" y="341"/>
			<point x="638" y="147" type="curve"/>
			<point x="680" y="296"/>
			<point x="704" y="374"/>
			<point x="740" y="512" type="curve" smooth="yes"/>
			<point x="746" y="535"/>
			<point x="751" y="562"/>
			<point x="751" y="580" type="curve" smooth="yes"/>
			<point x="751" y="611"/>
			<point x="697" y="618"/>
			<point x="685" y="618" type="curve"/>
			<point x="680" y="620"/>
			<point x="680" y="641"/>
			<point x="685" y="646" type="curve"/>
			<point x="721" y="644"/>
			<point x="755" y="642"/>
			<point x="791" y="642" type="curve" smooth="yes"/>
			<point x="836" y="642"/>
			<point x="844" y="644"/>
			<point x="883" y="646" type="curve"/>
			<point x="886" y="641"/>
			<point x="884" y="618"/>
			<point x="881" y="618" type="curve"/>
			<point x="873" y="618"/>
			<point x="839" y="610"/>
			<point x="819" y="593" type="curve" smooth="yes"/>
			<point x="805" y="581"/>
			<point x="796" y="559"/>
			<point x="784" y="519" type="curve" smooth="yes"/>
			<point x="730" y="334"/>
			<point x="696" y="206"/>
			<point x="644" y="31" type="curve" smooth="yes"/>
			<point x="639" y="13"/>
			<point x="620" y="-2"/>
			<point x="607" y="-2" type="curve" smooth="yes"/>
			<point x="603" y="-2"/>
			<point x="598" y="10"/>
			<point x="597" y="14" type="curve"/>
			<point x="549" y="155"/>
			<point x="438" y="497"/>
			<point x="438" y="496" type="curve"/>
			<point x="383" y="316"/>
			<point x="343" y="204"/>
			<point x="291" y="31" type="curve" smooth="yes"/>
			<point x="286" y="13"/>
			<point x="266" y="-2"/>
			<point x="253" y="-2" type="curve" smooth="yes"/>
			<point x="249" y="-2"/>
			<point x="245" y="10"/>
			<point x="244" y="14" type="curve" smooth="yes"/>
			<point x="187" y="195"/>
			<point x="147" y="328"/>
			<point x="87" y="520" type="curve" smooth="yes"/>
			<point x="75" y="559"/>
			<point x="71" y="581"/>
			<point x="52" y="599" type="curve" smooth="yes"/>
			<point x="38" y="612"/>
			<point x="8" y="618"/>
			<point x="-4" y="618" type="curve"/>
			<point x="-6" y="618"/>
			<point x="-6" y="644"/>
			<point x="-4" y="646" type="curve"/>
			<point x="41" y="644"/>
			<point x="70" y="642"/>
		</contour>
	</outline>
</glyph>
<glyph name="X" format="2">
  <advance width="652"/>
  <unicode hex="0058"/>
  <outline>
    <contour>
      <point x="156" y="642" type="curve" smooth="yes"/>
      <point x="204" y="642"/>
      <point x="242" y="644"/>
      <point x="281" y="646" type="curve"/>
      <point x="283" y="640"/>
      <point x="284" y="618"/>
      <point x="279" y="618" type="curve" smooth="yes"/>
      <point x="265" y="618"/>
      <point x="220" y="612"/>
      <point x="220" y="587" type="curve" smooth="yes"/>
      <point x="220" y="579"/>
      <point x="224" y="570"/>
      <point x="232" y="558" type="curve" smooth="yes"/>
      <point x="345" y="384" type="line"/>
      <point x="404" y="462"/>
      <point x="463" y="537"/>
      <point x="487" y="576" type="curve" smooth="yes"/>
      <point x="491" y="582"/>
      <point x="491" y="590"/>
      <point x="491" y="592" type="curve" smooth="yes"/>
      <point x="491" y="601"/>
      <point x="481" y="617"/>
      <point x="426" y="617" type="curve"/>
      <point x="422" y="618"/>
      <point x="421" y="639"/>
      <point x="424" y="646" type="curve"/>
      <point x="463" y="643"/>
      <point x="489" y="641"/>
      <point x="525" y="641" type="curve" smooth="yes"/>
      <point x="576" y="641"/>
      <point x="609" y="644"/>
      <point x="632" y="646" type="curve"/>
      <point x="635" y="641"/>
      <point x="636" y="623"/>
      <point x="630" y="617" type="curve"/>
      <point x="622" y="617"/>
      <point x="572" y="612"/>
      <point x="543" y="578" type="curve" smooth="yes"/>
      <point x="468" y="488"/>
      <point x="434" y="446"/>
      <point x="364" y="352" type="curve"/>
      <point x="556" y="64" type="line" smooth="yes"/>
      <point x="574" y="36"/>
      <point x="620" y="25"/>
      <point x="652" y="25" type="curve"/>
      <point x="656" y="20"/>
      <point x="654" y="-1"/>
      <point x="653" y="-3" type="curve"/>
      <point x="614" y="-1"/>
      <point x="592" y="2"/>
      <point x="552" y="2" type="curve" smooth="yes"/>
      <point x="497" y="2"/>
      <point x="464" y="-1"/>
      <point x="409" y="-3" type="curve"/>
      <point x="404" y="2"/>
      <point x="404" y="25"/>
      <point x="409" y="25" type="curve" smooth="yes"/>
      <point x="420" y="25"/>
      <point x="466" y="34"/>
      <point x="466" y="53" type="curve" smooth="yes"/>
      <point x="466" y="56"/>
      <point x="463" y="61"/>
      <point x="461" y="64" type="curve" smooth="yes"/>
      <point x="312" y="294" type="line"/>
      <point x="253" y="216"/>
      <point x="166" y="91"/>
      <point x="151" y="64" type="curve" smooth="yes"/>
      <point x="150" y="61"/>
      <point x="146" y="55"/>
      <point x="146" y="49" type="curve" smooth="yes"/>
      <point x="146" y="37"/>
      <point x="166" y="25"/>
      <point x="221" y="25" type="curve"/>
      <point x="225" y="19"/>
      <point x="225" y="0"/>
      <point x="223" y="-3" type="curve"/>
      <point x="187" y="-1"/>
      <point x="149" y="2"/>
      <point x="113" y="2" type="curve" smooth="yes"/>
      <point x="62" y="2"/>
      <point x="31" y="-1"/>
      <point x="-8" y="-3" type="curve"/>
      <point x="-11" y="3"/>
      <point x="-8" y="22"/>
      <point x="-6" y="25" type="curve"/>
      <point x="2" y="25"/>
      <point x="72" y="33"/>
      <point x="99" y="68" type="curve" smooth="yes"/>
      <point x="173" y="163"/>
      <point x="220" y="230"/>
      <point x="290" y="324" type="curve"/>
      <point x="252" y="383"/>
      <point x="153" y="535"/>
      <point x="153" y="535" type="curve" smooth="yes"/>
      <point x="131" y="570"/>
      <point x="115" y="587"/>
      <point x="88" y="603" type="curve" smooth="yes"/>
      <point x="71" y="613"/>
      <point x="45" y="618"/>
      <point x="33" y="618" type="curve" smooth="yes"/>
      <point x="28" y="618"/>
      <point x="28" y="641"/>
      <point x="33" y="646" type="curve"/>
      <point x="81" y="644"/>
      <point x="108" y="642"/>
    </contour>
  </outline>
</glyph>
<glyph name="Y" format="2">
  <advance width="583"/>
  <unicode hex="0059"/>
  <outline>
    <contour>
      <point x="255" y="113" type="curve" smooth="yes"/>
      <point x="255" y="261" type="line" smooth="yes"/>
      <point x="255" y="268"/>
      <point x="253" y="278"/>
      <point x="248" y="288" type="curve" smooth="yes"/>
      <point x="191" y="391"/>
      <point x="167" y="431"/>
      <point x="109" y="535" type="curve" smooth="yes"/>
      <point x="88" y="571"/>
      <point x="72" y="587"/>
      <point x="45" y="603" type="curve" smooth="yes"/>
      <point x="28" y="613"/>
      <point x="2" y="618"/>
      <point x="-10" y="618" type="curve" smooth="yes"/>
      <point x="-15" y="618"/>
      <point x="-15" y="641"/>
      <point x="-10" y="646" type="curve"/>
      <point x="38" y="644"/>
      <point x="64" y="642"/>
      <point x="112" y="642" type="curve" smooth="yes"/>
      <point x="160" y="642"/>
      <point x="198" y="644"/>
      <point x="237" y="646" type="curve"/>
      <point x="239" y="640"/>
      <point x="240" y="618"/>
      <point x="235" y="618" type="curve" smooth="yes"/>
      <point x="221" y="618"/>
      <point x="177" y="612"/>
      <point x="177" y="587" type="curve" smooth="yes"/>
      <point x="177" y="579"/>
      <point x="180" y="571"/>
      <point x="188" y="558" type="curve" smooth="yes"/>
      <point x="324" y="323" type="line"/>
      <point x="372" y="409"/>
      <point x="436" y="541"/>
      <point x="451" y="576" type="curve" smooth="yes"/>
      <point x="452" y="579"/>
      <point x="454" y="585"/>
      <point x="454" y="591" type="curve" smooth="yes"/>
      <point x="454" y="601"/>
      <point x="441" y="617"/>
      <point x="386" y="617" type="curve"/>
      <point x="383" y="617"/>
      <point x="382" y="643"/>
      <point x="384" y="646" type="curve"/>
      <point x="420" y="644"/>
      <point x="445" y="641"/>
      <point x="481" y="641" type="curve" smooth="yes"/>
      <point x="532" y="641"/>
      <point x="550" y="644"/>
      <point x="589" y="646" type="curve"/>
      <point x="591" y="640"/>
      <point x="590" y="617"/>
      <point x="587" y="617" type="curve"/>
      <point x="579" y="617"/>
      <point x="522" y="617"/>
      <point x="500" y="578" type="curve" smooth="yes"/>
      <point x="463" y="513"/>
      <point x="387" y="372"/>
      <point x="345" y="294" type="curve" smooth="yes"/>
      <point x="339" y="283"/>
      <point x="341" y="273"/>
      <point x="341" y="264" type="curve" smooth="yes"/>
      <point x="341" y="205"/>
      <point x="340" y="113"/>
      <point x="340" y="113" type="curve" smooth="yes"/>
      <point x="340" y="84"/>
      <point x="339" y="57"/>
      <point x="344" y="41" type="curve" smooth="yes"/>
      <point x="347" y="30"/>
      <point x="400" y="25"/>
      <point x="412" y="25" type="curve"/>
      <point x="416" y="20"/>
      <point x="417" y="2"/>
      <point x="412" y="-3" type="curve"/>
      <point x="372" y="-1"/>
      <point x="336" y="2"/>
      <point x="298" y="2" type="curve" smooth="yes"/>
      <point x="260" y="2"/>
      <point x="222" y="-1"/>
      <point x="182" y="-3" type="curve"/>
      <point x="177" y="2"/>
      <point x="178" y="20"/>
      <point x="182" y="25" type="curve"/>
      <point x="194" y="25"/>
      <point x="247" y="30"/>
      <point x="250" y="41" type="curve" smooth="yes"/>
      <point x="255" y="57"/>
      <point x="255" y="84"/>
    </contour>
  </outline>
</glyph>
<glyph name="Z" format="2">
  <advance width="618"/>
  <unicode hex="005A"/>
  <outline>
    <contour>
      <point x="211" y="611" type="line" smooth="yes"/>
      <point x="145" y="611"/>
      <point x="99" y="563"/>
      <point x="78" y="483" type="curve"/>
      <point x="76" y="480"/>
      <point x="72" y="479"/>
      <point x="67" y="479" type="curve" smooth="yes"/>
      <point x="58" y="479"/>
      <point x="45" y="484"/>
      <point x="42" y="487" type="curve"/>
      <point x="59" y="532"/>
      <point x="68" y="587"/>
      <point x="74" y="653" type="curve"/>
      <point x="95" y="650"/>
      <point x="128" y="646"/>
      <point x="154" y="646" type="curve" smooth="yes"/>
      <point x="344" y="646" type="line" smooth="yes"/>
      <point x="426" y="646"/>
      <point x="467" y="649"/>
      <point x="549" y="655" type="curve"/>
      <point x="553" y="654"/>
      <point x="566" y="642"/>
      <point x="566" y="634" type="curve"/>
      <point x="564" y="626"/>
      <point x="153" y="34"/>
      <point x="153" y="34" type="curve"/>
      <point x="408" y="34" type="line" smooth="yes"/>
      <point x="450" y="34"/>
      <point x="478" y="48"/>
      <point x="499" y="69" type="curve" smooth="yes"/>
      <point x="527" y="97"/>
      <point x="540" y="137"/>
      <point x="551" y="165" type="curve" smooth="yes"/>
      <point x="552" y="167"/>
      <point x="559" y="168"/>
      <point x="564" y="168" type="curve" smooth="yes"/>
      <point x="574" y="168"/>
      <point x="584" y="163"/>
      <point x="588" y="159" type="curve"/>
      <point x="565" y="82"/>
      <point x="553" y="50"/>
      <point x="541" y="0" type="curve"/>
      <point x="541" y="0"/>
      <point x="240" y="0"/>
      <point x="52" y="0" type="curve" smooth="yes"/>
      <point x="41" y="0"/>
      <point x="30" y="8"/>
      <point x="34" y="14" type="curve" smooth="yes"/>
      <point x="449" y="611" type="line"/>
    </contour>
  </outline>
</glyph>
<glyph name="underscore" format="2">
	<unicode hex="005F"/>
	<advance width="493"/>
	<outline>
		<contour>
			<point x="14" y="-32" type="curve"/>
			<point x="14" y="-32"/>
			<point x="18" y="13"/>
			<point x="28" y="13" type="curve" smooth="yes"/>
			<point x="467" y="13" type="line" smooth="yes"/>
			<point x="469" y="13"/>
			<point x="471" y="12"/>
			<point x="471" y="8" type="curve" smooth="yes"/>
			<point x="471" y="-1"/>
			<point x="467" y="-15"/>
			<point x="461" y="-36" type="curve" smooth="yes"/>
			<point x="459" y="-42"/>
			<point x="455" y="-42"/>
			<point x="455" y="-42" type="curve"/>
			<point x="21" y="-42" type="line"/>
			<point x="21" y="-42"/>
			<point x="14" y="-42"/>
		</contour>
	</outline>
</glyph>
<glyph name="a" format="2">
	<unicode hex="0061"/>
	<advance width="420"/>
	<outline>
		<contour>
			<point x="183" y="45" type="curve" smooth="yes"/>
			<point x="217" y="45"/>
			<point x="268" y="75"/>
			<point x="268" y="85" type="curve" smooth="yes"/>
			<point x="268" y="218" type="line"/>
			<point x="242" y="210"/>
			<point x="195" y="196"/>
			<point x="177" y="189" type="curve" smooth="yes"/>
			<point x="142" y="175"/>
			<point x="117" y="150"/>
			<point x="117" y="113" type="curve" smooth="yes"/>
			<point x="117" y="77"/>
			<point x="146" y="45"/>
		</contour>
		<contour>
			<point x="235" y="426" type="curve" smooth="yes"/>
			<point x="291" y="426"/>
			<point x="342" y="367"/>
			<point x="342" y="292" type="curve" smooth="yes"/>
			<point x="342" y="91" type="line" smooth="yes"/>
			<point x="342" y="65"/>
			<point x="350" y="45"/>
			<point x="372" y="45" type="curve" smooth="yes"/>
			<point x="390" y="45"/>
			<point x="401" y="56"/>
			<point x="404" y="58" type="curve"/>
			<point x="407" y="58"/>
			<point x="408" y="53"/>
			<point x="408" y="50" type="curve" smooth="yes"/>
			<point x="408" y="44"/>
			<point x="406" y="36"/>
			<point x="403" y="31" type="curve"/>
			<point x="391" y="20"/>
			<point x="351" y="-6"/>
			<point x="330" y="-6" type="curve" smooth="yes"/>
			<point x="302" y="-6"/>
			<point x="277" y="28"/>
			<point x="271" y="58" type="curve"/>
			<point x="259" y="46"/>
			<point x="184" y="-8"/>
			<point x="150" y="-8" type="curve" smooth="yes"/>
			<point x="86" y="-8"/>
			<point x="36" y="41"/>
			<point x="36" y="104" type="curve" smooth="yes"/>
			<point x="36" y="144"/>
			<point x="64" y="175"/>
			<point x="85" y="183" type="curve" smooth="yes"/>
			<point x="140" y="203"/>
			<point x="228" y="231"/>
			<point x="256" y="244" type="curve" smooth="yes"/>
			<point x="266" y="248"/>
			<point x="268" y="251"/>
			<point x="268" y="269" type="curve" smooth="yes"/>
			<point x="268" y="295" type="line" smooth="yes"/>
			<point x="268" y="339"/>
			<point x="232" y="389"/>
			<point x="184" y="389" type="curve" smooth="yes"/>
			<point x="150" y="389"/>
			<point x="137" y="366"/>
			<point x="130" y="328" type="curve" smooth="yes"/>
			<point x="124" y="295"/>
			<point x="108" y="281"/>
			<point x="84" y="281" type="curve" smooth="yes"/>
			<point x="63" y="281"/>
			<point x="51" y="302"/>
			<point x="51" y="322" type="curve" smooth="yes"/>
			<point x="51" y="326"/>
			<point x="54" y="341"/>
			<point x="58" y="346" type="curve"/>
			<point x="88" y="374"/>
			<point x="164" y="426"/>
		</contour>
	</outline>
</glyph>
<glyph name="b" format="2">
	<unicode hex="0062"/>
	<advance width="486"/>
	<outline>
		<contour>
			<point x="206" y="-7" type="curve" smooth="yes"/>
			<point x="191" y="-7"/>
			<point x="155" y="2"/>
			<point x="134" y="8" type="curve" smooth="yes"/>
			<point x="113" y="14"/>
			<point x="93" y="22"/>
			<point x="71" y="14" type="curve"/>
			<point x="66" y="14"/>
			<point x="58" y="30"/>
			<point x="58" y="35" type="curve"/>
			<point x="67" y="55"/>
			<point x="70" y="87"/>
			<point x="70" y="107" type="curve" smooth="yes"/>
			<point x="70" y="545" type="line" smooth="yes"/>
			<point x="70" y="558"/>
			<point x="70" y="584"/>
			<point x="65" y="596" type="curve" smooth="yes"/>
			<point x="59" y="610"/>
			<point x="32" y="613"/>
			<point x="5" y="613" type="curve"/>
			<point x="4" y="613"/>
			<point x="2" y="638"/>
			<point x="6" y="639" type="curve"/>
			<point x="55" y="644"/>
			<point x="104" y="659"/>
			<point x="145" y="678" type="curve"/>
			<point x="150" y="678"/>
			<point x="156" y="669"/>
			<point x="156" y="662" type="curve"/>
			<point x="156" y="662"/>
			<point x="145" y="631"/>
			<point x="145" y="577" type="curve" smooth="yes"/>
			<point x="145" y="385" type="line" smooth="yes"/>
			<point x="145" y="380"/>
			<point x="145" y="370"/>
			<point x="151" y="375" type="curve" smooth="yes"/>
			<point x="166" y="386"/>
			<point x="232" y="428"/>
			<point x="269" y="428" type="curve" smooth="yes"/>
			<point x="386" y="428"/>
			<point x="448" y="317"/>
			<point x="448" y="228" type="curve" smooth="yes"/>
			<point x="448" y="100"/>
			<point x="345" y="-7"/>
		</contour>
		<contour>
			<point x="222" y="370" type="curve" smooth="yes"/>
			<point x="197" y="370"/>
			<point x="159" y="353"/>
			<point x="150" y="344" type="curve" smooth="yes"/>
			<point x="147" y="341"/>
			<point x="145" y="338"/>
			<point x="145" y="333" type="curve" smooth="yes"/>
			<point x="145" y="96" type="line" smooth="yes"/>
			<point x="145" y="54"/>
			<point x="193" y="26"/>
			<point x="236" y="26" type="curve" smooth="yes"/>
			<point x="306" y="26"/>
			<point x="366" y="110"/>
			<point x="366" y="189" type="curve" smooth="yes"/>
			<point x="366" y="302"/>
			<point x="309" y="370"/>
		</contour>
	</outline>
</glyph>
<glyph name="c" format="2">
  <advance width="413"/>
  <unicode hex="0063"/>
  <outline>
    <contour>
      <point x="373" y="377" type="curve" smooth="yes"/>
      <point x="373" y="342"/>
      <point x="353" y="330"/>
      <point x="336" y="330" type="curve"/>
      <point x="315" y="330"/>
      <point x="296" y="355"/>
      <point x="279" y="366" type="curve" smooth="yes"/>
      <point x="258" y="380"/>
      <point x="249" y="385"/>
      <point x="224" y="385" type="curve" smooth="yes"/>
      <point x="172" y="385"/>
      <point x="114" y="325"/>
      <point x="114" y="222" type="curve" smooth="yes"/>
      <point x="114" y="108"/>
      <point x="184" y="57"/>
      <point x="272" y="57" type="curve" smooth="yes"/>
      <point x="326" y="57"/>
      <point x="363" y="91"/>
      <point x="376" y="106" type="curve"/>
      <point x="377" y="106"/>
      <point x="384" y="101"/>
      <point x="384" y="93" type="curve" smooth="yes"/>
      <point x="384" y="88"/>
      <point x="381" y="80"/>
      <point x="378" y="75" type="curve" smooth="yes"/>
      <point x="360" y="47"/>
      <point x="311" y="-8"/>
      <point x="235" y="-8" type="curve" smooth="yes"/>
      <point x="117" y="-8"/>
      <point x="38" y="87"/>
      <point x="38" y="189" type="curve" smooth="yes"/>
      <point x="38" y="332"/>
      <point x="173" y="428"/>
      <point x="275" y="428" type="curve" smooth="yes"/>
      <point x="309" y="428"/>
      <point x="340" y="420"/>
      <point x="363" y="404" type="curve"/>
      <point x="367" y="400"/>
      <point x="373" y="387"/>
    </contour>
  </outline>
</glyph>
<glyph name="d" format="2">
	<unicode hex="0064"/>
	<advance width="502"/>
	<outline>
		<contour>
			<point x="271" y="428" type="curve" smooth="yes"/>
			<point x="292" y="428"/>
			<point x="328" y="422"/>
			<point x="338" y="418" type="curve"/>
			<point x="342" y="418"/>
			<point x="343" y="426"/>
			<point x="343" y="438" type="curve" smooth="yes"/>
			<point x="343" y="545" type="line" smooth="yes"/>
			<point x="343" y="559"/>
			<point x="343" y="584"/>
			<point x="338" y="596" type="curve" smooth="yes"/>
			<point x="332" y="610"/>
			<point x="305" y="613"/>
			<point x="278" y="613" type="curve"/>
			<point x="277" y="613"/>
			<point x="275" y="638"/>
			<point x="279" y="639" type="curve"/>
			<point x="328" y="644"/>
			<point x="377" y="659"/>
			<point x="418" y="678" type="curve"/>
			<point x="423" y="678"/>
			<point x="429" y="669"/>
			<point x="429" y="662" type="curve"/>
			<point x="429" y="662"/>
			<point x="418" y="631"/>
			<point x="418" y="577" type="curve" smooth="yes"/>
			<point x="418" y="159" type="line" smooth="yes"/>
			<point x="418" y="121"/>
			<point x="419" y="77"/>
			<point x="425" y="63" type="curve" smooth="yes"/>
			<point x="433" y="45"/>
			<point x="479" y="47"/>
			<point x="482" y="46" type="curve" smooth="yes"/>
			<point x="484" y="45"/>
			<point x="485" y="37"/>
			<point x="485" y="34" type="curve" smooth="yes"/>
			<point x="485" y="32"/>
			<point x="483" y="20"/>
			<point x="478" y="20" type="curve" smooth="yes"/>
			<point x="427" y="17"/>
			<point x="352" y="-8"/>
			<point x="351" y="-8" type="curve" smooth="yes"/>
			<point x="345" y="-8"/>
			<point x="343" y="4"/>
			<point x="343" y="11" type="curve" smooth="yes"/>
			<point x="343" y="45" type="line" smooth="yes"/>
			<point x="343" y="50"/>
			<point x="342" y="53"/>
			<point x="340" y="51" type="curve" smooth="yes"/>
			<point x="325" y="35"/>
			<point x="257" y="-8"/>
			<point x="210" y="-8" type="curve" smooth="yes"/>
			<point x="121" y="-8"/>
			<point x="38" y="82"/>
			<point x="38" y="201" type="curve" smooth="yes"/>
			<point x="38" y="329"/>
			<point x="183" y="428"/>
		</contour>
		<contour>
			<point x="239" y="387" type="curve" smooth="yes"/>
			<point x="165" y="387"/>
			<point x="120" y="307"/>
			<point x="120" y="225" type="curve" smooth="yes"/>
			<point x="120" y="133"/>
			<point x="169" y="53"/>
			<point x="258" y="53" type="curve" smooth="yes"/>
			<point x="302" y="53"/>
			<point x="343" y="76"/>
			<point x="343" y="92" type="curve" smooth="yes"/>
			<point x="343" y="339" type="line" smooth="yes"/>
			<point x="343" y="361"/>
			<point x="294" y="387"/>
		</contour>
	</outline>
</glyph>
<glyph name="e" format="2">
	<unicode hex="0065"/>
	<advance width="419"/>
	<outline>
		<contour>
			<point x="113" y="278" type="curve"/>
			<point x="122" y="278"/>
			<point x="262" y="278"/>
			<point x="272" y="278" type="curve" smooth="yes"/>
			<point x="284" y="278"/>
			<point x="294" y="283"/>
			<point x="295" y="301" type="curve" smooth="yes"/>
			<point x="296" y="324"/>
			<point x="275" y="393"/>
			<point x="215" y="393" type="curve" smooth="yes"/>
			<point x="133" y="393"/>
			<point x="111" y="278"/>
		</contour>
		<contour>
			<point x="108" y="242" type="curve"/>
			<point x="105" y="117"/>
			<point x="182" y="55"/>
			<point x="268" y="55" type="curve" smooth="yes"/>
			<point x="322" y="55"/>
			<point x="362" y="91"/>
			<point x="375" y="106" type="curve"/>
			<point x="376" y="106"/>
			<point x="383" y="101"/>
			<point x="383" y="93" type="curve" smooth="yes"/>
			<point x="383" y="88"/>
			<point x="380" y="80"/>
			<point x="377" y="75" type="curve" smooth="yes"/>
			<point x="359" y="47"/>
			<point x="310" y="-8"/>
			<point x="234" y="-8" type="curve" smooth="yes"/>
			<point x="119" y="-8"/>
			<point x="39" y="80"/>
			<point x="39" y="195" type="curve" smooth="yes"/>
			<point x="39" y="326"/>
			<point x="145" y="428"/>
			<point x="231" y="428" type="curve" smooth="yes"/>
			<point x="348" y="428"/>
			<point x="378" y="334"/>
			<point x="378" y="295" type="curve" smooth="yes"/>
			<point x="378" y="267"/>
			<point x="373" y="250"/>
			<point x="354" y="249" type="curve" smooth="yes"/>
			<point x="324" y="247"/>
			<point x="120" y="242"/>
		</contour>
	</outline>
</glyph>
<glyph name="f" format="2">
  <advance width="300"/>
  <unicode hex="0066"/>
  <outline>
    <contour>
      <point x="263" y="681" type="curve" smooth="yes"/>
      <point x="292" y="681"/>
      <point x="294" y="679"/>
      <point x="309" y="669" type="curve"/>
      <point x="313" y="665"/>
      <point x="319" y="652"/>
      <point x="319" y="642" type="curve" smooth="yes"/>
      <point x="319" y="607"/>
      <point x="293" y="603"/>
      <point x="280" y="603" type="curve" smooth="yes"/>
      <point x="270" y="603"/>
      <point x="262" y="607"/>
      <point x="251" y="613" type="curve" smooth="yes"/>
      <point x="240" y="619"/>
      <point x="236" y="622"/>
      <point x="223" y="622" type="curve" smooth="yes"/>
      <point x="193" y="622"/>
      <point x="168" y="591"/>
      <point x="169" y="530" type="curve" smooth="yes"/>
      <point x="169" y="409" type="line"/>
      <point x="285" y="409" type="line" smooth="yes"/>
      <point x="290" y="409"/>
      <point x="289" y="404"/>
      <point x="289" y="398" type="curve" smooth="yes"/>
      <point x="289" y="389"/>
      <point x="285" y="378"/>
      <point x="276" y="369" type="curve"/>
      <point x="169" y="369" type="line"/>
      <point x="169" y="113" type="line" smooth="yes"/>
      <point x="169" y="84"/>
      <point x="169" y="57"/>
      <point x="174" y="41" type="curve" smooth="yes"/>
      <point x="177" y="30"/>
      <point x="228" y="25"/>
      <point x="240" y="25" type="curve"/>
      <point x="244" y="20"/>
      <point x="245" y="2"/>
      <point x="240" y="-3" type="curve"/>
      <point x="200" y="-1"/>
      <point x="169" y="2"/>
      <point x="131" y="2" type="curve" smooth="yes"/>
      <point x="93" y="2"/>
      <point x="68" y="-1"/>
      <point x="28" y="-3" type="curve"/>
      <point x="23" y="2"/>
      <point x="24" y="20"/>
      <point x="28" y="25" type="curve"/>
      <point x="40" y="25"/>
      <point x="86" y="30"/>
      <point x="89" y="41" type="curve" smooth="yes"/>
      <point x="94" y="57"/>
      <point x="94" y="84"/>
      <point x="94" y="113" type="curve" smooth="yes"/>
      <point x="94" y="369" type="line"/>
      <point x="37" y="369" type="line" smooth="yes"/>
      <point x="34" y="369"/>
      <point x="33" y="375"/>
      <point x="33" y="378" type="curve" smooth="yes"/>
      <point x="33" y="382"/>
      <point x="57" y="408"/>
      <point x="58" y="409" type="curve"/>
      <point x="74" y="409"/>
      <point x="83" y="409"/>
      <point x="94" y="409" type="curve"/>
      <point x="94" y="420"/>
      <point x="94" y="428"/>
      <point x="94" y="428" type="curve" smooth="yes"/>
      <point x="94" y="570"/>
      <point x="203" y="681"/>
    </contour>
  </outline>
</glyph>
<glyph name="g" format="2">
  <advance width="455"/>
  <unicode hex="0067"/>
  <outline>
    <contour>
      <point x="210" y="399" type="curve" smooth="yes"/>
      <point x="154" y="399"/>
      <point x="124" y="341"/>
      <point x="124" y="285" type="curve" smooth="yes"/>
      <point x="124" y="225"/>
      <point x="158" y="163"/>
      <point x="218" y="163" type="curve" smooth="yes"/>
      <point x="272" y="163"/>
      <point x="301" y="220"/>
      <point x="301" y="274" type="curve" smooth="yes"/>
      <point x="301" y="335"/>
      <point x="271" y="399"/>
    </contour>
    <contour>
      <point x="249" y="-4" type="curve" smooth="yes"/>
      <point x="231" y="-4"/>
      <point x="165" y="-5"/>
      <point x="158" y="-9" type="curve" smooth="yes"/>
      <point x="136" y="-22"/>
      <point x="100" y="-49"/>
      <point x="100" y="-74" type="curve" smooth="yes"/>
      <point x="100" y="-137"/>
      <point x="147" y="-184"/>
      <point x="230" y="-184" type="curve" smooth="yes"/>
      <point x="297" y="-184"/>
      <point x="378" y="-133"/>
      <point x="378" y="-79" type="curve" smooth="yes"/>
      <point x="378" y="-51"/>
      <point x="342" y="-4"/>
    </contour>
    <contour>
      <point x="294" y="65" type="curve" smooth="yes"/>
      <point x="371" y="65"/>
      <point x="445" y="18"/>
      <point x="445" y="-37" type="curve" smooth="yes"/>
      <point x="445" y="-117"/>
      <point x="327" y="-221"/>
      <point x="191" y="-222" type="curve" smooth="yes"/>
      <point x="112" y="-223"/>
      <point x="22" y="-183"/>
      <point x="22" y="-103" type="curve" smooth="yes"/>
      <point x="22" y="-60"/>
      <point x="93" y="-18"/>
      <point x="126" y="-1" type="curve"/>
      <point x="92" y="10"/>
      <point x="46" y="41"/>
      <point x="46" y="90" type="curve"/>
      <point x="63" y="110"/>
      <point x="112" y="145"/>
      <point x="130" y="156" type="curve"/>
      <point x="82" y="182"/>
      <point x="49" y="233"/>
      <point x="49" y="281" type="curve" smooth="yes"/>
      <point x="49" y="358"/>
      <point x="120" y="429"/>
      <point x="214" y="429" type="curve" smooth="yes"/>
      <point x="256" y="429"/>
      <point x="285" y="414"/>
      <point x="303" y="407" type="curve" smooth="yes"/>
      <point x="322" y="400"/>
      <point x="316" y="402"/>
      <point x="325" y="400" type="curve"/>
      <point x="430" y="415" type="line"/>
      <point x="437" y="413"/>
      <point x="439" y="409"/>
      <point x="439" y="405" type="curve" smooth="yes"/>
      <point x="439" y="397"/>
      <point x="427" y="371"/>
      <point x="417" y="365" type="curve"/>
      <point x="393" y="366"/>
      <point x="353" y="369"/>
      <point x="353" y="369" type="curve" smooth="yes"/>
      <point x="350" y="369"/>
      <point x="349" y="368"/>
      <point x="349" y="366" type="curve"/>
      <point x="354" y="361"/>
      <point x="376" y="322"/>
      <point x="376" y="277" type="curve" smooth="yes"/>
      <point x="376" y="209"/>
      <point x="305" y="134"/>
      <point x="211" y="134" type="curve" smooth="yes"/>
      <point x="194" y="134"/>
      <point x="166" y="139"/>
      <point x="156" y="143" type="curve"/>
      <point x="138" y="133"/>
      <point x="120" y="116"/>
      <point x="120" y="100" type="curve" smooth="yes"/>
      <point x="120" y="90"/>
      <point x="140" y="65"/>
      <point x="179" y="65" type="curve" smooth="yes"/>
      <point x="243" y="65"/>
      <point x="251" y="65"/>
    </contour>
  </outline>
</glyph>
<glyph name="h" format="2">
	<unicode hex="0068"/>
	<advance width="503"/>
	<outline>
		<contour>
			<point x="300" y="428" type="curve" smooth="yes"/>
			<point x="405" y="428"/>
			<point x="426" y="363"/>
			<point x="426" y="221" type="curve" smooth="yes"/>
			<point x="426" y="113" type="line" smooth="yes"/>
			<point x="426" y="84"/>
			<point x="426" y="57"/>
			<point x="431" y="41" type="curve" smooth="yes"/>
			<point x="434" y="30"/>
			<point x="481" y="25"/>
			<point x="493" y="25" type="curve"/>
			<point x="497" y="20"/>
			<point x="498" y="2"/>
			<point x="493" y="-3" type="curve"/>
			<point x="453" y="-1"/>
			<point x="426" y="2"/>
			<point x="388" y="2" type="curve" smooth="yes"/>
			<point x="350" y="2"/>
			<point x="325" y="-1"/>
			<point x="285" y="-3" type="curve"/>
			<point x="280" y="2"/>
			<point x="281" y="20"/>
			<point x="285" y="25" type="curve"/>
			<point x="297" y="25"/>
			<point x="343" y="30"/>
			<point x="346" y="41" type="curve" smooth="yes"/>
			<point x="351" y="57"/>
			<point x="351" y="84"/>
			<point x="351" y="113" type="curve" smooth="yes"/>
			<point x="351" y="211" type="line" smooth="yes"/>
			<point x="351" y="332"/>
			<point x="331" y="371"/>
			<point x="255" y="371" type="curve" smooth="yes"/>
			<point x="219" y="371"/>
			<point x="162" y="326"/>
			<point x="162" y="317" type="curve" smooth="yes"/>
			<point x="162" y="113" type="line" smooth="yes"/>
			<point x="162" y="84"/>
			<point x="162" y="57"/>
			<point x="167" y="41" type="curve" smooth="yes"/>
			<point x="170" y="30"/>
			<point x="217" y="25"/>
			<point x="229" y="25" type="curve"/>
			<point x="233" y="20"/>
			<point x="234" y="2"/>
			<point x="229" y="-3" type="curve"/>
			<point x="189" y="-1"/>
			<point x="162" y="2"/>
			<point x="124" y="2" type="curve" smooth="yes"/>
			<point x="86" y="2"/>
			<point x="61" y="-1"/>
			<point x="21" y="-3" type="curve"/>
			<point x="16" y="2"/>
			<point x="17" y="20"/>
			<point x="21" y="25" type="curve"/>
			<point x="33" y="25"/>
			<point x="79" y="30"/>
			<point x="82" y="41" type="curve" smooth="yes"/>
			<point x="87" y="57"/>
			<point x="87" y="84"/>
			<point x="87" y="113" type="curve" smooth="yes"/>
			<point x="87" y="545" type="line" smooth="yes"/>
			<point x="87" y="558"/>
			<point x="87" y="584"/>
			<point x="82" y="596" type="curve" smooth="yes"/>
			<point x="76" y="610"/>
			<point x="50" y="613"/>
			<point x="23" y="613" type="curve"/>
			<point x="22" y="613"/>
			<point x="20" y="638"/>
			<point x="24" y="639" type="curve"/>
			<point x="73" y="644"/>
			<point x="121" y="659"/>
			<point x="162" y="678" type="curve"/>
			<point x="167" y="678"/>
			<point x="173" y="669"/>
			<point x="173" y="662" type="curve"/>
			<point x="173" y="662"/>
			<point x="162" y="631"/>
			<point x="162" y="577" type="curve" smooth="yes"/>
			<point x="162" y="577"/>
			<point x="162" y="364"/>
			<point x="162" y="356" type="curve" smooth="yes"/>
			<point x="162" y="355"/>
			<point x="163" y="354"/>
			<point x="165" y="354" type="curve" smooth="yes"/>
			<point x="166" y="354"/>
			<point x="167" y="355"/>
			<point x="168" y="356" type="curve" smooth="yes"/>
			<point x="188" y="377"/>
			<point x="253" y="428"/>
		</contour>
	</outline>
</glyph>
<glyph name="k" format="2">
	<unicode hex="006B"/>
	<advance width="505"/>
	<outline>
		<contour>
			<point x="162" y="113" type="line" smooth="yes"/>
			<point x="162" y="84"/>
			<point x="162" y="57"/>
			<point x="167" y="41" type="curve" smooth="yes"/>
			<point x="170" y="30"/>
			<point x="217" y="25"/>
			<point x="229" y="25" type="curve"/>
			<point x="233" y="20"/>
			<point x="234" y="2"/>
			<point x="229" y="-3" type="curve"/>
			<point x="189" y="-1"/>
			<point x="162" y="2"/>
			<point x="124" y="2" type="curve" smooth="yes"/>
			<point x="86" y="2"/>
			<point x="61" y="-1"/>
			<point x="21" y="-3" type="curve"/>
			<point x="16" y="2"/>
			<point x="17" y="20"/>
			<point x="21" y="25" type="curve"/>
			<point x="33" y="25"/>
			<point x="79" y="30"/>
			<point x="82" y="41" type="curve" smooth="yes"/>
			<point x="87" y="57"/>
			<point x="87" y="84"/>
			<point x="87" y="113" type="curve" smooth="yes"/>
			<point x="87" y="545" type="line" smooth="yes"/>
			<point x="87" y="559"/>
			<point x="87" y="584"/>
			<point x="82" y="596" type="curve" smooth="yes"/>
			<point x="76" y="610"/>
			<point x="50" y="613"/>
			<point x="23" y="613" type="curve"/>
			<point x="22" y="613"/>
			<point x="20" y="638"/>
			<point x="24" y="639" type="curve"/>
			<point x="73" y="644"/>
			<point x="121" y="659"/>
			<point x="162" y="678" type="curve"/>
			<point x="167" y="678"/>
			<point x="173" y="669"/>
			<point x="173" y="662" type="curve"/>
			<point x="173" y="662"/>
			<point x="162" y="631"/>
			<point x="162" y="577" type="curve" smooth="yes"/>
			<point x="162" y="229" type="line"/>
			<point x="179" y="235"/>
			<point x="210" y="261"/>
			<point x="243" y="289" type="curve" smooth="yes"/>
			<point x="294" y="332"/>
			<point x="332" y="360"/>
			<point x="332" y="370" type="curve" smooth="yes"/>
			<point x="332" y="385"/>
			<point x="295" y="386"/>
			<point x="286" y="387" type="curve"/>
			<point x="281" y="394"/>
			<point x="282" y="413"/>
			<point x="287" y="415" type="curve"/>
			<point x="315" y="412"/>
			<point x="350" y="410"/>
			<point x="381" y="410" type="curve" smooth="yes"/>
			<point x="414" y="410"/>
			<point x="446" y="412"/>
			<point x="467" y="415" type="curve"/>
			<point x="471" y="409"/>
			<point x="470" y="391"/>
			<point x="467" y="387" type="curve"/>
			<point x="453" y="387"/>
			<point x="413" y="379"/>
			<point x="392" y="364" type="curve" smooth="yes"/>
			<point x="381" y="356"/>
			<point x="292" y="292"/>
			<point x="234" y="243" type="curve"/>
			<point x="307" y="164"/>
			<point x="387" y="72"/>
			<point x="410" y="52" type="curve" smooth="yes"/>
			<point x="435" y="31"/>
			<point x="474" y="24"/>
			<point x="499" y="25" type="curve"/>
			<point x="501" y="22"/>
			<point x="503" y="7"/>
			<point x="500" y="2" type="curve"/>
			<point x="493" y="-1"/>
			<point x="463" y="-4"/>
			<point x="437" y="-4" type="curve" smooth="yes"/>
			<point x="379" y="-4"/>
			<point x="332" y="23"/>
			<point x="317" y="39" type="curve" smooth="yes"/>
			<point x="317" y="39"/>
			<point x="233" y="129"/>
			<point x="177" y="190" type="curve" smooth="yes"/>
			<point x="173" y="195"/>
			<point x="162" y="199"/>
			<point x="162" y="199" type="curve"/>
		</contour>
	</outline>
</glyph>
<glyph name="l" format="2">
	<unicode hex="006C"/>
	<advance width="249"/>
	<outline>
		<contour>
			<point x="87" y="545" type="line" smooth="yes"/>
			<point x="87" y="559"/>
			<point x="87" y="584"/>
			<point x="82" y="596" type="curve" smooth="yes"/>
			<point x="76" y="610"/>
			<point x="50" y="613"/>
			<point x="23" y="613" type="curve"/>
			<point x="22" y="613"/>
			<point x="20" y="638"/>
			<point x="24" y="639" type="curve"/>
			<point x="73" y="644"/>
			<point x="121" y="659"/>
			<point x="162" y="678" type="curve"/>
			<point x="167" y="678"/>
			<point x="173" y="669"/>
			<point x="173" y="662" type="curve"/>
			<point x="173" y="662"/>
			<point x="162" y="631"/>
			<point x="162" y="577" type="curve" smooth="yes"/>
			<point x="162" y="113" type="line" smooth="yes"/>
			<point x="162" y="84"/>
			<point x="162" y="57"/>
			<point x="167" y="41" type="curve" smooth="yes"/>
			<point x="170" y="30"/>
			<point x="217" y="25"/>
			<point x="229" y="25" type="curve"/>
			<point x="233" y="20"/>
			<point x="234" y="2"/>
			<point x="229" y="-3" type="curve"/>
			<point x="189" y="-1"/>
			<point x="162" y="2"/>
			<point x="124" y="2" type="curve" smooth="yes"/>
			<point x="86" y="2"/>
			<point x="61" y="-1"/>
			<point x="21" y="-3" type="curve"/>
			<point x="16" y="2"/>
			<point x="17" y="20"/>
			<point x="21" y="25" type="curve"/>
			<point x="33" y="25"/>
			<point x="79" y="30"/>
			<point x="82" y="41" type="curve" smooth="yes"/>
			<point x="87" y="57"/>
			<point x="87" y="84"/>
			<point x="87" y="113" type="curve" smooth="yes"/>
		</contour>
	</outline>
</glyph>
<glyph name="m" format="2">
	<unicode hex="006D"/>
	<advance width="771"/>
	<outline>
		<contour>
			<point x="312" y="428" type="curve" smooth="yes"/>
			<point x="370" y="428"/>
			<point x="407" y="406"/>
			<point x="423" y="347" type="curve"/>
			<point x="466" y="386"/>
			<point x="520" y="428"/>
			<point x="567" y="428" type="curve" smooth="yes"/>
			<point x="672" y="428"/>
			<point x="693" y="363"/>
			<point x="693" y="221" type="curve" smooth="yes"/>
			<point x="693" y="113" type="line" smooth="yes"/>
			<point x="693" y="84"/>
			<point x="693" y="57"/>
			<point x="698" y="41" type="curve" smooth="yes"/>
			<point x="701" y="30"/>
			<point x="747" y="25"/>
			<point x="759" y="25" type="curve"/>
			<point x="763" y="20"/>
			<point x="764" y="2"/>
			<point x="759" y="-3" type="curve"/>
			<point x="719" y="-1"/>
			<point x="693" y="2"/>
			<point x="655" y="2" type="curve" smooth="yes"/>
			<point x="617" y="2"/>
			<point x="591" y="-1"/>
			<point x="551" y="-3" type="curve"/>
			<point x="546" y="2"/>
			<point x="547" y="20"/>
			<point x="551" y="25" type="curve"/>
			<point x="563" y="25"/>
			<point x="610" y="30"/>
			<point x="613" y="41" type="curve" smooth="yes"/>
			<point x="618" y="57"/>
			<point x="617" y="84"/>
			<point x="617" y="113" type="curve" smooth="yes"/>
			<point x="617" y="218" type="line" smooth="yes"/>
			<point x="617" y="315"/>
			<point x="605" y="371"/>
			<point x="526" y="371" type="curve" smooth="yes"/>
			<point x="478" y="371"/>
			<point x="430" y="322"/>
			<point x="430" y="315" type="curve" smooth="yes"/>
			<point x="430" y="314"/>
			<point x="431" y="305"/>
			<point x="431" y="303" type="curve" smooth="yes"/>
			<point x="434" y="284"/>
			<point x="435" y="251"/>
			<point x="435" y="233" type="curve" smooth="yes"/>
			<point x="435" y="113" type="line" smooth="yes"/>
			<point x="435" y="84"/>
			<point x="435" y="57"/>
			<point x="440" y="41" type="curve" smooth="yes"/>
			<point x="443" y="30"/>
			<point x="489" y="25"/>
			<point x="501" y="25" type="curve"/>
			<point x="505" y="20"/>
			<point x="506" y="2"/>
			<point x="501" y="-3" type="curve"/>
			<point x="461" y="-1"/>
			<point x="435" y="2"/>
			<point x="397" y="2" type="curve" smooth="yes"/>
			<point x="359" y="2"/>
			<point x="333" y="-1"/>
			<point x="293" y="-3" type="curve"/>
			<point x="288" y="2"/>
			<point x="289" y="20"/>
			<point x="293" y="25" type="curve"/>
			<point x="305" y="25"/>
			<point x="352" y="30"/>
			<point x="355" y="41" type="curve" smooth="yes"/>
			<point x="360" y="57"/>
			<point x="360" y="84"/>
			<point x="360" y="113" type="curve" smooth="yes"/>
			<point x="360" y="213" type="line" smooth="yes"/>
			<point x="360" y="332"/>
			<point x="338" y="371"/>
			<point x="268" y="371" type="curve" smooth="yes"/>
			<point x="224" y="371"/>
			<point x="177" y="330"/>
			<point x="177" y="317" type="curve" smooth="yes"/>
			<point x="177" y="113" type="line" smooth="yes"/>
			<point x="177" y="84"/>
			<point x="177" y="57"/>
			<point x="182" y="41" type="curve" smooth="yes"/>
			<point x="185" y="30"/>
			<point x="231" y="25"/>
			<point x="243" y="25" type="curve"/>
			<point x="247" y="20"/>
			<point x="248" y="2"/>
			<point x="243" y="-3" type="curve"/>
			<point x="203" y="-1"/>
			<point x="177" y="2"/>
			<point x="139" y="2" type="curve" smooth="yes"/>
			<point x="101" y="2"/>
			<point x="75" y="-1"/>
			<point x="35" y="-3" type="curve"/>
			<point x="30" y="2"/>
			<point x="31" y="20"/>
			<point x="35" y="25" type="curve"/>
			<point x="47" y="25"/>
			<point x="94" y="30"/>
			<point x="97" y="41" type="curve" smooth="yes"/>
			<point x="102" y="57"/>
			<point x="102" y="84"/>
			<point x="102" y="113" type="curve" smooth="yes"/>
			<point x="102" y="291" type="line" smooth="yes"/>
			<point x="102" y="304"/>
			<point x="102" y="334"/>
			<point x="97" y="346" type="curve" smooth="yes"/>
			<point x="90" y="363"/>
			<point x="41" y="363"/>
			<point x="34" y="363" type="curve"/>
			<point x="32" y="365"/>
			<point x="30" y="384"/>
			<point x="34" y="389" type="curve"/>
			<point x="84" y="396"/>
			<point x="134" y="409"/>
			<point x="173" y="430" type="curve"/>
			<point x="178" y="430"/>
			<point x="184" y="419"/>
			<point x="184" y="414" type="curve"/>
			<point x="183" y="407"/>
			<point x="178" y="371"/>
			<point x="178" y="363" type="curve" smooth="yes"/>
			<point x="178" y="362"/>
			<point x="178" y="359"/>
			<point x="180" y="359" type="curve" smooth="yes"/>
			<point x="181" y="359"/>
			<point x="182" y="360"/>
			<point x="183" y="361" type="curve" smooth="yes"/>
			<point x="207" y="382"/>
			<point x="259" y="428"/>
		</contour>
	</outline>
</glyph>
<glyph name="n" format="2">
  <advance width="519"/>
  <unicode hex="006E"/>
  <outline>
    <contour>
      <point x="315" y="428" type="curve" smooth="yes"/>
      <point x="420" y="428"/>
      <point x="441" y="363"/>
      <point x="441" y="221" type="curve" smooth="yes"/>
      <point x="441" y="113" type="line" smooth="yes"/>
      <point x="441" y="84"/>
      <point x="441" y="57"/>
      <point x="446" y="41" type="curve" smooth="yes"/>
      <point x="449" y="30"/>
      <point x="495" y="25"/>
      <point x="507" y="25" type="curve"/>
      <point x="511" y="20"/>
      <point x="512" y="2"/>
      <point x="507" y="-3" type="curve"/>
      <point x="467" y="-1"/>
      <point x="441" y="2"/>
      <point x="403" y="2" type="curve" smooth="yes"/>
      <point x="365" y="2"/>
      <point x="339" y="-1"/>
      <point x="299" y="-3" type="curve"/>
      <point x="294" y="2"/>
      <point x="295" y="20"/>
      <point x="299" y="25" type="curve"/>
      <point x="311" y="25"/>
      <point x="358" y="30"/>
      <point x="361" y="41" type="curve" smooth="yes"/>
      <point x="366" y="57"/>
      <point x="366" y="84"/>
      <point x="366" y="113" type="curve" smooth="yes"/>
      <point x="366" y="211" type="line" smooth="yes"/>
      <point x="366" y="332"/>
      <point x="346" y="371"/>
      <point x="270" y="371" type="curve" smooth="yes"/>
      <point x="234" y="371"/>
      <point x="177" y="326"/>
      <point x="177" y="317" type="curve" smooth="yes"/>
      <point x="177" y="113" type="line" smooth="yes"/>
      <point x="177" y="84"/>
      <point x="177" y="57"/>
      <point x="182" y="41" type="curve" smooth="yes"/>
      <point x="185" y="30"/>
      <point x="231" y="25"/>
      <point x="243" y="25" type="curve"/>
      <point x="247" y="20"/>
      <point x="248" y="2"/>
      <point x="243" y="-3" type="curve"/>
      <point x="203" y="-1"/>
      <point x="177" y="2"/>
      <point x="139" y="2" type="curve" smooth="yes"/>
      <point x="101" y="2"/>
      <point x="75" y="-1"/>
      <point x="35" y="-3" type="curve"/>
      <point x="30" y="2"/>
      <point x="31" y="20"/>
      <point x="35" y="25" type="curve"/>
      <point x="47" y="25"/>
      <point x="94" y="30"/>
      <point x="97" y="41" type="curve" smooth="yes"/>
      <point x="102" y="57"/>
      <point x="102" y="84"/>
      <point x="102" y="113" type="curve" smooth="yes"/>
      <point x="102" y="291" type="line" smooth="yes"/>
      <point x="102" y="304"/>
      <point x="102" y="334"/>
      <point x="97" y="346" type="curve" smooth="yes"/>
      <point x="90" y="363"/>
      <point x="41" y="363"/>
      <point x="34" y="363" type="curve"/>
      <point x="32" y="365"/>
      <point x="30" y="384"/>
      <point x="34" y="389" type="curve"/>
      <point x="84" y="396"/>
      <point x="134" y="409"/>
      <point x="173" y="430" type="curve"/>
      <point x="178" y="430"/>
      <point x="184" y="419"/>
      <point x="184" y="414" type="curve"/>
      <point x="183" y="407"/>
      <point x="178" y="366"/>
      <point x="178" y="358" type="curve" smooth="yes"/>
      <point x="178" y="357"/>
      <point x="178" y="354"/>
      <point x="180" y="354" type="curve" smooth="yes"/>
      <point x="181" y="354"/>
      <point x="182" y="355"/>
      <point x="183" y="356" type="curve" smooth="yes"/>
      <point x="203" y="377"/>
      <point x="268" y="428"/>
    </contour>
  </outline>
</glyph>
<glyph name="o" format="2">
  <advance width="497"/>
  <unicode hex="006F"/>
  <outline>
    <contour>
      <point x="237" y="396" type="curve" smooth="yes"/>
      <point x="154" y="396"/>
      <point x="124" y="312"/>
      <point x="124" y="228" type="curve" smooth="yes"/>
      <point x="124" y="133"/>
      <point x="172" y="25"/>
      <point x="260" y="25" type="curve" smooth="yes"/>
      <point x="343" y="25"/>
      <point x="373" y="110"/>
      <point x="373" y="193" type="curve" smooth="yes"/>
      <point x="373" y="288"/>
      <point x="324" y="396"/>
    </contour>
    <contour>
      <point x="248" y="429" type="curve" smooth="yes"/>
      <point x="377" y="429"/>
      <point x="457" y="338"/>
      <point x="457" y="216" type="curve" smooth="yes"/>
      <point x="457" y="90"/>
      <point x="368" y="-7"/>
      <point x="250" y="-7" type="curve" smooth="yes"/>
      <point x="121" y="-7"/>
      <point x="40" y="86"/>
      <point x="40" y="208" type="curve" smooth="yes"/>
      <point x="40" y="334"/>
      <point x="130" y="429"/>
    </contour>
  </outline>
</glyph>
<glyph name="p" format="2">
	<unicode hex="0070"/>
	<advance width="498"/>
	<outline>
		<contour>
			<point x="284" y="428" type="curve" smooth="yes"/>
			<point x="405" y="428"/>
			<point x="460" y="311"/>
			<point x="460" y="227" type="curve" smooth="yes"/>
			<point x="460" y="101"/>
			<point x="342" y="-8"/>
			<point x="232" y="-8" type="curve" smooth="yes"/>
			<point x="207" y="-8"/>
			<point x="179" y="-2"/>
			<point x="163" y="3" type="curve"/>
			<point x="163" y="3"/>
			<point x="159" y="-2"/>
			<point x="159" y="-10" type="curve" smooth="yes"/>
			<point x="159" y="-104" type="line" smooth="yes"/>
			<point x="159" y="-133"/>
			<point x="159" y="-161"/>
			<point x="164" y="-177" type="curve" smooth="yes"/>
			<point x="167" y="-188"/>
			<point x="214" y="-192"/>
			<point x="226" y="-192" type="curve"/>
			<point x="230" y="-197"/>
			<point x="231" y="-216"/>
			<point x="226" y="-221" type="curve"/>
			<point x="186" y="-219"/>
			<point x="159" y="-216"/>
			<point x="121" y="-216" type="curve" smooth="yes"/>
			<point x="83" y="-216"/>
			<point x="58" y="-219"/>
			<point x="18" y="-221" type="curve"/>
			<point x="13" y="-216"/>
			<point x="14" y="-197"/>
			<point x="18" y="-192" type="curve"/>
			<point x="30" y="-192"/>
			<point x="76" y="-188"/>
			<point x="79" y="-177" type="curve" smooth="yes"/>
			<point x="84" y="-161"/>
			<point x="84" y="-133"/>
			<point x="84" y="-104" type="curve" smooth="yes"/>
			<point x="84" y="295" type="line" smooth="yes"/>
			<point x="84" y="308"/>
			<point x="84" y="334"/>
			<point x="79" y="346" type="curve" smooth="yes"/>
			<point x="72" y="363"/>
			<point x="23" y="363"/>
			<point x="16" y="363" type="curve"/>
			<point x="14" y="365"/>
			<point x="12" y="384"/>
			<point x="16" y="389" type="curve"/>
			<point x="66" y="396"/>
			<point x="117" y="409"/>
			<point x="156" y="430" type="curve"/>
			<point x="161" y="430"/>
			<point x="166" y="419"/>
			<point x="166" y="414" type="curve"/>
			<point x="165" y="407"/>
			<point x="159" y="382"/>
			<point x="159" y="374" type="curve" smooth="yes"/>
			<point x="159" y="373"/>
			<point x="159" y="370"/>
			<point x="161" y="370" type="curve" smooth="yes"/>
			<point x="162" y="370"/>
			<point x="163" y="371"/>
			<point x="164" y="372" type="curve" smooth="yes"/>
			<point x="188" y="393"/>
			<point x="245" y="428"/>
		</contour>
		<contour>
			<point x="242" y="370" type="curve" smooth="yes"/>
			<point x="202" y="370"/>
			<point x="159" y="346"/>
			<point x="159" y="332" type="curve" smooth="yes"/>
			<point x="159" y="98" type="line" smooth="yes"/>
			<point x="159" y="47"/>
			<point x="216" y="26"/>
			<point x="250" y="26" type="curve" smooth="yes"/>
			<point x="331" y="26"/>
			<point x="378" y="111"/>
			<point x="378" y="190" type="curve" smooth="yes"/>
			<point x="378" y="306"/>
			<point x="316" y="370"/>
		</contour>
	</outline>
</glyph>
<glyph name="q" format="2">
	<unicode hex="0071"/>
	<advance width="485"/>
	<outline>
		<contour>
			<point x="250" y="393" type="curve" smooth="yes"/>
			<point x="158" y="393"/>
			<point x="120" y="289"/>
			<point x="120" y="229" type="curve" smooth="yes"/>
			<point x="120" y="114"/>
			<point x="182" y="52"/>
			<point x="263" y="52" type="curve" smooth="yes"/>
			<point x="302" y="52"/>
			<point x="341" y="76"/>
			<point x="341" y="91" type="curve" smooth="yes"/>
			<point x="341" y="324" type="line" smooth="yes"/>
			<point x="341" y="366"/>
			<point x="293" y="393"/>
		</contour>
		<contour>
			<point x="279" y="428" type="curve" smooth="yes"/>
			<point x="308" y="428"/>
			<point x="364" y="403"/>
			<point x="396" y="403" type="curve" smooth="yes"/>
			<point x="402" y="403"/>
			<point x="409" y="404"/>
			<point x="415" y="406" type="curve"/>
			<point x="421" y="406"/>
			<point x="428" y="390"/>
			<point x="428" y="385" type="curve"/>
			<point x="419" y="365"/>
			<point x="416" y="332"/>
			<point x="416" y="312" type="curve" smooth="yes"/>
			<point x="416" y="-105" type="line" smooth="yes"/>
			<point x="416" y="-134"/>
			<point x="416" y="-162"/>
			<point x="421" y="-178" type="curve" smooth="yes"/>
			<point x="424" y="-189"/>
			<point x="470" y="-193"/>
			<point x="482" y="-193" type="curve"/>
			<point x="486" y="-198"/>
			<point x="487" y="-217"/>
			<point x="482" y="-222" type="curve"/>
			<point x="442" y="-220"/>
			<point x="416" y="-217"/>
			<point x="378" y="-217" type="curve" smooth="yes"/>
			<point x="340" y="-217"/>
			<point x="314" y="-220"/>
			<point x="274" y="-222" type="curve"/>
			<point x="269" y="-217"/>
			<point x="270" y="-198"/>
			<point x="274" y="-193" type="curve"/>
			<point x="286" y="-193"/>
			<point x="333" y="-189"/>
			<point x="336" y="-178" type="curve" smooth="yes"/>
			<point x="341" y="-162"/>
			<point x="341" y="-134"/>
			<point x="341" y="-105" type="curve" smooth="yes"/>
			<point x="341" y="39" type="line" smooth="yes"/>
			<point x="341" y="44"/>
			<point x="339" y="53"/>
			<point x="334" y="49" type="curve" smooth="yes"/>
			<point x="319" y="36"/>
			<point x="254" y="-7"/>
			<point x="212" y="-7" type="curve" smooth="yes"/>
			<point x="100" y="-7"/>
			<point x="38" y="107"/>
			<point x="38" y="194" type="curve" smooth="yes"/>
			<point x="38" y="328"/>
			<point x="175" y="428"/>
		</contour>
	</outline>
</glyph>
<glyph name="r" format="2">
  <advance width="374"/>
  <unicode hex="0072"/>
  <outline>
    <contour>
      <point x="296" y="427" type="curve" smooth="yes"/>
      <point x="321" y="427"/>
      <point x="347" y="414"/>
      <point x="356" y="398" type="curve"/>
      <point x="358" y="392"/>
      <point x="360" y="383"/>
      <point x="360" y="372" type="curve" smooth="yes"/>
      <point x="360" y="336"/>
      <point x="337" y="321"/>
      <point x="327" y="321" type="curve" smooth="yes"/>
      <point x="313" y="321"/>
      <point x="302" y="333"/>
      <point x="291" y="340" type="curve" smooth="yes"/>
      <point x="282" y="346"/>
      <point x="273" y="352"/>
      <point x="255" y="352" type="curve" smooth="yes"/>
      <point x="213" y="352"/>
      <point x="177" y="286"/>
      <point x="177" y="264" type="curve" smooth="yes"/>
      <point x="177" y="113" type="line" smooth="yes"/>
      <point x="177" y="84"/>
      <point x="177" y="57"/>
      <point x="182" y="41" type="curve" smooth="yes"/>
      <point x="185" y="30"/>
      <point x="254" y="25"/>
      <point x="266" y="25" type="curve"/>
      <point x="270" y="20"/>
      <point x="271" y="2"/>
      <point x="266" y="-3" type="curve"/>
      <point x="226" y="-1"/>
      <point x="183" y="2"/>
      <point x="145" y="2" type="curve" smooth="yes"/>
      <point x="107" y="2"/>
      <point x="75" y="-1"/>
      <point x="35" y="-3" type="curve"/>
      <point x="30" y="2"/>
      <point x="31" y="20"/>
      <point x="35" y="25" type="curve"/>
      <point x="47" y="25"/>
      <point x="94" y="30"/>
      <point x="97" y="41" type="curve" smooth="yes"/>
      <point x="102" y="57"/>
      <point x="102" y="84"/>
      <point x="102" y="113" type="curve" smooth="yes"/>
      <point x="102" y="295" type="line" smooth="yes"/>
      <point x="102" y="308"/>
      <point x="102" y="334"/>
      <point x="97" y="346" type="curve" smooth="yes"/>
      <point x="90" y="363"/>
      <point x="41" y="363"/>
      <point x="34" y="363" type="curve"/>
      <point x="32" y="365"/>
      <point x="30" y="384"/>
      <point x="34" y="389" type="curve"/>
      <point x="84" y="396"/>
      <point x="134" y="409"/>
      <point x="173" y="430" type="curve"/>
      <point x="178" y="430"/>
      <point x="184" y="419"/>
      <point x="184" y="414" type="curve"/>
      <point x="183" y="407"/>
      <point x="177" y="335"/>
      <point x="177" y="324" type="curve" smooth="yes"/>
      <point x="177" y="320"/>
      <point x="180" y="321"/>
      <point x="181" y="322" type="curve" smooth="yes"/>
      <point x="200" y="364"/>
      <point x="252" y="427"/>
    </contour>
  </outline>
</glyph>
<glyph name="s" format="2">
  <advance width="360"/>
  <unicode hex="0073"/>
  <outline>
    <contour>
      <point x="190" y="427" type="curve" smooth="yes"/>
      <point x="228" y="427"/>
      <point x="247" y="419"/>
      <point x="290" y="414" type="curve"/>
      <point x="297" y="384"/>
      <point x="301" y="342"/>
      <point x="302" y="307" type="curve" smooth="yes"/>
      <point x="302" y="303"/>
      <point x="297" y="302"/>
      <point x="292" y="302" type="curve" smooth="yes"/>
      <point x="287" y="302"/>
      <point x="280" y="303"/>
      <point x="275" y="307" type="curve"/>
      <point x="265" y="343"/>
      <point x="235" y="396"/>
      <point x="193" y="396" type="curve" smooth="yes"/>
      <point x="146" y="396"/>
      <point x="124" y="370"/>
      <point x="124" y="335" type="curve" smooth="yes"/>
      <point x="124" y="284"/>
      <point x="165" y="269"/>
      <point x="209" y="243" type="curve" smooth="yes"/>
      <point x="253" y="217"/>
      <point x="321" y="186"/>
      <point x="321" y="124" type="curve" smooth="yes"/>
      <point x="321" y="45"/>
      <point x="250" y="-11"/>
      <point x="171" y="-11" type="curve" smooth="yes"/>
      <point x="126" y="-11"/>
      <point x="100" y="0"/>
      <point x="57" y="8" type="curve"/>
      <point x="49" y="29"/>
      <point x="40" y="84"/>
      <point x="40" y="109" type="curve"/>
      <point x="44" y="112"/>
      <point x="53" y="115"/>
      <point x="58" y="115" type="curve" smooth="yes"/>
      <point x="61" y="115"/>
      <point x="63" y="115"/>
      <point x="66" y="113" type="curve"/>
      <point x="78" y="72"/>
      <point x="120" y="21"/>
      <point x="172" y="21" type="curve" smooth="yes"/>
      <point x="212" y="21"/>
      <point x="242" y="46"/>
      <point x="242" y="91" type="curve" smooth="yes"/>
      <point x="242" y="151"/>
      <point x="180" y="170"/>
      <point x="123" y="203" type="curve" smooth="yes"/>
      <point x="84" y="225"/>
      <point x="49" y="256"/>
      <point x="49" y="308" type="curve" smooth="yes"/>
      <point x="49" y="380"/>
      <point x="118" y="427"/>
    </contour>
  </outline>
</glyph>
<glyph name="t" format="2">
  <advance width="303"/>
  <unicode hex="0074"/>
  <outline>
    <contour>
      <point x="156" y="422" type="line"/>
      <point x="282" y="422" type="line" smooth="yes"/>
      <point x="287" y="422"/>
      <point x="287" y="417"/>
      <point x="287" y="411" type="curve" smooth="yes"/>
      <point x="287" y="402"/>
      <point x="282" y="391"/>
      <point x="273" y="382" type="curve"/>
      <point x="156" y="382" type="line"/>
      <point x="156" y="126" type="line" smooth="yes"/>
      <point x="156" y="74"/>
      <point x="178" y="46"/>
      <point x="221" y="46" type="curve" smooth="yes"/>
      <point x="250" y="46"/>
      <point x="277" y="63"/>
      <point x="284" y="68" type="curve"/>
      <point x="286" y="67"/>
      <point x="287" y="65"/>
      <point x="287" y="62" type="curve" smooth="yes"/>
      <point x="287" y="56"/>
      <point x="284" y="48"/>
      <point x="283" y="47" type="curve" smooth="yes"/>
      <point x="269" y="31"/>
      <point x="231" y="-7"/>
      <point x="183" y="-7" type="curve" smooth="yes"/>
      <point x="133" y="-7"/>
      <point x="81" y="15"/>
      <point x="81" y="99" type="curve" smooth="yes"/>
      <point x="81" y="382" type="line"/>
      <point x="24" y="382" type="line" smooth="yes"/>
      <point x="21" y="382"/>
      <point x="20" y="388"/>
      <point x="20" y="391" type="curve" smooth="yes"/>
      <point x="20" y="395"/>
      <point x="44" y="421"/>
      <point x="45" y="422" type="curve"/>
      <point x="61" y="422"/>
      <point x="70" y="422"/>
      <point x="81" y="422" type="curve"/>
      <point x="81" y="433"/>
      <point x="81" y="475"/>
      <point x="81" y="483" type="curve"/>
      <point x="100" y="504"/>
      <point x="139" y="546"/>
      <point x="141" y="549" type="curve"/>
      <point x="146" y="554"/>
      <point x="156" y="554"/>
      <point x="156" y="550" type="curve" smooth="yes"/>
    </contour>
  </outline>
</glyph>
<glyph name="u" format="2">
  <advance width="502"/>
  <unicode hex="0075"/>
  <outline>
    <contour>
      <point x="341" y="312" type="line" smooth="yes"/>
      <point x="341" y="325"/>
      <point x="342" y="350"/>
      <point x="334" y="365" type="curve" smooth="yes"/>
      <point x="324" y="383"/>
      <point x="292" y="385"/>
      <point x="279" y="385" type="curve"/>
      <point x="276" y="388"/>
      <point x="275" y="405"/>
      <point x="279" y="410" type="curve"/>
      <point x="329" y="412"/>
      <point x="378" y="419"/>
      <point x="413" y="430" type="curve"/>
      <point x="418" y="430"/>
      <point x="423" y="411"/>
      <point x="423" y="406" type="curve"/>
      <point x="419" y="398"/>
      <point x="417" y="371"/>
      <point x="417" y="343" type="curve" smooth="yes"/>
      <point x="417" y="298" type="line" smooth="yes"/>
      <point x="417" y="138" type="line" smooth="yes"/>
      <point x="417" y="127"/>
      <point x="417" y="90"/>
      <point x="423" y="63" type="curve" smooth="yes"/>
      <point x="428" y="44"/>
      <point x="478" y="47"/>
      <point x="481" y="46" type="curve" smooth="yes"/>
      <point x="483" y="45"/>
      <point x="484" y="38"/>
      <point x="484" y="35" type="curve" smooth="yes"/>
      <point x="484" y="33"/>
      <point x="481" y="20"/>
      <point x="476" y="20" type="curve" smooth="yes"/>
      <point x="425" y="17"/>
      <point x="350" y="-8"/>
      <point x="349" y="-8" type="curve" smooth="yes"/>
      <point x="344" y="-8"/>
      <point x="341" y="1"/>
      <point x="341" y="8" type="curve" smooth="yes"/>
      <point x="341" y="53" type="line" smooth="yes"/>
      <point x="341" y="58"/>
      <point x="339" y="58"/>
      <point x="339" y="58" type="curve"/>
      <point x="312" y="29"/>
      <point x="251" y="-7"/>
      <point x="201" y="-7" type="curve" smooth="yes"/>
      <point x="97" y="-7"/>
      <point x="79" y="106"/>
      <point x="79" y="188" type="curve" smooth="yes"/>
      <point x="79" y="312" type="line" smooth="yes"/>
      <point x="79" y="325"/>
      <point x="79" y="350"/>
      <point x="71" y="365" type="curve" smooth="yes"/>
      <point x="61" y="383"/>
      <point x="29" y="385"/>
      <point x="16" y="385" type="curve"/>
      <point x="13" y="388"/>
      <point x="12" y="405"/>
      <point x="16" y="410" type="curve"/>
      <point x="66" y="412"/>
      <point x="115" y="419"/>
      <point x="150" y="430" type="curve"/>
      <point x="155" y="430"/>
      <point x="161" y="415"/>
      <point x="161" y="410" type="curve"/>
      <point x="157" y="402"/>
      <point x="154" y="371"/>
      <point x="154" y="343" type="curve" smooth="yes"/>
      <point x="154" y="301" type="line" smooth="yes"/>
      <point x="154" y="199" type="line" smooth="yes"/>
      <point x="154" y="95"/>
      <point x="184" y="48"/>
      <point x="252" y="48" type="curve" smooth="yes"/>
      <point x="295" y="48"/>
      <point x="341" y="79"/>
      <point x="341" y="102" type="curve" smooth="yes"/>
    </contour>
  </outline>
</glyph>
<glyph name="v" format="2">
	<unicode hex="0076"/>
	<advance width="461"/>
	<outline>
		<contour>
			<point x="100" y="415" type="curve" smooth="yes"/>
			<point x="137" y="415"/>
			<point x="159" y="418"/>
			<point x="198" y="420" type="curve"/>
			<point x="200" y="414"/>
			<point x="199" y="392"/>
			<point x="194" y="392" type="curve"/>
			<point x="187" y="392"/>
			<point x="146" y="390"/>
			<point x="146" y="375" type="curve" smooth="yes"/>
			<point x="146" y="374"/>
			<point x="146" y="373"/>
			<point x="147" y="371" type="curve" smooth="yes"/>
			<point x="254" y="107" type="line"/>
			<point x="254" y="107"/>
			<point x="304" y="237"/>
			<point x="341" y="329" type="curve" smooth="yes"/>
			<point x="346" y="341"/>
			<point x="347" y="353"/>
			<point x="347" y="360" type="curve" smooth="yes"/>
			<point x="347" y="380"/>
			<point x="323" y="392"/>
			<point x="290" y="392" type="curve"/>
			<point x="285" y="392"/>
			<point x="285" y="415"/>
			<point x="290" y="420" type="curve"/>
			<point x="320" y="418"/>
			<point x="329" y="415"/>
			<point x="369" y="415" type="curve" smooth="yes"/>
			<point x="406" y="415"/>
			<point x="421" y="418"/>
			<point x="460" y="420" type="curve"/>
			<point x="464" y="414"/>
			<point x="461" y="392"/>
			<point x="457" y="392" type="curve"/>
			<point x="449" y="392"/>
			<point x="408" y="385"/>
			<point x="396" y="358" type="curve" smooth="yes"/>
			<point x="338" y="220"/>
			<point x="306" y="145"/>
			<point x="249" y="6" type="curve" smooth="yes"/>
			<point x="246" y="-2"/>
			<point x="230" y="-11"/>
			<point x="224" y="-11" type="curve" smooth="yes"/>
			<point x="220" y="-11"/>
			<point x="216" y="-9"/>
			<point x="215" y="-7" type="curve" smooth="yes"/>
			<point x="152" y="143"/>
			<point x="110" y="262"/>
			<point x="56" y="372" type="curve" smooth="yes"/>
			<point x="46" y="393"/>
			<point x="14" y="392"/>
			<point x="2" y="392" type="curve"/>
			<point x="0" y="397"/>
			<point x="-2" y="410"/>
			<point x="2" y="420" type="curve"/>
			<point x="42" y="418"/>
			<point x="60" y="415"/>
		</contour>
	</outline>
</glyph>
<glyph name="w" format="2">
  <advance width="704"/>
  <unicode hex="0077"/>
  <outline>
    <contour>
      <point x="99" y="415" type="curve" smooth="yes"/>
      <point x="136" y="415"/>
      <point x="158" y="418"/>
      <point x="197" y="420" type="curve"/>
      <point x="199" y="414"/>
      <point x="199" y="394"/>
      <point x="195" y="392" type="curve"/>
      <point x="187" y="392"/>
      <point x="146" y="390"/>
      <point x="146" y="369" type="curve" smooth="yes"/>
      <point x="146" y="368"/>
      <point x="148" y="362"/>
      <point x="151" y="354" type="curve" smooth="yes"/>
      <point x="163" y="323"/>
      <point x="196" y="243"/>
      <point x="251" y="114" type="curve"/>
      <point x="301" y="240"/>
      <point x="330" y="310"/>
      <point x="330" y="319" type="curve" smooth="yes"/>
      <point x="330" y="326"/>
      <point x="320" y="354"/>
      <point x="307" y="373" type="curve" smooth="yes"/>
      <point x="296" y="389"/>
      <point x="276" y="392"/>
      <point x="264" y="392" type="curve"/>
      <point x="259" y="395"/>
      <point x="259" y="415"/>
      <point x="264" y="420" type="curve"/>
      <point x="304" y="418"/>
      <point x="313" y="415"/>
      <point x="353" y="415" type="curve" smooth="yes"/>
      <point x="390" y="415"/>
      <point x="415" y="418"/>
      <point x="454" y="420" type="curve"/>
      <point x="456" y="414"/>
      <point x="457" y="396"/>
      <point x="453" y="392" type="curve"/>
      <point x="423" y="392"/>
      <point x="405" y="383"/>
      <point x="405" y="360" type="curve" smooth="yes"/>
      <point x="405" y="357"/>
      <point x="405" y="355"/>
      <point x="407" y="350" type="curve" smooth="yes"/>
      <point x="415" y="324"/>
      <point x="442" y="256"/>
      <point x="496" y="117" type="curve"/>
      <point x="534" y="212"/>
      <point x="568" y="295"/>
      <point x="582" y="336" type="curve" smooth="yes"/>
      <point x="586" y="347"/>
      <point x="587" y="355"/>
      <point x="587" y="359" type="curve" smooth="yes"/>
      <point x="587" y="387"/>
      <point x="551" y="390"/>
      <point x="529" y="392" type="curve"/>
      <point x="525" y="395"/>
      <point x="524" y="415"/>
      <point x="529" y="420" type="curve"/>
      <point x="569" y="418"/>
      <point x="574" y="415"/>
      <point x="614" y="415" type="curve" smooth="yes"/>
      <point x="651" y="415"/>
      <point x="664" y="418"/>
      <point x="703" y="420" type="curve"/>
      <point x="704" y="417"/>
      <point x="706" y="397"/>
      <point x="700" y="392" type="curve"/>
      <point x="692" y="392"/>
      <point x="646" y="385"/>
      <point x="634" y="356" type="curve" smooth="yes"/>
      <point x="580" y="220"/>
      <point x="549" y="142"/>
      <point x="492" y="6" type="curve" smooth="yes"/>
      <point x="489" y="-2"/>
      <point x="478" y="-11"/>
      <point x="472" y="-11" type="curve" smooth="yes"/>
      <point x="466" y="-11"/>
      <point x="461" y="-9"/>
      <point x="460" y="-7" type="curve" smooth="yes"/>
      <point x="352" y="275" type="line"/>
      <point x="246" y="8" type="line" smooth="yes"/>
      <point x="245" y="5"/>
      <point x="233" y="-11"/>
      <point x="222" y="-11" type="curve" smooth="yes"/>
      <point x="218" y="-11"/>
      <point x="214" y="-9"/>
      <point x="213" y="-7" type="curve" smooth="yes"/>
      <point x="152" y="144"/>
      <point x="119" y="224"/>
      <point x="55" y="370" type="curve" smooth="yes"/>
      <point x="46" y="391"/>
      <point x="14" y="392"/>
      <point x="2" y="392" type="curve"/>
      <point x="-1" y="398"/>
      <point x="-1" y="414"/>
      <point x="2" y="420" type="curve"/>
      <point x="42" y="418"/>
      <point x="59" y="415"/>
    </contour>
  </outline>
</glyph>
<glyph name="x" format="2">
	<unicode hex="0078"/>
	<advance width="464"/>
	<outline>
		<contour>
			<point x="120" y="415" type="curve" smooth="yes"/>
			<point x="160" y="415"/>
			<point x="197" y="418"/>
			<point x="219" y="420" type="curve"/>
			<point x="220" y="416"/>
			<point x="222" y="398"/>
			<point x="217" y="392" type="curve"/>
			<point x="201" y="392"/>
			<point x="178" y="390"/>
			<point x="178" y="375" type="curve" smooth="yes"/>
			<point x="178" y="372"/>
			<point x="180" y="368"/>
			<point x="183" y="363" type="curve" smooth="yes"/>
			<point x="247" y="261" type="line"/>
			<point x="273" y="302"/>
			<point x="316" y="353"/>
			<point x="316" y="373" type="curve" smooth="yes"/>
			<point x="316" y="393"/>
			<point x="268" y="391"/>
			<point x="262" y="392" type="curve"/>
			<point x="260" y="393"/>
			<point x="259" y="416"/>
			<point x="262" y="420" type="curve"/>
			<point x="302" y="418"/>
			<point x="320" y="415"/>
			<point x="360" y="415" type="curve" smooth="yes"/>
			<point x="395" y="415"/>
			<point x="425" y="418"/>
			<point x="439" y="420" type="curve"/>
			<point x="440" y="415"/>
			<point x="440" y="392"/>
			<point x="438" y="392" type="curve"/>
			<point x="419" y="391"/>
			<point x="375" y="387"/>
			<point x="362" y="370" type="curve" smooth="yes"/>
			<point x="327" y="321"/>
			<point x="274" y="245"/>
			<point x="265" y="234" type="curve"/>
			<point x="275" y="219"/>
			<point x="382" y="61"/>
			<point x="382" y="61" type="curve" smooth="yes"/>
			<point x="402" y="33"/>
			<point x="429" y="25"/>
			<point x="457" y="25" type="curve"/>
			<point x="459" y="25"/>
			<point x="459" y="1"/>
			<point x="456" y="-3" type="curve"/>
			<point x="420" y="-1"/>
			<point x="400" y="2"/>
			<point x="364" y="2" type="curve" smooth="yes"/>
			<point x="322" y="2"/>
			<point x="298" y="-1"/>
			<point x="256" y="-3" type="curve"/>
			<point x="253" y="4"/>
			<point x="254" y="25"/>
			<point x="257" y="25" type="curve"/>
			<point x="271" y="26"/>
			<point x="298" y="31"/>
			<point x="298" y="43" type="curve" smooth="yes"/>
			<point x="298" y="45"/>
			<point x="297" y="47"/>
			<point x="296" y="49" type="curve" smooth="yes"/>
			<point x="296" y="49"/>
			<point x="245" y="132"/>
			<point x="219" y="171" type="curve"/>
			<point x="200" y="143"/>
			<point x="175" y="108"/>
			<point x="148" y="65" type="curve" smooth="yes"/>
			<point x="143" y="57"/>
			<point x="143" y="52"/>
			<point x="143" y="47" type="curve" smooth="yes"/>
			<point x="143" y="28"/>
			<point x="174" y="27"/>
			<point x="196" y="25" type="curve"/>
			<point x="198" y="25"/>
			<point x="199" y="2"/>
			<point x="195" y="-3" type="curve"/>
			<point x="157" y="-1"/>
			<point x="141" y="2"/>
			<point x="103" y="2" type="curve" smooth="yes"/>
			<point x="66" y="2"/>
			<point x="48" y="-1"/>
			<point x="11" y="-3" type="curve"/>
			<point x="9" y="5"/>
			<point x="10" y="20"/>
			<point x="13" y="25" type="curve"/>
			<point x="44" y="30"/>
			<point x="84" y="33"/>
			<point x="106" y="63" type="curve" smooth="yes"/>
			<point x="106" y="63"/>
			<point x="196" y="194"/>
			<point x="201" y="201" type="curve"/>
			<point x="193" y="213"/>
			<point x="88" y="370"/>
			<point x="88" y="370" type="curve" smooth="yes"/>
			<point x="77" y="386"/>
			<point x="42" y="392"/>
			<point x="22" y="392" type="curve"/>
			<point x="20" y="392"/>
			<point x="20" y="414"/>
			<point x="23" y="420" type="curve"/>
			<point x="55" y="417"/>
			<point x="82" y="415"/>
		</contour>
	</outline>
</glyph>
<glyph name="y" format="2">
	<unicode hex="0079"/>
	<advance width="458"/>
	<outline>
		<contour>
			<point x="99" y="415" type="curve" smooth="yes"/>
			<point x="136" y="415"/>
			<point x="180" y="418"/>
			<point x="197" y="420" type="curve"/>
			<point x="199" y="414"/>
			<point x="198" y="392"/>
			<point x="193" y="392" type="curve"/>
			<point x="186" y="392"/>
			<point x="145" y="390"/>
			<point x="145" y="375" type="curve" smooth="yes"/>
			<point x="145" y="374"/>
			<point x="145" y="373"/>
			<point x="146" y="371" type="curve" smooth="yes"/>
			<point x="250" y="107" type="line"/>
			<point x="250" y="107"/>
			<point x="299" y="237"/>
			<point x="336" y="329" type="curve" smooth="yes"/>
			<point x="341" y="341"/>
			<point x="342" y="353"/>
			<point x="342" y="360" type="curve" smooth="yes"/>
			<point x="342" y="380"/>
			<point x="319" y="392"/>
			<point x="286" y="392" type="curve"/>
			<point x="281" y="392"/>
			<point x="281" y="415"/>
			<point x="286" y="420" type="curve"/>
			<point x="301" y="418"/>
			<point x="334" y="415"/>
			<point x="374" y="415" type="curve" smooth="yes"/>
			<point x="411" y="415"/>
			<point x="436" y="418"/>
			<point x="456" y="420" type="curve"/>
			<point x="460" y="414"/>
			<point x="457" y="392"/>
			<point x="453" y="392" type="curve"/>
			<point x="445" y="392"/>
			<point x="403" y="385"/>
			<point x="391" y="358" type="curve" smooth="yes"/>
			<point x="333" y="220"/>
			<point x="302" y="145"/>
			<point x="245" y="6" type="curve" smooth="yes"/>
			<point x="221" y="-54"/>
			<point x="202" y="-116"/>
			<point x="167" y="-168" type="curve" smooth="yes"/>
			<point x="145" y="-201"/>
			<point x="114" y="-223"/>
			<point x="82" y="-223" type="curve" smooth="yes"/>
			<point x="63" y="-223"/>
			<point x="40" y="-216"/>
			<point x="40" y="-181" type="curve" smooth="yes"/>
			<point x="40" y="-169"/>
			<point x="46" y="-158"/>
			<point x="51" y="-152" type="curve"/>
			<point x="97" y="-152"/>
			<point x="122" y="-150"/>
			<point x="162" y="-97" type="curve" smooth="yes"/>
			<point x="177" y="-76"/>
			<point x="205" y="-9"/>
			<point x="208" y="2" type="curve"/>
			<point x="153" y="142"/>
			<point x="113" y="247"/>
			<point x="55" y="372" type="curve" smooth="yes"/>
			<point x="45" y="393"/>
			<point x="13" y="392"/>
			<point x="1" y="392" type="curve"/>
			<point x="-1" y="392"/>
			<point x="-1" y="418"/>
			<point x="1" y="420" type="curve"/>
			<point x="20" y="418"/>
			<point x="59" y="415"/>
		</contour>
	</outline>
</glyph>
<glyph name="z" format="2">
	<unicode hex="007A"/>
	<advance width="436"/>
	<outline>
		<contour>
			<point x="145" y="421" type="curve" smooth="yes"/>
			<point x="270" y="421" type="line" smooth="yes"/>
			<point x="323" y="421"/>
			<point x="349" y="424"/>
			<point x="389" y="429" type="curve"/>
			<point x="394" y="421"/>
			<point x="392" y="410"/>
			<point x="392" y="405" type="curve"/>
			<point x="392" y="405"/>
			<point x="133" y="37"/>
			<point x="133" y="34" type="curve"/>
			<point x="270" y="34" type="line" smooth="yes"/>
			<point x="330" y="34"/>
			<point x="365" y="80"/>
			<point x="377" y="122" type="curve" smooth="yes"/>
			<point x="378" y="127"/>
			<point x="380" y="128"/>
			<point x="384" y="128" type="curve" smooth="yes"/>
			<point x="392" y="128"/>
			<point x="404" y="122"/>
			<point x="409" y="116" type="curve"/>
			<point x="409" y="116"/>
			<point x="380" y="45"/>
			<point x="365" y="0" type="curve"/>
			<point x="308" y="0"/>
			<point x="176" y="0"/>
			<point x="48" y="0" type="curve"/>
			<point x="41" y="2"/>
			<point x="33" y="12"/>
			<point x="33" y="20" type="curve" smooth="yes"/>
			<point x="33" y="21"/>
			<point x="33" y="25"/>
			<point x="34" y="26" type="curve" smooth="yes"/>
			<point x="285" y="387" type="line"/>
			<point x="148" y="388" type="line" smooth="yes"/>
			<point x="92" y="388"/>
			<point x="82" y="337"/>
			<point x="74" y="319" type="curve" smooth="yes"/>
			<point x="72" y="315"/>
			<point x="63" y="311"/>
			<point x="53" y="311" type="curve" smooth="yes"/>
			<point x="47" y="311"/>
			<point x="42" y="311"/>
			<point x="42" y="313" type="curve"/>
			<point x="46" y="328"/>
			<point x="55" y="377"/>
			<point x="58" y="429" type="curve"/>
			<point x="58" y="429"/>
			<point x="110" y="421"/>
		</contour>
	</outline>
</glyph>
<glyph name="asciitilde" format="2">
	<unicode hex="007E"/>
	<advance width="556"/>
	<outline>
		<contour>
			<point x="265" y="271" type="curve" smooth="yes"/>
			<point x="231" y="284"/>
			<point x="196" y="296"/>
			<point x="152" y="296" type="curve" smooth="yes"/>
			<point x="114" y="296"/>
			<point x="86" y="274"/>
			<point x="63" y="253" type="curve"/>
			<point x="57" y="256"/>
			<point x="55" y="262"/>
			<point x="55" y="270" type="curve" smooth="yes"/>
			<point x="55" y="306"/>
			<point x="130" y="346"/>
			<point x="182" y="346" type="curve" smooth="yes"/>
			<point x="228" y="346"/>
			<point x="263" y="332"/>
			<point x="298" y="319" type="curve" smooth="yes"/>
			<point x="332" y="306"/>
			<point x="366" y="294"/>
			<point x="412" y="294" type="curve" smooth="yes"/>
			<point x="450" y="294"/>
			<point x="472" y="315"/>
			<point x="500" y="337" type="curve"/>
			<point x="506" y="334"/>
			<point x="509" y="328"/>
			<point x="509" y="320" type="curve" smooth="yes"/>
			<point x="509" y="288"/>
			<point x="445" y="244"/>
			<point x="384" y="244" type="curve" smooth="yes"/>
			<point x="336" y="244"/>
			<point x="301" y="257"/>
		</contour>
	</outline>
</glyph>
<glyph name="cent" format="2">
	<unicode hex="00A2"/>
	<advance width="435"/>
	<outline>
		<contour>
			<point x="266" y="461" type="line"/>
			<point x="274" y="461"/>
			<point x="293" y="462"/>
			<point x="293" y="455" type="curve"/>
			<point x="212" y="-44" type="line"/>
			<point x="203" y="-44"/>
			<point x="185" y="-44"/>
			<point x="185" y="-37" type="curve"/>
		</contour>
		<component base="c" xOffset="6"/>
	</outline>
</glyph>
<glyph name="sterling" format="2">
  <advance width="465"/>
  <unicode hex="00A3"/>
  <outline>
    <contour>
      <point x="307" y="621" type="curve" smooth="yes"/>
      <point x="341" y="621"/>
      <point x="354" y="614"/>
      <point x="377" y="598" type="curve"/>
      <point x="381" y="594"/>
      <point x="387" y="580"/>
      <point x="387" y="570" type="curve" smooth="yes"/>
      <point x="387" y="535"/>
      <point x="367" y="523"/>
      <point x="350" y="523" type="curve"/>
      <point x="329" y="523"/>
      <point x="313" y="546"/>
      <point x="298" y="560" type="curve" smooth="yes"/>
      <point x="283" y="574"/>
      <point x="277" y="576"/>
      <point x="264" y="576" type="curve" smooth="yes"/>
      <point x="213" y="576"/>
      <point x="197" y="515"/>
      <point x="197" y="448" type="curve" smooth="yes"/>
      <point x="197" y="376"/>
      <point x="218" y="321"/>
      <point x="218" y="266" type="curve" smooth="yes"/>
      <point x="218" y="193"/>
      <point x="155" y="117"/>
      <point x="131" y="95" type="curve"/>
      <point x="145" y="102"/>
      <point x="154" y="103"/>
      <point x="165" y="103" type="curve" smooth="yes"/>
      <point x="219" y="103"/>
      <point x="232" y="57"/>
      <point x="319" y="57" type="curve" smooth="yes"/>
      <point x="373" y="57"/>
      <point x="408" y="118"/>
      <point x="417" y="136" type="curve"/>
      <point x="418" y="136"/>
      <point x="430" y="128"/>
      <point x="430" y="120" type="curve" smooth="yes"/>
      <point x="430" y="116"/>
      <point x="429" y="111"/>
      <point x="427" y="105" type="curve" smooth="yes"/>
      <point x="416" y="74"/>
      <point x="360" y="-8"/>
      <point x="284" y="-8" type="curve" smooth="yes"/>
      <point x="201" y="-8"/>
      <point x="164" y="48"/>
      <point x="113" y="48" type="curve" smooth="yes"/>
      <point x="83" y="48"/>
      <point x="76" y="10"/>
      <point x="59" y="-6" type="curve"/>
      <point x="51" y="-6"/>
      <point x="43" y="7"/>
      <point x="43" y="16" type="curve" smooth="yes"/>
      <point x="43" y="44"/>
      <point x="77" y="77"/>
      <point x="92" y="92" type="curve" smooth="yes"/>
      <point x="119" y="119"/>
      <point x="145" y="178"/>
      <point x="145" y="226" type="curve" smooth="yes"/>
      <point x="145" y="247"/>
      <point x="123" y="359"/>
      <point x="122" y="390" type="curve" smooth="yes"/>
      <point x="118" y="523"/>
      <point x="215" y="621"/>
    </contour>
    <contour>
      <point x="76" y="334" type="curve"/>
      <point x="92" y="334"/>
      <point x="361" y="334"/>
      <point x="372" y="334" type="curve"/>
      <point x="386" y="323"/>
      <point x="369" y="303"/>
      <point x="363" y="299" type="curve"/>
      <point x="54" y="299" type="line"/>
      <point x="48" y="305"/>
      <point x="67" y="334"/>
    </contour>
  </outline>
</glyph>
<glyph name="currency" format="2">
	<unicode hex="00A4"/>
	<advance width="560"/>
	<outline>
		<contour>
			<point x="287" y="148" type="curve" smooth="yes"/>
			<point x="347" y="148"/>
			<point x="386" y="214"/>
			<point x="386" y="287" type="curve" smooth="yes"/>
			<point x="386" y="377"/>
			<point x="333" y="452"/>
			<point x="271" y="452" type="curve" smooth="yes"/>
			<point x="211" y="452"/>
			<point x="171" y="385"/>
			<point x="171" y="312" type="curve" smooth="yes"/>
			<point x="171" y="222"/>
			<point x="225" y="148"/>
		</contour>
		<contour>
			<point x="389" y="444" type="curve"/>
			<point x="446" y="498" type="line" smooth="yes"/>
			<point x="454" y="506"/>
			<point x="479" y="478"/>
			<point x="486" y="455" type="curve"/>
			<point x="428" y="400" type="line"/>
			<point x="446" y="371"/>
			<point x="456" y="336"/>
			<point x="456" y="300" type="curve" smooth="yes"/>
			<point x="456" y="261"/>
			<point x="445" y="224"/>
			<point x="424" y="194" type="curve"/>
			<point x="477" y="138" type="line" smooth="yes"/>
			<point x="485" y="130"/>
			<point x="457" y="105"/>
			<point x="434" y="98" type="curve"/>
			<point x="383" y="151" type="line"/>
			<point x="354" y="130"/>
			<point x="318" y="117"/>
			<point x="279" y="117" type="curve" smooth="yes"/>
			<point x="237" y="117"/>
			<point x="198" y="132"/>
			<point x="168" y="156" type="curve"/>
			<point x="116" y="107" type="line" smooth="yes"/>
			<point x="108" y="99"/>
			<point x="83" y="127"/>
			<point x="76" y="150" type="curve"/>
			<point x="129" y="200" type="line"/>
			<point x="110" y="229"/>
			<point x="100" y="264"/>
			<point x="100" y="300" type="curve" smooth="yes"/>
			<point x="100" y="343"/>
			<point x="114" y="382"/>
			<point x="137" y="413" type="curve"/>
			<point x="86" y="468" type="line" smooth="yes"/>
			<point x="78" y="476"/>
			<point x="106" y="501"/>
			<point x="129" y="508" type="curve"/>
			<point x="180" y="454" type="line"/>
			<point x="208" y="474"/>
			<point x="242" y="484"/>
			<point x="279" y="484" type="curve" smooth="yes"/>
			<point x="321" y="484"/>
			<point x="359" y="469"/>
		</contour>
	</outline>
</glyph>
<glyph name="yen" format="2">
  <advance width="656"/>
  <unicode hex="00A5"/>
  <outline>
    <contour>
      <point x="218" y="171" type="curve"/>
      <point x="234" y="171"/>
      <point x="462" y="171"/>
      <point x="473" y="171" type="curve"/>
      <point x="487" y="160"/>
      <point x="470" y="139"/>
      <point x="464" y="135" type="curve"/>
      <point x="198" y="135" type="line"/>
      <point x="192" y="141"/>
      <point x="209" y="171"/>
    </contour>
    <contour>
      <point x="218" y="249" type="curve"/>
      <point x="234" y="249"/>
      <point x="462" y="249"/>
      <point x="473" y="249" type="curve"/>
      <point x="487" y="238"/>
      <point x="470" y="217"/>
      <point x="464" y="213" type="curve"/>
      <point x="198" y="213" type="line"/>
      <point x="192" y="219"/>
      <point x="209" y="249"/>
    </contour>
    <contour>
      <point x="294" y="113" type="curve" smooth="yes"/>
      <point x="294" y="239" type="line" smooth="yes"/>
      <point x="294" y="246"/>
      <point x="292" y="257"/>
      <point x="287" y="267" type="curve" smooth="yes"/>
      <point x="230" y="370"/>
      <point x="206" y="410"/>
      <point x="148" y="514" type="curve" smooth="yes"/>
      <point x="127" y="550"/>
      <point x="111" y="565"/>
      <point x="84" y="581" type="curve" smooth="yes"/>
      <point x="67" y="591"/>
      <point x="41" y="597"/>
      <point x="29" y="597" type="curve" smooth="yes"/>
      <point x="24" y="597"/>
      <point x="24" y="620"/>
      <point x="29" y="625" type="curve"/>
      <point x="77" y="623"/>
      <point x="103" y="620"/>
      <point x="151" y="620" type="curve" smooth="yes"/>
      <point x="199" y="620"/>
      <point x="237" y="623"/>
      <point x="276" y="625" type="curve"/>
      <point x="278" y="619"/>
      <point x="279" y="597"/>
      <point x="274" y="597" type="curve" smooth="yes"/>
      <point x="260" y="597"/>
      <point x="216" y="590"/>
      <point x="216" y="565" type="curve" smooth="yes"/>
      <point x="216" y="557"/>
      <point x="219" y="549"/>
      <point x="227" y="536" type="curve" smooth="yes"/>
      <point x="363" y="304" type="line"/>
      <point x="411" y="390"/>
      <point x="479" y="524"/>
      <point x="492" y="557" type="curve" smooth="yes"/>
      <point x="493" y="560"/>
      <point x="495" y="565"/>
      <point x="495" y="571" type="curve" smooth="yes"/>
      <point x="495" y="577"/>
      <point x="477" y="596"/>
      <point x="422" y="596" type="curve"/>
      <point x="419" y="596"/>
      <point x="418" y="621"/>
      <point x="420" y="624" type="curve"/>
      <point x="456" y="622"/>
      <point x="484" y="619"/>
      <point x="520" y="619" type="curve" smooth="yes"/>
      <point x="571" y="619"/>
      <point x="589" y="622"/>
      <point x="628" y="624" type="curve"/>
      <point x="630" y="618"/>
      <point x="629" y="596"/>
      <point x="626" y="596" type="curve"/>
      <point x="618" y="596"/>
      <point x="561" y="596"/>
      <point x="539" y="557" type="curve" smooth="yes"/>
      <point x="502" y="492"/>
      <point x="427" y="350"/>
      <point x="385" y="272" type="curve" smooth="yes"/>
      <point x="379" y="261"/>
      <point x="380" y="251"/>
      <point x="380" y="242" type="curve" smooth="yes"/>
      <point x="380" y="183"/>
      <point x="379" y="113"/>
      <point x="379" y="113" type="curve" smooth="yes"/>
      <point x="379" y="84"/>
      <point x="379" y="57"/>
      <point x="384" y="41" type="curve" smooth="yes"/>
      <point x="387" y="30"/>
      <point x="439" y="25"/>
      <point x="451" y="25" type="curve"/>
      <point x="455" y="20"/>
      <point x="456" y="2"/>
      <point x="451" y="-3" type="curve"/>
      <point x="411" y="-1"/>
      <point x="375" y="2"/>
      <point x="337" y="2" type="curve" smooth="yes"/>
      <point x="299" y="2"/>
      <point x="261" y="-1"/>
      <point x="221" y="-3" type="curve"/>
      <point x="216" y="2"/>
      <point x="217" y="20"/>
      <point x="221" y="25" type="curve"/>
      <point x="233" y="25"/>
      <point x="286" y="30"/>
      <point x="289" y="41" type="curve" smooth="yes"/>
      <point x="294" y="57"/>
      <point x="294" y="84"/>
    </contour>
  </outline>
</glyph>
<glyph name="section" format="2">
	<unicode hex="00A7"/>
	<advance width="430"/>
	<outline>
		<contour>
			<point x="297" y="638" type="curve" smooth="yes"/>
			<point x="188" y="638"/>
			<point x="117" y="573"/>
			<point x="117" y="495" type="curve" smooth="yes"/>
			<point x="117" y="425"/>
			<point x="185" y="370"/>
			<point x="232" y="327" type="curve" smooth="yes"/>
			<point x="285" y="278"/>
			<point x="342" y="213"/>
			<point x="342" y="132" type="curve" smooth="yes"/>
			<point x="342" y="89"/>
			<point x="324" y="69"/>
			<point x="303" y="32" type="curve" smooth="yes"/>
			<point x="303" y="32"/>
			<point x="280" y="14"/>
			<point x="270" y="-3" type="curve" smooth="yes"/>
			<point x="264" y="-14"/>
			<point x="266" y="-22"/>
			<point x="264" y="-34" type="curve"/>
			<point x="301" y="-9"/>
			<point x="395" y="103"/>
			<point x="395" y="175" type="curve" smooth="yes"/>
			<point x="395" y="259"/>
			<point x="332" y="327"/>
			<point x="281" y="374" type="curve" smooth="yes"/>
			<point x="235" y="416"/>
			<point x="162" y="491"/>
			<point x="162" y="536" type="curve" smooth="yes"/>
			<point x="162" y="573"/>
			<point x="211" y="589"/>
			<point x="241" y="589" type="curve" smooth="yes"/>
			<point x="256" y="589"/>
			<point x="264" y="585"/>
			<point x="272" y="581" type="curve" smooth="yes"/>
			<point x="282" y="576"/>
			<point x="291" y="569"/>
			<point x="308" y="569" type="curve" smooth="yes"/>
			<point x="324" y="569"/>
			<point x="343" y="590"/>
			<point x="343" y="604" type="curve" smooth="yes"/>
			<point x="343" y="610"/>
			<point x="342" y="620"/>
			<point x="337" y="630" type="curve"/>
			<point x="323" y="636"/>
			<point x="311" y="638"/>
		</contour>
		<contour>
			<point x="135" y="-76" type="curve" smooth="yes"/>
			<point x="244" y="-76"/>
			<point x="314" y="-12"/>
			<point x="314" y="66" type="curve" smooth="yes"/>
			<point x="314" y="136"/>
			<point x="246" y="191"/>
			<point x="199" y="234" type="curve" smooth="yes"/>
			<point x="146" y="283"/>
			<point x="90" y="349"/>
			<point x="90" y="430" type="curve" smooth="yes"/>
			<point x="90" y="473"/>
			<point x="108" y="492"/>
			<point x="129" y="529" type="curve" smooth="yes"/>
			<point x="129" y="529"/>
			<point x="152" y="547"/>
			<point x="162" y="564" type="curve" smooth="yes"/>
			<point x="168" y="575"/>
			<point x="166" y="584"/>
			<point x="168" y="596" type="curve"/>
			<point x="131" y="571"/>
			<point x="37" y="459"/>
			<point x="37" y="387" type="curve" smooth="yes"/>
			<point x="37" y="303"/>
			<point x="99" y="235"/>
			<point x="150" y="188" type="curve" smooth="yes"/>
			<point x="196" y="146"/>
			<point x="270" y="70"/>
			<point x="270" y="25" type="curve" smooth="yes"/>
			<point x="270" y="-12"/>
			<point x="220" y="-27"/>
			<point x="190" y="-27" type="curve" smooth="yes"/>
			<point x="175" y="-27"/>
			<point x="167" y="-24"/>
			<point x="159" y="-20" type="curve" smooth="yes"/>
			<point x="149" y="-15"/>
			<point x="141" y="-8"/>
			<point x="124" y="-8" type="curve" smooth="yes"/>
			<point x="108" y="-8"/>
			<point x="89" y="-29"/>
			<point x="89" y="-43" type="curve" smooth="yes"/>
			<point x="89" y="-49"/>
			<point x="90" y="-58"/>
			<point x="95" y="-68" type="curve"/>
			<point x="109" y="-74"/>
			<point x="121" y="-76"/>
		</contour>
	</outline>
</glyph>
<glyph name="ordfeminine" format="2">
	<unicode hex="00AA"/>
	<advance width="336"/>
	<outline>
		<contour>
			<point x="147" y="279" type="curve" smooth="yes"/>
			<point x="170" y="279"/>
			<point x="206" y="305"/>
			<point x="206" y="312" type="curve" smooth="yes"/>
			<point x="206" y="396" type="line"/>
			<point x="187" y="390"/>
			<point x="156" y="381"/>
			<point x="144" y="376" type="curve" smooth="yes"/>
			<point x="120" y="366"/>
			<point x="102" y="352"/>
			<point x="102" y="327" type="curve" smooth="yes"/>
			<point x="102" y="302"/>
			<point x="122" y="279"/>
		</contour>
		<contour>
			<point x="184" y="543" type="curve" smooth="yes"/>
			<point x="222" y="543"/>
			<point x="258" y="503"/>
			<point x="258" y="451" type="curve" smooth="yes"/>
			<point x="258" y="312" type="line" smooth="yes"/>
			<point x="258" y="293"/>
			<point x="262" y="279"/>
			<point x="278" y="279" type="curve" smooth="yes"/>
			<point x="290" y="279"/>
			<point x="299" y="287"/>
			<point x="301" y="288" type="curve"/>
			<point x="303" y="288"/>
			<point x="304" y="285"/>
			<point x="304" y="283" type="curve" smooth="yes"/>
			<point x="304" y="279"/>
			<point x="302" y="274"/>
			<point x="300" y="271" type="curve"/>
			<point x="292" y="263"/>
			<point x="264" y="244"/>
			<point x="249" y="244" type="curve" smooth="yes"/>
			<point x="229" y="244"/>
			<point x="212" y="267"/>
			<point x="208" y="288" type="curve"/>
			<point x="200" y="280"/>
			<point x="148" y="243"/>
			<point x="125" y="243" type="curve" smooth="yes"/>
			<point x="80" y="243"/>
			<point x="46" y="277"/>
			<point x="46" y="321" type="curve" smooth="yes"/>
			<point x="46" y="348"/>
			<point x="65" y="369"/>
			<point x="80" y="375" type="curve" smooth="yes"/>
			<point x="118" y="389"/>
			<point x="178" y="409"/>
			<point x="198" y="418" type="curve" smooth="yes"/>
			<point x="205" y="421"/>
			<point x="206" y="423"/>
			<point x="206" y="435" type="curve" smooth="yes"/>
			<point x="206" y="453" type="line" smooth="yes"/>
			<point x="206" y="483"/>
			<point x="185" y="514"/>
			<point x="148" y="514" type="curve" smooth="yes"/>
			<point x="125" y="514"/>
			<point x="115" y="502"/>
			<point x="110" y="476" type="curve" smooth="yes"/>
			<point x="106" y="453"/>
			<point x="96" y="443"/>
			<point x="79" y="443" type="curve" smooth="yes"/>
			<point x="64" y="443"/>
			<point x="56" y="458"/>
			<point x="56" y="472" type="curve" smooth="yes"/>
			<point x="56" y="475"/>
			<point x="58" y="485"/>
			<point x="61" y="488" type="curve"/>
			<point x="82" y="508"/>
			<point x="134" y="543"/>
		</contour>
	</outline>
</glyph>
<glyph name="degree" format="2">
  <advance width="267"/>
  <unicode hex="00B0"/>
  <outline>
    <contour>
      <point x="73" y="523" type="curve" smooth="yes"/>
      <point x="73" y="490"/>
      <point x="101" y="463"/>
      <point x="134" y="463" type="curve" smooth="yes"/>
      <point x="167" y="463"/>
      <point x="193" y="490"/>
      <point x="193" y="523" type="curve" smooth="yes"/>
      <point x="193" y="556"/>
      <point x="167" y="583"/>
      <point x="134" y="583" type="curve" smooth="yes"/>
      <point x="101" y="583"/>
      <point x="73" y="556"/>
    </contour>
    <contour>
      <point x="37" y="523" type="curve" smooth="yes"/>
      <point x="37" y="576"/>
      <point x="81" y="619"/>
      <point x="134" y="619" type="curve" smooth="yes"/>
      <point x="187" y="619"/>
      <point x="229" y="576"/>
      <point x="229" y="523" type="curve" smooth="yes"/>
      <point x="229" y="470"/>
      <point x="187" y="427"/>
      <point x="134" y="427" type="curve" smooth="yes"/>
      <point x="81" y="427"/>
      <point x="37" y="470"/>
    </contour>
  </outline>
</glyph>
<glyph name="mu" format="2">
	<unicode hex="00B5"/>
	<advance width="528"/>
	<outline>
		<contour>
			<point x="141" y="218" type="curve" smooth="yes"/>
			<point x="141" y="141"/>
			<point x="155" y="62"/>
			<point x="190" y="62" type="curve" smooth="yes"/>
			<point x="255" y="62"/>
			<point x="305" y="152"/>
			<point x="329" y="222" type="curve"/>
			<point x="329" y="245"/>
			<point x="329" y="269"/>
			<point x="329" y="291" type="curve" smooth="yes"/>
			<point x="329" y="304"/>
			<point x="330" y="370"/>
			<point x="329" y="407" type="curve"/>
			<point x="334" y="415"/>
			<point x="341" y="427"/>
			<point x="353" y="427" type="curve" smooth="yes"/>
			<point x="363" y="427"/>
			<point x="404" y="404"/>
			<point x="404" y="391" type="curve" smooth="yes"/>
			<point x="404" y="373"/>
			<point x="396" y="327"/>
			<point x="382" y="240" type="curve" smooth="yes"/>
			<point x="380" y="230"/>
			<point x="372" y="190"/>
			<point x="372" y="190" type="curve"/>
			<point x="372" y="121"/>
			<point x="395" y="64"/>
			<point x="440" y="64" type="curve" smooth="yes"/>
			<point x="465" y="64"/>
			<point x="483" y="85"/>
			<point x="490" y="94" type="curve"/>
			<point x="493" y="94"/>
			<point x="496" y="90"/>
			<point x="499" y="85" type="curve" smooth="yes"/>
			<point x="501" y="81"/>
			<point x="502" y="77"/>
			<point x="502" y="74" type="curve" smooth="yes"/>
			<point x="489" y="31"/>
			<point x="450" y="-4"/>
			<point x="411" y="-4" type="curve" smooth="yes"/>
			<point x="364" y="-3"/>
			<point x="350" y="113"/>
			<point x="348" y="139" type="curve"/>
			<point x="319" y="71"/>
			<point x="264" y="-9"/>
			<point x="196" y="-9" type="curve" smooth="yes"/>
			<point x="155" y="-9"/>
			<point x="140" y="70"/>
			<point x="135" y="99" type="curve"/>
			<point x="137" y="75"/>
			<point x="130" y="-87"/>
			<point x="151" y="-202" type="curve"/>
			<point x="146" y="-210"/>
			<point x="140" y="-222"/>
			<point x="128" y="-222" type="curve" smooth="yes"/>
			<point x="118" y="-222"/>
			<point x="76" y="-199"/>
			<point x="76" y="-186" type="curve" smooth="yes"/>
			<point x="76" y="-168"/>
			<point x="85" y="97"/>
			<point x="97" y="199" type="curve"/>
			<point x="97" y="222"/>
			<point x="93" y="269"/>
			<point x="93" y="291" type="curve" smooth="yes"/>
			<point x="93" y="304"/>
			<point x="94" y="370"/>
			<point x="93" y="407" type="curve"/>
			<point x="98" y="415"/>
			<point x="104" y="427"/>
			<point x="116" y="427" type="curve" smooth="yes"/>
			<point x="126" y="427"/>
			<point x="168" y="404"/>
			<point x="168" y="391" type="curve" smooth="yes"/>
			<point x="168" y="373"/>
			<point x="165" y="327"/>
			<point x="146" y="240" type="curve" smooth="yes"/>
			<point x="145" y="234"/>
			<point x="141" y="218"/>
		</contour>
	</outline>
</glyph>
<glyph name="paragraph" format="2">
  <advance width="472"/>
  <unicode hex="00B6"/>
  <outline>
    <contour>
      <point x="314" y="325" type="curve"/>
      <point x="314" y="360"/>
      <point x="314" y="579"/>
      <point x="314" y="592" type="curve"/>
      <point x="310" y="596"/>
      <point x="296" y="597"/>
      <point x="286" y="597" type="curve" smooth="yes"/>
      <point x="276" y="597"/>
      <point x="265" y="597"/>
      <point x="259" y="591" type="curve"/>
      <point x="259" y="591"/>
      <point x="259" y="420"/>
      <point x="259" y="320" type="curve"/>
      <point x="265" y="320"/>
      <point x="310" y="322"/>
    </contour>
    <contour>
      <point x="313" y="285" type="line"/>
      <point x="299" y="284"/>
      <point x="275" y="282"/>
      <point x="259" y="281" type="curve"/>
      <point x="259" y="216"/>
      <point x="259" y="178"/>
      <point x="259" y="113" type="curve" smooth="yes"/>
      <point x="259" y="84"/>
      <point x="259" y="57"/>
      <point x="262" y="41" type="curve" smooth="yes"/>
      <point x="263" y="34"/>
      <point x="282" y="35"/>
      <point x="286" y="35" type="curve" smooth="yes"/>
      <point x="293" y="35"/>
      <point x="311" y="35"/>
      <point x="312" y="41" type="curve" smooth="yes"/>
      <point x="315" y="57"/>
      <point x="314" y="84"/>
      <point x="314" y="113" type="curve" smooth="yes"/>
    </contour>
    <contour>
      <point x="353" y="292" type="curve"/>
      <point x="353" y="223"/>
      <point x="353" y="182"/>
      <point x="353" y="113" type="curve" smooth="yes"/>
      <point x="353" y="84"/>
      <point x="352" y="57"/>
      <point x="357" y="41" type="curve" smooth="yes"/>
      <point x="360" y="30"/>
      <point x="409" y="22"/>
      <point x="421" y="22" type="curve"/>
      <point x="423" y="22"/>
      <point x="423" y="-2"/>
      <point x="421" y="-4" type="curve"/>
      <point x="359" y="-2"/>
      <point x="352" y="2"/>
      <point x="290" y="2" type="curve" smooth="yes"/>
      <point x="245" y="2"/>
      <point x="193" y="-2"/>
      <point x="154" y="-4" type="curve"/>
      <point x="152" y="2"/>
      <point x="151" y="18"/>
      <point x="156" y="22" type="curve"/>
      <point x="164" y="22"/>
      <point x="213" y="30"/>
      <point x="216" y="41" type="curve" smooth="yes"/>
      <point x="221" y="57"/>
      <point x="221" y="84"/>
      <point x="221" y="113" type="curve" smooth="yes"/>
      <point x="221" y="280" type="line"/>
      <point x="96" y="280"/>
      <point x="33" y="390"/>
      <point x="33" y="458" type="curve" smooth="yes"/>
      <point x="33" y="564"/>
      <point x="120" y="637"/>
      <point x="200" y="637" type="curve" smooth="yes"/>
      <point x="258" y="637"/>
      <point x="237" y="633"/>
      <point x="295" y="633" type="curve" smooth="yes"/>
      <point x="360" y="633"/>
      <point x="413" y="638"/>
      <point x="413" y="638" type="curve"/>
      <point x="418" y="633"/>
      <point x="417" y="612"/>
      <point x="412" y="609" type="curve"/>
      <point x="397" y="609"/>
      <point x="361" y="602"/>
      <point x="356" y="590" type="curve" smooth="yes"/>
      <point x="354" y="583"/>
      <point x="354" y="577"/>
      <point x="354" y="527" type="curve" smooth="yes"/>
      <point x="354" y="467"/>
      <point x="354" y="350"/>
      <point x="354" y="331" type="curve"/>
      <point x="359" y="330"/>
      <point x="401" y="344"/>
      <point x="401" y="344" type="curve"/>
      <point x="406" y="344"/>
      <point x="411" y="342"/>
      <point x="411" y="338" type="curve" smooth="yes"/>
      <point x="410" y="328"/>
      <point x="390" y="305"/>
      <point x="383" y="302" type="curve" smooth="yes"/>
      <point x="372" y="297"/>
      <point x="361" y="293"/>
    </contour>
  </outline>
</glyph>
<glyph name="periodcentered" format="2">
  <advance width="292"/>
  <unicode hex="00B7"/>
  <outline>
    <contour>
      <point x="89.5" y="258" type="curve" smooth="yes"/>
      <point x="89.5" y="289"/>
      <point x="114.5" y="314"/>
      <point x="145.5" y="314" type="curve" smooth="yes"/>
      <point x="176.5" y="314"/>
      <point x="202.5" y="289"/>
      <point x="202.5" y="258" type="curve" smooth="yes"/>
      <point x="202.5" y="227"/>
      <point x="176.5" y="200"/>
      <point x="145.5" y="200" type="curve" smooth="yes"/>
      <point x="114.5" y="200"/>
      <point x="89.5" y="227"/>
    </contour>
  </outline>
</glyph>
<glyph name="onesuperior" format="2">
  <advance width="285"/>
  <unicode hex="00B9"/>
  <outline>
    <contour>
      <point x="120" y="506" type="line" smooth="yes"/>
      <point x="120" y="551"/>
      <point x="113" y="556"/>
      <point x="102" y="556" type="curve" smooth="yes"/>
      <point x="90" y="556"/>
      <point x="67" y="547"/>
      <point x="47" y="540" type="curve"/>
      <point x="41" y="543"/>
      <point x="38" y="551"/>
      <point x="38" y="557" type="curve" smooth="yes"/>
      <point x="38" y="560"/>
      <point x="39" y="563"/>
      <point x="41" y="564" type="curve" smooth="yes"/>
      <point x="145" y="607"/>
      <point x="185" y="637"/>
      <point x="188" y="637" type="curve" smooth="yes"/>
      <point x="189" y="637" type="line" smooth="yes"/>
      <point x="195" y="637"/>
      <point x="200" y="617"/>
      <point x="201" y="614" type="curve"/>
      <point x="201" y="614"/>
      <point x="192" y="573"/>
      <point x="192" y="535" type="curve" smooth="yes"/>
      <point x="192" y="332" type="line" smooth="yes"/>
      <point x="192" y="312"/>
      <point x="193" y="302"/>
      <point x="200" y="286" type="curve" smooth="yes"/>
      <point x="203" y="279"/>
      <point x="243" y="272"/>
      <point x="251" y="272" type="curve"/>
      <point x="254" y="272"/>
      <point x="254" y="251"/>
      <point x="251" y="247" type="curve"/>
      <point x="213" y="248"/>
      <point x="195" y="250"/>
      <point x="157" y="250" type="curve" smooth="yes"/>
      <point x="119" y="250"/>
      <point x="98" y="248"/>
      <point x="60" y="247" type="curve"/>
      <point x="55" y="250"/>
      <point x="55" y="271"/>
      <point x="60" y="271" type="curve" smooth="yes"/>
      <point x="72" y="271"/>
      <point x="111" y="278"/>
      <point x="114" y="285" type="curve" smooth="yes"/>
      <point x="119" y="298"/>
      <point x="120" y="320"/>
      <point x="120" y="330" type="curve" smooth="yes"/>
    </contour>
  </outline>
</glyph>
<glyph name="ordmasculine" format="2">
  <advance width="378"/>
  <unicode hex="00BA"/>
  <outline>
    <contour>
      <point x="183" y="518" type="curve" smooth="yes"/>
      <point x="126" y="518"/>
      <point x="104" y="456"/>
      <point x="104" y="401" type="curve" smooth="yes"/>
      <point x="104" y="337"/>
      <point x="135" y="265"/>
      <point x="199" y="265" type="curve" smooth="yes"/>
      <point x="253" y="265"/>
      <point x="274" y="328"/>
      <point x="274" y="382" type="curve" smooth="yes"/>
      <point x="274" y="445"/>
      <point x="246" y="518"/>
    </contour>
    <contour>
      <point x="191" y="541" type="curve" smooth="yes"/>
      <point x="276" y="541"/>
      <point x="342" y="475"/>
      <point x="342" y="394" type="curve" smooth="yes"/>
      <point x="342" y="313"/>
      <point x="276" y="241"/>
      <point x="191" y="241" type="curve" smooth="yes"/>
      <point x="106" y="241"/>
      <point x="37" y="309"/>
      <point x="37" y="390" type="curve" smooth="yes"/>
      <point x="37" y="473"/>
      <point x="104" y="541"/>
    </contour>
  </outline>
</glyph>
<glyph name="onequarter" format="2">
  <advance width="682"/>
  <unicode hex="00BC"/>
  <outline>
    <contour>
      <point x="592" y="397" type="curve" smooth="yes"/>
      <point x="598" y="397"/>
      <point x="601" y="391"/>
      <point x="601" y="386" type="curve" smooth="yes"/>
      <point x="601" y="291"/>
      <point x="601" y="233"/>
      <point x="601" y="143" type="curve"/>
      <point x="608" y="143"/>
      <point x="625" y="143"/>
      <point x="635" y="143" type="curve"/>
      <point x="644" y="135"/>
      <point x="649" y="118"/>
      <point x="641" y="104" type="curve"/>
      <point x="627" y="104"/>
      <point x="610" y="104"/>
      <point x="604" y="104" type="curve"/>
      <point x="604" y="0" type="line"/>
      <point x="602" y="-2"/>
      <point x="588" y="-3"/>
      <point x="574" y="-3" type="curve" smooth="yes"/>
      <point x="561" y="-3"/>
      <point x="548" y="-2"/>
      <point x="543" y="2" type="curve"/>
      <point x="543" y="104" type="line"/>
      <point x="382" y="104" type="line"/>
      <point x="377" y="105"/>
      <point x="373" y="108"/>
      <point x="372" y="119" type="curve"/>
      <point x="572" y="386" type="line" smooth="yes"/>
      <point x="576" y="391"/>
      <point x="584" y="397"/>
    </contour>
    <contour>
      <point x="543" y="147" type="curve"/>
      <point x="543" y="147"/>
      <point x="543" y="289"/>
      <point x="543" y="298" type="curve"/>
      <point x="503" y="247"/>
      <point x="476" y="204"/>
      <point x="432" y="147" type="curve"/>
      <point x="439" y="147"/>
      <point x="535" y="147"/>
    </contour>
    <contour>
      <point x="170" y="521" type="curve" smooth="yes"/>
      <point x="170" y="328" type="line" smooth="yes"/>
      <point x="170" y="308"/>
      <point x="172" y="295"/>
      <point x="177" y="280" type="curve" smooth="yes"/>
      <point x="179" y="273"/>
      <point x="218" y="267"/>
      <point x="226" y="267" type="curve"/>
      <point x="231" y="262"/>
      <point x="228" y="247"/>
      <point x="227" y="245" type="curve"/>
      <point x="189" y="246"/>
      <point x="181" y="248"/>
      <point x="143" y="248" type="curve" smooth="yes"/>
      <point x="105" y="248"/>
      <point x="91" y="246"/>
      <point x="53" y="245" type="curve"/>
      <point x="48" y="248"/>
      <point x="49" y="263"/>
      <point x="53" y="267" type="curve"/>
      <point x="65" y="267"/>
      <point x="99" y="274"/>
      <point x="102" y="281" type="curve" smooth="yes"/>
      <point x="107" y="294"/>
      <point x="109" y="316"/>
      <point x="109" y="326" type="curve" smooth="yes"/>
      <point x="109" y="508" type="line" smooth="yes"/>
      <point x="109" y="527"/>
      <point x="103" y="542"/>
      <point x="93" y="542" type="curve" smooth="yes"/>
      <point x="82" y="542"/>
      <point x="66" y="534"/>
      <point x="46" y="527" type="curve"/>
      <point x="40" y="530"/>
      <point x="35" y="539"/>
      <point x="33" y="545" type="curve"/>
      <point x="52" y="557"/>
      <point x="82" y="574"/>
      <point x="165" y="623" type="curve"/>
      <point x="172" y="621"/>
      <point x="178" y="614"/>
      <point x="178" y="607" type="curve"/>
      <point x="178" y="607"/>
      <point x="170" y="559"/>
    </contour>
    <contour>
      <point x="182" y="-12" type="curve" smooth="yes"/>
      <point x="172" y="-10"/>
      <point x="171" y="-4"/>
      <point x="171" y="-4" type="curve"/>
      <point x="512" y="621" type="line"/>
      <point x="513" y="623"/>
      <point x="525" y="632"/>
      <point x="542" y="629" type="curve" smooth="yes"/>
      <point x="548" y="628"/>
      <point x="550" y="622"/>
      <point x="550" y="619" type="curve"/>
      <point x="213" y="2" type="line" smooth="yes"/>
      <point x="210" y="-4"/>
      <point x="198" y="-15"/>
    </contour>
  </outline>
</glyph>
<glyph name="threequarters" format="2">
  <advance width="683"/>
  <unicode hex="00BE"/>
  <outline>
    <contour>
      <point x="593" y="397" type="curve" smooth="yes"/>
      <point x="599" y="397"/>
      <point x="602" y="391"/>
      <point x="602" y="386" type="curve" smooth="yes"/>
      <point x="602" y="291"/>
      <point x="602" y="233"/>
      <point x="602" y="143" type="curve"/>
      <point x="609" y="143"/>
      <point x="626" y="143"/>
      <point x="636" y="143" type="curve"/>
      <point x="645" y="135"/>
      <point x="650" y="118"/>
      <point x="642" y="104" type="curve"/>
      <point x="628" y="104"/>
      <point x="610" y="104"/>
      <point x="604" y="104" type="curve"/>
      <point x="604" y="0" type="line"/>
      <point x="602" y="-2"/>
      <point x="589" y="-3"/>
      <point x="575" y="-3" type="curve" smooth="yes"/>
      <point x="562" y="-3"/>
      <point x="549" y="-2"/>
      <point x="544" y="2" type="curve"/>
      <point x="544" y="104" type="line"/>
      <point x="383" y="104" type="line"/>
      <point x="378" y="105"/>
      <point x="374" y="108"/>
      <point x="373" y="119" type="curve"/>
      <point x="573" y="386" type="line" smooth="yes"/>
      <point x="577" y="391"/>
      <point x="585" y="397"/>
    </contour>
    <contour>
      <point x="544" y="147" type="curve"/>
      <point x="544" y="147"/>
      <point x="544" y="289"/>
      <point x="544" y="298" type="curve"/>
      <point x="504" y="247"/>
      <point x="477" y="204"/>
      <point x="433" y="147" type="curve"/>
      <point x="440" y="147"/>
      <point x="536" y="147"/>
    </contour>
    <contour>
      <point x="154" y="631" type="curve" smooth="yes"/>
      <point x="195" y="631"/>
      <point x="239" y="606"/>
      <point x="239" y="556" type="curve" smooth="yes"/>
      <point x="239" y="513"/>
      <point x="204" y="485"/>
      <point x="183" y="475" type="curve"/>
      <point x="208" y="475"/>
      <point x="271" y="441"/>
      <point x="271" y="377" type="curve" smooth="yes"/>
      <point x="271" y="291"/>
      <point x="196" y="243"/>
      <point x="111" y="243" type="curve" smooth="yes"/>
      <point x="90" y="243"/>
      <point x="56" y="249"/>
      <point x="46" y="258" type="curve"/>
      <point x="46" y="258"/>
      <point x="34" y="268"/>
      <point x="34" y="281" type="curve" smooth="yes"/>
      <point x="34" y="301"/>
      <point x="48" y="313"/>
      <point x="64" y="313" type="curve" smooth="yes"/>
      <point x="81" y="313"/>
      <point x="88" y="297"/>
      <point x="100" y="285" type="curve" smooth="yes"/>
      <point x="110" y="275"/>
      <point x="123" y="271"/>
      <point x="138" y="271" type="curve" smooth="yes"/>
      <point x="179" y="271"/>
      <point x="208" y="299"/>
      <point x="208" y="359" type="curve" smooth="yes"/>
      <point x="208" y="407"/>
      <point x="174" y="443"/>
      <point x="138" y="443" type="curve" smooth="yes"/>
      <point x="120" y="443"/>
      <point x="104" y="437"/>
      <point x="99" y="436" type="curve"/>
      <point x="97" y="438"/>
      <point x="95" y="442"/>
      <point x="94" y="447" type="curve" smooth="yes"/>
      <point x="93" y="450"/>
      <point x="93" y="454"/>
      <point x="94" y="456" type="curve"/>
      <point x="142" y="466"/>
      <point x="185" y="495"/>
      <point x="185" y="543" type="curve" smooth="yes"/>
      <point x="185" y="568"/>
      <point x="160" y="593"/>
      <point x="135" y="593" type="curve" smooth="yes"/>
      <point x="99" y="593"/>
      <point x="72" y="563"/>
      <point x="66" y="557" type="curve"/>
      <point x="61" y="559"/>
      <point x="57" y="571"/>
      <point x="58" y="572" type="curve"/>
      <point x="72" y="593"/>
      <point x="102" y="631"/>
    </contour>
    <contour>
      <point x="556" y="619" type="curve"/>
      <point x="219" y="2" type="line" smooth="yes"/>
      <point x="216" y="-4"/>
      <point x="204" y="-15"/>
      <point x="188" y="-12" type="curve" smooth="yes"/>
      <point x="178" y="-10"/>
      <point x="176" y="-4"/>
      <point x="176" y="-4" type="curve"/>
      <point x="518" y="621" type="line"/>
      <point x="519" y="623"/>
      <point x="531" y="632"/>
      <point x="548" y="629" type="curve" smooth="yes"/>
      <point x="554" y="628"/>
      <point x="556" y="622"/>
    </contour>
  </outline>
</glyph>
<glyph name="AE" format="2">
  <advance width="875"/>
  <unicode hex="00C6"/>
  <outline>
    <contour>
      <point x="462" y="0" type="curve" smooth="yes"/>
      <point x="397" y="0"/>
      <point x="349" y="-3"/>
      <point x="349" y="-3" type="curve"/>
      <point x="345" y="2"/>
      <point x="347" y="25"/>
      <point x="349" y="25" type="curve"/>
      <point x="361" y="25"/>
      <point x="408" y="36"/>
      <point x="413" y="48" type="curve"/>
      <point x="419" y="70"/>
      <point x="420" y="115"/>
      <point x="420" y="132" type="curve" smooth="yes"/>
      <point x="420" y="249" type="line"/>
      <point x="402" y="250"/>
      <point x="357" y="251"/>
      <point x="333" y="251" type="curve" smooth="yes"/>
      <point x="293" y="251"/>
      <point x="279" y="249"/>
      <point x="234" y="246" type="curve" smooth="yes"/>
      <point x="232" y="246"/>
      <point x="229" y="243"/>
      <point x="229" y="243" type="curve"/>
      <point x="229" y="243"/>
      <point x="187" y="174"/>
      <point x="157" y="126" type="curve" smooth="yes"/>
      <point x="137" y="96"/>
      <point x="118" y="64"/>
      <point x="118" y="51" type="curve" smooth="yes"/>
      <point x="118" y="28"/>
      <point x="173" y="25"/>
      <point x="181" y="25" type="curve"/>
      <point x="184" y="22"/>
      <point x="185" y="3"/>
      <point x="183" y="-3" type="curve"/>
      <point x="144" y="-1"/>
      <point x="131" y="2"/>
      <point x="88" y="2" type="curve" smooth="yes"/>
      <point x="43" y="2"/>
      <point x="32" y="-1"/>
      <point x="-13" y="-3" type="curve"/>
      <point x="-16" y="0"/>
      <point x="-16" y="18"/>
      <point x="-13" y="25" type="curve"/>
      <point x="-1" y="25"/>
      <point x="28" y="35"/>
      <point x="42" y="44" type="curve" smooth="yes"/>
      <point x="66" y="60"/>
      <point x="95" y="102"/>
      <point x="115" y="134" type="curve" smooth="yes"/>
      <point x="386" y="570" type="line" smooth="yes"/>
      <point x="389" y="575"/>
      <point x="393" y="583"/>
      <point x="393" y="590" type="curve" smooth="yes"/>
      <point x="393" y="608"/>
      <point x="361" y="614"/>
      <point x="349" y="614" type="curve"/>
      <point x="344" y="620"/>
      <point x="347" y="641"/>
      <point x="349" y="643" type="curve"/>
      <point x="349" y="643"/>
      <point x="397" y="642"/>
      <point x="462" y="642" type="curve" smooth="yes"/>
      <point x="554" y="642"/>
      <point x="669" y="648"/>
      <point x="775" y="648" type="curve"/>
      <point x="782" y="599"/>
      <point x="795" y="560"/>
      <point x="804" y="516" type="curve"/>
      <point x="801" y="513"/>
      <point x="793" y="511"/>
      <point x="786" y="511" type="curve" smooth="yes"/>
      <point x="779" y="511"/>
      <point x="773" y="513"/>
      <point x="772" y="518" type="curve" smooth="yes"/>
      <point x="751" y="596"/>
      <point x="711" y="609"/>
      <point x="659" y="609" type="curve" smooth="yes"/>
      <point x="575" y="609" type="line" smooth="yes"/>
      <point x="563" y="609"/>
      <point x="511" y="609"/>
      <point x="508" y="599" type="curve" smooth="yes"/>
      <point x="503" y="583"/>
      <point x="503" y="555"/>
      <point x="503" y="529" type="curve" smooth="yes"/>
      <point x="503" y="347" type="line" smooth="yes"/>
      <point x="503" y="342"/>
      <point x="524" y="341"/>
      <point x="545" y="341" type="curve" smooth="yes"/>
      <point x="597" y="341" type="line" smooth="yes"/>
      <point x="691" y="341"/>
      <point x="687" y="347"/>
      <point x="704" y="411" type="curve" smooth="yes"/>
      <point x="705" y="416"/>
      <point x="712" y="418"/>
      <point x="719" y="418" type="curve" smooth="yes"/>
      <point x="726" y="418"/>
      <point x="732" y="416"/>
      <point x="735" y="413" type="curve"/>
      <point x="735" y="229" type="line"/>
      <point x="733" y="227"/>
      <point x="727" y="225"/>
      <point x="720" y="225" type="curve" smooth="yes"/>
      <point x="713" y="225"/>
      <point x="706" y="227"/>
      <point x="704" y="232" type="curve" smooth="yes"/>
      <point x="689" y="288"/>
      <point x="686" y="291"/>
      <point x="677" y="297" type="curve" smooth="yes"/>
      <point x="666" y="304"/>
      <point x="610" y="305"/>
      <point x="573" y="305" type="curve" smooth="yes"/>
      <point x="546" y="305"/>
      <point x="503" y="305"/>
      <point x="503" y="296" type="curve" smooth="yes"/>
      <point x="503" y="110" type="line" smooth="yes"/>
      <point x="503" y="95"/>
      <point x="503" y="48"/>
      <point x="509" y="43" type="curve" smooth="yes"/>
      <point x="522" y="33"/>
      <point x="537" y="33"/>
      <point x="578" y="33" type="curve" smooth="yes"/>
      <point x="625" y="33" type="line" smooth="yes"/>
      <point x="671" y="33"/>
      <point x="721" y="43"/>
      <point x="748" y="60" type="curve" smooth="yes"/>
      <point x="779" y="79"/>
      <point x="794" y="116"/>
      <point x="810" y="158" type="curve" smooth="yes"/>
      <point x="811" y="162"/>
      <point x="816" y="164"/>
      <point x="823" y="164" type="curve" smooth="yes"/>
      <point x="833" y="164"/>
      <point x="845" y="161"/>
      <point x="848" y="158" type="curve"/>
      <point x="829" y="105"/>
      <point x="802" y="39"/>
      <point x="795" y="-4" type="curve"/>
      <point x="689" y="-4"/>
      <point x="592" y="0"/>
    </contour>
    <contour>
      <point x="420" y="290" type="curve"/>
      <point x="420" y="553" type="line"/>
      <point x="399" y="521"/>
      <point x="260" y="293"/>
      <point x="260" y="293" type="curve"/>
      <point x="260" y="293"/>
      <point x="259" y="289"/>
      <point x="261" y="289" type="curve" smooth="yes"/>
      <point x="286" y="288"/>
      <point x="316" y="288"/>
      <point x="338" y="288" type="curve" smooth="yes"/>
      <point x="368" y="288"/>
      <point x="401" y="289"/>
    </contour>
  </outline>
</glyph>
<glyph name="Eth" format="2">
	<unicode hex="00D0"/>
	<advance width="693"/>
	<outline>
		<contour>
			<point x="356" y="304" type="curve"/>
			<point x="328" y="304"/>
			<point x="62" y="304"/>
			<point x="48" y="304" type="curve"/>
			<point x="44" y="304"/>
			<point x="43" y="331"/>
			<point x="49" y="340" type="curve"/>
			<point x="77" y="340"/>
			<point x="342" y="340"/>
			<point x="356" y="340" type="curve"/>
			<point x="360" y="340"/>
			<point x="360" y="313"/>
		</contour>
		<component base="D"/>
	</outline>
</glyph>
<glyph name="Oslash" format="2">
  <advance width="730"/>
  <unicode hex="00D8"/>
  <outline>
    <contour>
      <point x="552" y="651" type="line"/>
      <point x="561" y="649"/>
      <point x="584" y="636"/>
      <point x="580" y="630" type="curve"/>
      <point x="172" y="-13" type="line"/>
      <point x="163" y="-10"/>
      <point x="140" y="4"/>
      <point x="144" y="10" type="curve"/>
    </contour>
    <component base="O"/>
  </outline>
</glyph>
